<?xml version="1.0" standalone="no"?>
<!DOCTYPE svg PUBLIC "-//W3C//DTD SVG 20010904//EN"
 "http://www.w3.org/TR/2001/REC-SVG-20010904/DTD/svg10.dtd">
<svg version="1.0" xmlns="http://www.w3.org/2000/svg"
 width="268.000000pt" height="268.000000pt" viewBox="0 0 268.000000 268.000000"
 preserveAspectRatio="xMidYMid meet">
<metadata>
Created by potrace 1.14, written by Peter Selinger 2001-2017
</metadata>
<g transform="translate(0.000000,268.000000) scale(0.100000,-0.100000)"
fill="#000000" stroke="none">
<path d="M895 2647 l-80 -33 -3 -47 c-2 -32 -8 -47 -18 -48 -7 -1 -45 -2 -82
-3 -58 -1 -75 -6 -109 -29 -55 -38 -155 -128 -149 -134 3 -3 84 -5 180 -4
l176 1 1 -48 c1 -63 -2 -116 -7 -122 -3 -2 -119 -5 -259 -5 -139 0 -256 -3
-258 -5 -17 -18 -96 -155 -92 -159 7 -7 2346 -7 2351 0 3 5 -78 144 -93 159
-2 2 -118 5 -256 6 -139 1 -256 2 -262 3 -11 1 -12 129 -1 156 5 14 30 16 168
15 90 0 171 -1 181 0 12 0 5 11 -25 38 -24 20 -45 40 -48 43 -3 4 -31 24 -62
46 -55 39 -59 40 -137 39 -88 -2 -85 -4 -81 61 1 26 -4 35 -31 48 -60 32 -139
55 -140 42 -1 -7 0 -42 0 -78 1 -46 -3 -68 -11 -71 -7 -2 -182 -3 -388 -3
l-375 0 -5 82 -5 82 -80 -32z m863 -382 c1 -56 -3 -84 -11 -87 -7 -2 -181 -3
-387 -3 l-375 0 -3 87 -3 87 389 0 390 0 0 -84z"/>
<path d="M179 1812 l-77 -3 -15 -57 c-23 -88 -36 -152 -42 -212 -7 -74 -7
-214 1 -234 3 -9 1 -16 -5 -16 -9 0 -8 -4 0 -13 10 -10 92 -13 382 -12 203 0
373 -3 378 -6 6 -3 9 -46 7 -94 l-3 -89 -357 0 c-259 0 -358 -3 -358 -11 0
-15 45 -143 52 -151 3 -3 155 -5 336 -5 l330 1 4 -67 c2 -38 2 -80 0 -95 l-3
-28 -286 0 -285 0 17 -27 c66 -103 191 -241 295 -324 172 -137 401 -239 604
-271 42 -6 79 -9 82 -5 5 5 9 529 5 610 -1 15 -14 17 -131 17 l-130 0 0 94 0
95 388 0 388 -1 2 -94 2 -93 -131 -3 -132 -3 -1 -313 -1 -312 28 0 c43 0 173
29 257 56 177 59 357 167 504 304 53 49 170 190 199 239 l18 31 -285 0 c-222
0 -286 3 -287 13 -1 14 -1 109 0 149 l1 27 288 0 c158 0 308 1 334 1 l47 0 21
57 c11 31 20 68 18 82 l-3 26 -345 1 c-190 1 -349 2 -355 3 -13 1 -9 172 4
180 12 8 683 7 696 -1 9 -6 11 539 2 549 -6 6 -1129 4 -1135 -2 -4 -4 -7 -459
-3 -525 1 -13 21 -16 130 -15 l130 0 -2 -95 -2 -94 -375 -1 c-206 0 -381 1
-387 3 -9 3 -13 30 -13 92 0 75 2 88 18 92 9 2 68 3 130 3 96 -2 112 0 113 14
3 65 1 522 -3 526 -5 6 -938 12 -1059 7z m890 -180 c3 -5 6 -52 6 -104 l-1
-93 -433 0 -432 -1 6 81 c8 102 13 123 33 127 46 9 815 0 821 -10z m1422 9
c18 -1 26 -33 36 -142 l5 -66 -433 1 -433 1 -1 100 c0 88 2 101 18 105 14 4
732 5 808 1z m-1416 -1214 c0 -65 -2 -122 -5 -128 -11 -16 -269 88 -278 112
-2 5 -8 9 -14 9 -10 0 -101 63 -158 110 l-25 20 239 -3 240 -2 1 -118z m1052
108 c-38 -37 -179 -130 -252 -165 -87 -43 -194 -82 -204 -76 -5 3 -7 216 -2
249 1 4 107 7 237 7 207 0 234 -2 221 -15z"/>
<path d="M1210 60 c0 -5 5 -10 11 -10 5 0 7 5 4 10 -3 6 -8 10 -11 10 -2 0 -4
-4 -4 -10z"/>
</g>
</svg>
