<svg width="286" height="56" viewBox="0 0 286 56" fill="none" xmlns="http://www.w3.org/2000/svg">
<g clip-path="url(#clip0_314_407)">
<path d="M76.1173 9.38912C76.9572 9.05436 77.5984 8.074 76.7856 7.3487C74.5187 5.31624 71.2132 5.06916 68.3682 6.33645C66.5619 7.14146 65.3156 8.52831 64.4034 10.0905C62.9403 10.4651 61.4592 10.8078 59.978 11.1346C57.6388 11.6527 55.2274 12.3222 52.8251 12.6012C52.3464 12.657 51.6781 12.7287 51.1452 12.6012C51.1813 11.836 51.2265 11.0788 51.2536 10.3137C51.2988 9.0703 49.8086 8.32108 48.5803 8.89495C46.5843 9.83546 46.6475 12.0751 47.7674 13.5656C47.6681 15.4147 47.5507 17.2559 47.3972 19.0971C47.2617 20.8027 50.5582 21.4324 50.7027 19.639C50.8201 18.1964 50.9194 16.7617 51.0097 15.3191C52.8793 15.5741 54.9655 15.072 56.7357 14.7054C58.8129 14.275 60.8992 13.8286 62.9674 13.3504C60.6644 20.2209 59.6529 27.4421 58.2801 34.4879C57.6027 37.963 56.9254 41.446 56.248 44.9211C55.8777 45.0805 55.5797 45.3675 55.4442 45.7899C55.1371 46.7862 55.679 47.639 56.4738 48.3086C57.3498 49.0498 58.9394 48.6035 59.1381 47.5673C60.7276 39.3737 62.2539 31.1722 63.9248 22.9946C64.6473 19.4637 65.2975 15.7017 66.9051 12.37C70.03 11.5411 73.1098 10.5847 76.0902 9.38912H76.1173Z" fill="black"/>
<path d="M104.269 17.7421C103.474 18.7145 102.507 19.5514 101.388 20.2209C100.909 20.5078 100.412 20.7629 99.8883 20.9781C99.9154 18.4913 100.385 15.9647 100.71 13.4859C100.8 12.7765 98.0188 12.0672 97.5491 12.5613C95.9415 14.2511 94.343 15.9408 92.7354 17.6385C93.0786 15.5821 93.5301 13.5497 94.1352 11.5332C94.6139 9.9311 95.1829 8.36094 95.8241 6.80671C96.7634 5.99373 97.6665 5.1409 98.4884 4.2243C98.9219 3.74608 98.7955 3.43523 98.2084 3.06062C97.5491 2.63819 96.6189 2.40705 95.8061 2.35126C93.9727 2.23967 93.5663 3.62652 93.0063 4.89381C92.8618 5.23654 92.7263 5.57927 92.5909 5.922C90.9471 7.31681 89.1318 8.5602 87.181 9.61229C87.8674 7.52405 88.5809 5.44377 89.3305 3.37147C89.5653 2.72587 88.6622 2.78166 88.2287 2.90919C87.5513 3.10845 86.7114 3.64246 86.4856 4.27212C85.6727 6.52775 84.896 8.79134 84.1555 11.0629C81.3015 12.2505 78.2398 13.0635 75.0969 13.4221C74.4737 13.4939 74.3744 13.7649 74.8801 14.1156C75.422 14.4902 76.4877 14.7691 77.1832 14.6894C79.3055 14.4503 81.3918 14.0119 83.4149 13.4221C83.0897 14.4503 82.7556 15.4705 82.4485 16.5067C82.1595 17.4711 81.8795 18.4435 81.6086 19.4079C81.3557 20.3086 80.9764 21.3128 81.1209 22.2533C81.4009 24.0786 83.2884 24.4213 84.9593 23.7518C85.447 23.5525 86.4946 22.883 86.3591 22.3091C86.2146 21.6874 85.2302 22.0541 84.8418 22.2135C85.3386 22.0142 84.6251 21.9345 84.3722 21.6556C84.1374 21.3846 84.0471 21.0737 84.011 20.739C83.9116 19.9021 84.3271 18.9456 84.5528 18.1406C85.0225 16.5067 85.5011 14.8727 86.0069 13.2468C86.0882 12.9838 86.1785 12.7287 86.2598 12.4657C87.9216 11.8281 89.5292 11.0788 91.0465 10.2021C89.8814 13.9562 89.1589 17.8138 88.8879 21.6954C88.8338 22.4048 91.5703 23.1301 92.049 22.62C93.6385 20.9462 95.219 19.2804 96.8086 17.6066C96.7453 18.0689 96.6821 18.5312 96.6279 18.9934C96.4473 20.4441 96.5557 21.5918 98.2084 22.2533C101.758 23.6721 105.56 20.9621 107.529 18.5471C107.836 18.1725 104.874 16.9929 104.269 17.7341V17.7421Z" fill="black"/>
<path d="M163.136 18.4754C161.203 18.316 159.695 19.2405 158.584 20.4919C158.837 18.9137 159.09 17.3356 159.333 15.7575C159.532 14.4981 157.121 13.3982 156.272 14.5778C154.14 17.5428 152.009 20.4999 149.778 23.409C147.719 26.0951 145.651 28.8927 143.149 31.2758C142.065 32.312 140.837 33.3083 139.41 33.9698C138.769 34.2647 138.082 34.5198 137.378 34.6632C137.27 34.6872 136.836 34.7987 136.601 34.7828C136.755 34.6872 136.565 33.9619 136.556 33.8742C136.412 32.7264 136.384 31.5707 136.466 30.415C138.913 28.6137 141.117 26.5892 142.752 24.0865C144.133 21.9664 145.416 18.2602 141.948 17.0248C138.119 15.6539 135.897 20.731 134.894 23.1141C134.109 24.9872 133.603 26.932 133.368 28.9007C130.794 30.7418 128.003 32.3518 125.285 34.0336C125.285 33.93 125.285 33.8184 125.285 33.7148C125.149 28.8528 124.454 24.0307 123.957 19.1927C123.713 16.8414 123.515 14.4902 123.451 12.1309C123.397 10.0347 123.451 7.4842 125.131 5.82635C126.405 4.575 128.952 3.74608 129.828 5.73868C130.595 7.49217 130.09 9.62823 129.593 11.3817C129.204 12.7686 132.329 13.8366 132.772 12.2744C133.774 8.75149 133.937 3.76202 129.177 2.33532C126.874 1.6419 124.264 2.34329 122.621 3.89752C120.769 5.64303 120.29 8.05806 120.263 10.3615C120.137 18.9536 122.332 27.5058 122.115 36.082C121.428 36.5522 120.751 37.0464 120.092 37.5565C114.564 41.8366 110.347 48.3962 113.038 54.9718C113.336 55.6971 114.33 56.0478 115.124 56.008C120.065 55.7848 122.295 50.8352 123.542 47.3043C124.662 44.156 125.14 40.8802 125.267 37.5884C125.267 37.5884 125.267 37.5884 125.276 37.5804C127.85 35.8668 130.631 34.2966 133.287 32.5989C133.314 32.9416 133.332 33.2764 133.377 33.6112C133.594 35.3726 134.587 36.9428 136.764 37.1899C138.471 37.3812 140.331 36.7595 141.785 36.0182C145.588 34.0734 148.162 30.6541 150.645 27.5537C152.162 25.6567 153.626 23.7279 155.071 21.7831C154.637 24.509 154.204 27.2269 153.77 29.9527C153.309 29.7455 152.768 29.6817 152.307 29.8571C151.548 30.152 151.53 30.9331 151.982 31.4671C152.352 31.9055 152.777 32.296 153.237 32.6388C152.957 33.6909 152.704 34.743 152.47 35.7791C151.214 41.4221 150.663 47.1608 150.121 52.8836C149.986 54.2784 153.048 55.3783 153.3 53.7763C154.339 47.2246 155.387 40.665 156.425 34.1133C159.044 34.7589 162.007 34.3604 164.265 32.8699C167.823 30.5186 169.548 25.6806 167.904 22.0063C167.11 20.2368 165.385 18.6826 163.145 18.4913L163.136 18.4754ZM140.006 20.6672C140.214 20.3644 140.431 20.0535 140.683 19.7745C140.711 19.7427 140.846 19.647 140.982 19.5434C140.991 19.6072 141 19.655 141 19.6789C141.027 20.9303 140.133 22.1418 139.41 23.162C138.85 23.959 138.209 24.7003 137.513 25.4096C137.595 25.1864 137.667 24.9712 137.757 24.7481C138.326 23.3214 139.085 21.9505 139.997 20.6672H140.006ZM121.672 41.0635C121.248 43.7973 120.489 46.4993 119.225 49.0259C118.448 50.5881 117.31 52.4053 115.54 53.1865C114.393 48.2528 117.725 43.6539 121.79 40.1867C121.753 40.4816 121.726 40.7686 121.681 41.0635H121.672ZM163.894 28.7811C162.901 30.2795 161.293 31.5548 159.315 31.8736C158.521 32.0011 157.699 31.9932 156.931 31.8338C157.184 31.0208 157.446 30.2158 157.735 29.4108C158.448 27.4819 159.288 25.569 160.3 23.7438C160.815 22.8113 162.16 20.4201 163.75 20.9462C164.942 21.3367 165.303 23.2098 165.33 24.1583C165.385 25.7444 164.798 27.4182 163.885 28.7731L163.894 28.7811Z" fill="black"/>
<path d="M186.32 8.97451C185.886 8.28108 185.073 7.96226 184.224 8.15355C182.915 8.44846 181.596 8.71148 180.278 8.95856C180.819 6.40007 181.37 3.84157 181.921 1.2751C182.165 0.159248 178.869 -0.542147 178.643 0.533856C177.993 3.5387 177.351 6.53556 176.719 9.5404C173.441 10.0186 170.135 10.3374 166.812 10.4969C165.963 10.5367 165.601 11.3497 165.8 11.9953C166.035 12.7206 166.839 13.2865 167.697 13.2466C170.515 13.1111 173.314 12.8561 176.096 12.4894C175.5 15.3588 174.913 18.2281 174.362 21.1054C173.739 24.3414 172.917 27.6651 173.052 30.9648C173.17 33.6429 175.292 35.7152 178.507 35.4282C182.481 35.0776 183.077 31.459 185.552 29.4265C186.482 28.6534 183.402 27.5535 182.508 28.2947C181.226 29.3468 180.603 30.7576 179.618 32.001C179.167 32.5748 178.625 33.1009 177.92 33.4436C177.207 33.7863 177.18 33.89 176.828 33.332C176.042 32.0727 176.313 30.2953 176.448 28.9324C176.629 27.0753 177.008 25.2341 177.351 23.393C178.074 19.5751 178.851 15.7733 179.645 11.9634C181.723 11.6207 183.782 11.2142 185.841 10.7519C186.681 10.5606 186.654 9.50852 186.329 8.98248L186.32 8.97451Z" fill="black"/>
<path d="M216.891 21.0897C219.013 17.8616 221 14.1076 220.82 10.2818C220.747 8.66381 220.323 6.89438 219.149 5.59521C217.939 4.25618 215.988 3.69825 214.091 3.78593C209.44 4.00113 207.282 7.73924 207.345 11.4534C207.363 12.7048 210.741 12.8801 210.723 11.6766C210.686 9.53258 211.472 5.651 214.687 5.58724C216.024 5.56332 216.692 6.95017 217.027 7.89865C217.568 9.43694 217.541 11.0788 217.234 12.649C216.629 15.7335 214.904 18.6268 213.071 21.2809C211.228 23.9271 209.088 26.4059 206.794 28.7572C206.044 29.5223 205.277 30.3433 204.455 31.1244C201.267 31.0845 197.356 32.3598 197.329 35.6037C197.329 36.5761 199.045 36.7196 199.803 36.5522C202.341 35.9784 204.391 34.6792 206.216 33.1329C206.613 33.2206 207.002 33.3162 207.372 33.4039C210.894 34.2807 214.389 35.261 217.894 36.1936C218.517 36.3609 219.682 36.2972 220.025 35.7074C220.395 35.0697 219.474 34.6632 218.941 34.5198C216.728 33.93 214.516 33.3402 212.303 32.7583C210.84 32.3678 209.368 31.9374 207.878 31.6026C208.338 31.1563 208.79 30.7099 209.232 30.2556C212.059 27.3863 214.714 24.3735 216.882 21.0817L216.891 21.0897Z" fill="black"/>
<path d="M238.666 19.3999C238.747 18.8022 238.811 18.1964 238.838 17.5986C238.955 15.2394 238.838 12.5693 237.058 10.6644C235.243 8.71164 232.064 8.68773 230.204 10.6325C229.011 11.8839 228.722 13.5576 228.903 15.2075C227.277 17.224 226.094 19.4557 225.399 21.8628C224.74 24.1264 224.27 26.9399 225.218 29.1876C226.239 31.5867 229.057 32.6946 231.658 31.4591C234.177 30.2636 235.758 27.6094 236.842 25.3698C237.176 24.6763 237.465 23.967 237.727 23.2496C238.991 23.1062 240.373 22.612 240.508 21.3846C240.626 20.3325 239.687 19.4717 238.675 19.4079L238.666 19.3999ZM234.683 12.2027C235.695 12.8403 235.749 14.4742 235.803 15.4387C235.893 17.0327 235.731 18.6348 235.352 20.197C234.647 19.9738 234.042 19.5753 233.563 19.0652C232.489 17.8935 231.929 16.1719 231.92 14.6815C231.92 13.6692 233.03 11.1745 234.674 12.2027H234.683ZM233.247 25.3459C232.461 26.653 231.468 28.2311 229.896 28.9086C228.442 29.5383 227.928 28.5659 227.819 27.4261C227.539 24.5488 228.506 21.536 230.113 18.9616C231.043 20.6593 232.552 22.1577 234.494 22.8671C234.141 23.7199 233.726 24.5488 233.247 25.3538V25.3459Z" fill="black"/>
<path d="M247.86 6.80672C246.668 7.62767 246.234 9.01452 246.569 10.2977C246.966 11.8121 248.212 12.8323 249.847 13.3265C250.461 13.5098 251.554 13.462 251.78 12.8084C252.024 12.115 251.048 11.6208 250.47 11.4455C249.684 11.2064 249.684 9.7717 249.865 9.24566C250.154 8.44065 251.075 7.80302 252.042 8.15371C253.469 8.67179 253.225 10.6803 253.198 11.7723C253.162 13.4939 252.854 15.1995 252.403 16.8733C251.509 20.205 250.037 23.3851 248.537 26.5334C247.562 28.5739 246.153 31.9294 243.236 32.2323C241.908 32.3678 241.854 33.6112 243.055 34.0495C246.821 35.4204 250.759 35.795 254.76 35.1335C255.528 35.006 255.618 34.2727 255.203 33.8024C254.67 33.1967 253.694 33.0771 252.909 33.2047C251.111 33.4996 249.251 33.4996 247.445 33.2047C249.043 32.1845 250.154 30.5904 251.021 28.9325C252.737 25.6726 254.291 22.2374 255.356 18.7703C255.88 17.0487 256.25 15.3032 256.413 13.5258C256.557 11.9237 256.765 9.99488 255.898 8.51238C254.525 6.16112 250.271 5.1409 247.851 6.80672H247.86Z" fill="black"/>
<path d="M285.151 13.0954C284.41 12.8323 283.408 12.9519 282.839 13.454C281.177 14.9206 279.335 16.2038 277.366 17.2957C277.366 12.7925 277.221 8.29717 276.905 3.80187C276.842 2.85339 275.551 1.98462 274.548 2.47878L274.431 2.53458C273.789 2.53458 273.13 2.74181 272.805 3.24394C272.769 3.29973 272.733 3.34756 272.706 3.40335C272.444 3.57073 272.308 3.80187 272.272 4.06489C268.307 10.0985 264.334 16.1241 260.369 22.1577C259.845 22.9547 261.471 23.3851 262.012 23.3692C266.293 23.2735 270.511 22.4765 274.422 21.0578C274.322 25.0111 274.106 28.9564 273.753 32.9018C273.618 34.4162 276.481 35.6277 276.652 33.7626C277.068 29.1318 277.294 24.501 277.357 19.8622C280.437 18.4435 283.291 16.6183 285.783 14.4184C286.361 13.9083 285.738 13.3026 285.169 13.1033L285.151 13.0954ZM264.532 21.273C267.756 16.3712 270.981 11.4694 274.205 6.5676C274.422 10.6166 274.512 14.6655 274.458 18.7145C271.342 20.0535 267.982 20.9223 264.532 21.265V21.273Z" fill="black"/>
</g>
<path d="M18.5 1.5C8.19735 10.5148 2.5373 24.7744 2.5 38.3889C2.46119 52.5547 16.8068 43.8609 19.6111 35.7778C21.0934 31.5053 15.2874 34.0299 13.9444 34.8333C9.72647 37.3566 6.12076 41.1649 3.55555 45.3333C3.36705 45.6396 1.47906 49 2 49" stroke="black" stroke-width="3" stroke-linecap="round"/>
<path d="M31.5 32.5C35.2133 32.4048 38.8391 31.523 42.5 31" stroke="black" stroke-width="3" stroke-linecap="round"/>
<defs>
<clipPath id="clip0_314_407">
<rect width="239" height="56" fill="white" transform="translate(47)"/>
</clipPath>
</defs>
</svg>
