<svg width="239" height="56" viewBox="0 0 239 56" fill="none" xmlns="http://www.w3.org/2000/svg">
<g clip-path="url(#clip0_177_436)">
<path d="M29.1173 9.38912C29.9572 9.05436 30.5984 8.074 29.7856 7.3487C27.5187 5.31624 24.2132 5.06916 21.3682 6.33645C19.5619 7.14146 18.3156 8.52831 17.4034 10.0905C15.9403 10.4651 14.4592 10.8078 12.978 11.1346C10.6388 11.6527 8.22744 12.3222 5.82507 12.6012C5.3464 12.657 4.67807 12.7287 4.14522 12.6012C4.18134 11.836 4.2265 11.0788 4.25359 10.3137C4.29875 9.0703 2.80856 8.32108 1.58028 8.89495C-0.41568 9.83546 -0.352459 12.0751 0.767444 13.5656C0.668098 15.4147 0.550688 17.2559 0.397153 19.0971C0.261681 20.8027 3.55817 21.4324 3.70267 19.639C3.82008 18.1964 3.91943 16.7617 4.00974 15.3191C5.87926 15.5741 7.96553 15.072 9.7357 14.7054C11.8129 14.275 13.8992 13.8286 15.9674 13.3504C13.6644 20.2209 12.6529 27.4421 11.2801 34.4879C10.6027 37.963 9.92536 41.446 9.248 44.9211C8.87771 45.0805 8.57967 45.3675 8.4442 45.7899C8.13713 46.7862 8.67902 47.639 9.47379 48.3086C10.3498 49.0498 11.9394 48.6035 12.1381 47.5673C13.7276 39.3737 15.2539 31.1722 16.9248 22.9946C17.6473 19.4637 18.2975 15.7017 19.9051 12.37C23.03 11.5411 26.1098 10.5847 29.0902 9.38912H29.1173Z" fill="black"/>
<path d="M57.2687 17.7421C56.4739 18.7145 55.5075 19.5514 54.3876 20.2209C53.909 20.5078 53.4122 20.7629 52.8884 20.9781C52.9155 18.4913 53.3851 15.9647 53.7103 13.4859C53.8006 12.7765 51.0189 12.0672 50.5493 12.5613C48.9417 14.2511 47.3431 15.9408 45.7355 17.6385C46.0787 15.5821 46.5302 13.5497 47.1354 11.5332C47.614 9.9311 48.183 8.36094 48.8242 6.80671C49.7635 5.99373 50.6667 5.1409 51.4885 4.2243C51.922 3.74608 51.7956 3.43523 51.2086 3.06062C50.5493 2.63819 49.619 2.40705 48.8062 2.35126C46.9728 2.23967 46.5664 3.62652 46.0064 4.89381C45.8619 5.23654 45.7264 5.57927 45.591 5.922C43.9472 7.31681 42.1319 8.5602 40.1811 9.61229C40.8675 7.52405 41.581 5.44377 42.3306 3.37147C42.5654 2.72587 41.6623 2.78166 41.2288 2.90919C40.5514 3.10845 39.7115 3.64246 39.4857 4.27212C38.6729 6.52775 37.8962 8.79134 37.1556 11.0629C34.3016 12.2505 31.24 13.0635 28.097 13.4221C27.4738 13.4939 27.3745 13.7649 27.8802 14.1156C28.4221 14.4902 29.4879 14.7691 30.1833 14.6894C32.3057 14.4503 34.3919 14.0119 36.415 13.4221C36.0899 14.4503 35.7557 15.4705 35.4486 16.5067C35.1596 17.4711 34.8796 18.4435 34.6087 19.4079C34.3558 20.3086 33.9765 21.3128 34.121 22.2533C34.401 24.0786 36.2886 24.4213 37.9594 23.7518C38.4471 23.5525 39.4947 22.883 39.3593 22.3091C39.2148 21.6874 38.2303 22.0541 37.842 22.2135C38.3387 22.0142 37.6252 21.9345 37.3723 21.6556C37.1375 21.3846 37.0472 21.0737 37.0111 20.739C36.9117 19.9021 37.3272 18.9456 37.553 18.1406C38.0226 16.5067 38.5013 14.8727 39.007 13.2468C39.0883 12.9838 39.1786 12.7287 39.2599 12.4657C40.9217 11.8281 42.5293 11.0788 44.0466 10.2021C42.8815 13.9562 42.159 17.8138 41.8881 21.6954C41.8339 22.4048 44.5704 23.1301 45.0491 22.62C46.6386 20.9462 48.2191 19.2804 49.8087 17.6066C49.7455 18.0689 49.6822 18.5312 49.628 18.9934C49.4474 20.4441 49.5558 21.5918 51.2086 22.2533C54.7579 23.6721 58.5602 20.9621 60.529 18.5471C60.8361 18.1725 57.8738 16.9929 57.2687 17.7341V17.7421Z" fill="black"/>
<path d="M116.136 18.4754C114.203 18.316 112.695 19.2405 111.584 20.4919C111.837 18.9137 112.09 17.3356 112.333 15.7575C112.532 14.4981 110.121 13.3982 109.272 14.5778C107.14 17.5428 105.009 20.4999 102.778 23.409C100.719 26.0951 98.6508 28.8927 96.1491 31.2758C95.0653 32.312 93.837 33.3083 92.41 33.9698C91.7688 34.2647 91.0824 34.5198 90.378 34.6632C90.2696 34.6872 89.8361 34.7987 89.6012 34.7828C89.7548 34.6872 89.5651 33.9619 89.5561 33.8742C89.4116 32.7264 89.3845 31.5707 89.4658 30.415C91.9133 28.6137 94.117 26.5892 95.7517 24.0865C97.1335 21.9664 98.416 18.2602 94.9479 17.0248C91.1185 15.6539 88.8968 20.731 87.8943 23.1141C87.1086 24.9872 86.6028 26.932 86.368 28.9007C83.794 30.7418 81.0033 32.3518 78.2848 34.0336C78.2848 33.93 78.2848 33.8184 78.2848 33.7148C78.1493 28.8528 77.4539 24.0307 76.9572 19.1927C76.7133 16.8414 76.5146 14.4902 76.4514 12.1309C76.3972 10.0347 76.4514 7.4842 78.1313 5.82635C79.4047 4.575 81.9516 3.74608 82.8276 5.73868C83.5953 7.49217 83.0895 9.62823 82.5928 11.3817C82.2045 12.7686 85.3294 13.8366 85.7719 12.2744C86.7744 8.75149 86.937 3.76202 82.1774 2.33532C79.8743 1.6419 77.2642 2.34329 75.6205 3.89752C73.7691 5.64303 73.2904 8.05806 73.2633 10.3615C73.1369 18.9536 75.3315 27.5058 75.1148 36.082C74.4284 36.5522 73.751 37.0464 73.0917 37.5565C67.5644 41.8366 63.3467 48.3962 66.0381 54.9718C66.3362 55.6971 67.3296 56.0478 68.1244 56.008C73.0646 55.7848 75.2954 50.8352 76.5417 47.3043C77.6616 44.156 78.1403 40.8802 78.2667 37.5884C78.2667 37.5884 78.2667 37.5884 78.2758 37.5804C80.8497 35.8668 83.6314 34.2966 86.2867 32.5989C86.3138 32.9416 86.3318 33.2764 86.377 33.6112C86.5938 35.3726 87.5872 36.9428 89.7638 37.1899C91.4708 37.3812 93.3312 36.7595 94.7853 36.0182C98.5876 34.0734 101.162 30.6541 103.645 27.5537C105.162 25.6567 106.626 23.7279 108.071 21.7831C107.637 24.509 107.204 27.2269 106.77 29.9527C106.309 29.7455 105.768 29.6817 105.307 29.8571C104.548 30.152 104.53 30.9331 104.982 31.4671C105.352 31.9055 105.777 32.296 106.237 32.6388C105.957 33.6909 105.704 34.743 105.47 35.7791C104.214 41.4221 103.663 47.1608 103.121 52.8836C102.986 54.2784 106.048 55.3783 106.3 53.7763C107.339 47.2246 108.387 40.665 109.425 34.1133C112.044 34.7589 115.007 34.3604 117.265 32.8699C120.823 30.5186 122.548 25.6806 120.904 22.0063C120.11 20.2368 118.385 18.6826 116.145 18.4913L116.136 18.4754ZM93.0061 20.6672C93.2138 20.3644 93.4306 20.0535 93.6835 19.7745C93.7106 19.7427 93.846 19.647 93.9815 19.5434C93.9905 19.6072 93.9996 19.655 93.9996 19.6789C94.0267 20.9303 93.1326 22.1418 92.41 23.162C91.8501 23.959 91.2088 24.7003 90.5134 25.4096C90.5947 25.1864 90.667 24.9712 90.7573 24.7481C91.3263 23.3214 92.0849 21.9505 92.9971 20.6672H93.0061ZM74.6722 41.0635C74.2477 43.7973 73.4891 46.4993 72.2247 49.0259C71.448 50.5881 70.31 52.4053 68.5398 53.1865C67.3928 48.2528 70.7255 43.6539 74.7896 40.1867C74.7535 40.4816 74.7264 40.7686 74.6812 41.0635H74.6722ZM116.894 28.7811C115.901 30.2795 114.293 31.5548 112.315 31.8736C111.521 32.0011 110.699 31.9932 109.931 31.8338C110.184 31.0208 110.446 30.2158 110.735 29.4108C111.448 27.4819 112.288 25.569 113.3 23.7438C113.815 22.8113 115.16 20.4201 116.75 20.9462C117.942 21.3367 118.303 23.2098 118.33 24.1583C118.385 25.7444 117.798 27.4182 116.885 28.7731L116.894 28.7811Z" fill="black"/>
<path d="M139.32 8.97451C138.886 8.28108 138.073 7.96226 137.224 8.15355C135.915 8.44846 134.596 8.71148 133.278 8.95856C133.819 6.40007 134.37 3.84157 134.921 1.2751C135.165 0.159248 131.869 -0.542147 131.643 0.533856C130.993 3.5387 130.351 6.53556 129.719 9.5404C126.441 10.0186 123.135 10.3374 119.812 10.4969C118.963 10.5367 118.601 11.3497 118.8 11.9953C119.035 12.7206 119.839 13.2865 120.697 13.2466C123.515 13.1111 126.314 12.8561 129.096 12.4894C128.5 15.3588 127.913 18.2281 127.362 21.1054C126.739 24.3414 125.917 27.6651 126.052 30.9648C126.17 33.6429 128.292 35.7152 131.507 35.4282C135.481 35.0776 136.077 31.459 138.552 29.4265C139.482 28.6534 136.402 27.5535 135.508 28.2947C134.226 29.3468 133.603 30.7576 132.618 32.001C132.167 32.5748 131.625 33.1009 130.92 33.4436C130.207 33.7863 130.18 33.89 129.828 33.332C129.042 32.0727 129.313 30.2953 129.448 28.9324C129.629 27.0753 130.008 25.2341 130.351 23.393C131.074 19.5751 131.851 15.7733 132.645 11.9634C134.723 11.6207 136.782 11.2142 138.841 10.7519C139.681 10.5606 139.654 9.50852 139.329 8.98248L139.32 8.97451Z" fill="black"/>
<path d="M169.891 21.0897C172.013 17.8616 174 14.1076 173.82 10.2818C173.747 8.66381 173.323 6.89438 172.149 5.59521C170.939 4.25618 168.988 3.69825 167.091 3.78593C162.44 4.00113 160.282 7.73924 160.345 11.4534C160.363 12.7048 163.741 12.8801 163.723 11.6766C163.686 9.53258 164.472 5.651 167.687 5.58724C169.024 5.56332 169.692 6.95017 170.027 7.89865C170.568 9.43694 170.541 11.0788 170.234 12.649C169.629 15.7335 167.904 18.6268 166.071 21.2809C164.228 23.9271 162.088 26.4059 159.794 28.7572C159.044 29.5223 158.277 30.3433 157.455 31.1244C154.267 31.0845 150.356 32.3598 150.329 35.6037C150.329 36.5761 152.045 36.7196 152.803 36.5522C155.341 35.9784 157.391 34.6792 159.216 33.1329C159.613 33.2206 160.002 33.3162 160.372 33.4039C163.894 34.2807 167.389 35.261 170.894 36.1936C171.517 36.3609 172.682 36.2972 173.025 35.7074C173.395 35.0697 172.474 34.6632 171.941 34.5198C169.728 33.93 167.516 33.3402 165.303 32.7583C163.84 32.3678 162.368 31.9374 160.878 31.6026C161.338 31.1563 161.79 30.7099 162.232 30.2556C165.059 27.3863 167.714 24.3735 169.882 21.0817L169.891 21.0897Z" fill="black"/>
<path d="M191.666 19.3999C191.747 18.8022 191.811 18.1964 191.838 17.5986C191.955 15.2394 191.838 12.5693 190.058 10.6644C188.243 8.71164 185.064 8.68773 183.204 10.6325C182.011 11.8839 181.722 13.5576 181.903 15.2075C180.277 17.224 179.094 19.4557 178.399 21.8628C177.74 24.1264 177.27 26.9399 178.218 29.1876C179.239 31.5867 182.057 32.6946 184.658 31.4591C187.177 30.2636 188.758 27.6094 189.842 25.3698C190.176 24.6763 190.465 23.967 190.727 23.2496C191.991 23.1062 193.373 22.612 193.508 21.3846C193.626 20.3325 192.687 19.4717 191.675 19.4079L191.666 19.3999ZM187.683 12.2027C188.695 12.8403 188.749 14.4742 188.803 15.4387C188.893 17.0327 188.731 18.6348 188.352 20.197C187.647 19.9738 187.042 19.5753 186.563 19.0652C185.489 17.8935 184.929 16.1719 184.92 14.6815C184.92 13.6692 186.03 11.1745 187.674 12.2027H187.683ZM186.247 25.3459C185.461 26.653 184.468 28.2311 182.896 28.9086C181.442 29.5383 180.928 28.5659 180.819 27.4261C180.539 24.5488 181.506 21.536 183.113 18.9616C184.043 20.6593 185.552 22.1577 187.494 22.8671C187.141 23.7199 186.726 24.5488 186.247 25.3538V25.3459Z" fill="black"/>
<path d="M200.86 6.80672C199.668 7.62767 199.234 9.01452 199.569 10.2977C199.966 11.8121 201.212 12.8323 202.847 13.3265C203.461 13.5098 204.554 13.462 204.78 12.8084C205.024 12.115 204.048 11.6208 203.47 11.4455C202.684 11.2064 202.684 9.7717 202.865 9.24566C203.154 8.44065 204.075 7.80302 205.042 8.15371C206.469 8.67179 206.225 10.6803 206.198 11.7723C206.162 13.4939 205.854 15.1995 205.403 16.8733C204.509 20.205 203.037 23.3851 201.537 26.5334C200.562 28.5739 199.153 31.9294 196.236 32.2323C194.908 32.3678 194.854 33.6112 196.055 34.0495C199.821 35.4204 203.759 35.795 207.76 35.1335C208.528 35.006 208.618 34.2727 208.203 33.8024C207.67 33.1967 206.694 33.0771 205.909 33.2047C204.111 33.4996 202.251 33.4996 200.445 33.2047C202.043 32.1845 203.154 30.5904 204.021 28.9325C205.737 25.6726 207.291 22.2374 208.356 18.7703C208.88 17.0487 209.25 15.3032 209.413 13.5258C209.557 11.9237 209.765 9.99488 208.898 8.51238C207.525 6.16112 203.271 5.1409 200.851 6.80672H200.86Z" fill="black"/>
<path d="M238.151 13.0954C237.41 12.8323 236.408 12.9519 235.839 13.454C234.177 14.9206 232.335 16.2038 230.366 17.2957C230.366 12.7925 230.221 8.29717 229.905 3.80187C229.842 2.85339 228.551 1.98462 227.548 2.47878L227.431 2.53458C226.789 2.53458 226.13 2.74181 225.805 3.24394C225.769 3.29973 225.733 3.34756 225.706 3.40335C225.444 3.57073 225.308 3.80187 225.272 4.06489C221.307 10.0985 217.334 16.1241 213.369 22.1577C212.845 22.9547 214.471 23.3851 215.012 23.3692C219.293 23.2735 223.511 22.4765 227.422 21.0578C227.322 25.0111 227.106 28.9564 226.753 32.9018C226.618 34.4162 229.481 35.6277 229.652 33.7626C230.068 29.1318 230.294 24.501 230.357 19.8622C233.437 18.4435 236.291 16.6183 238.783 14.4184C239.361 13.9083 238.738 13.3026 238.169 13.1033L238.151 13.0954ZM217.532 21.273C220.756 16.3712 223.981 11.4694 227.205 6.5676C227.422 10.6166 227.512 14.6655 227.458 18.7145C224.342 20.0535 220.982 20.9223 217.532 21.265V21.273Z" fill="black"/>
</g>
<defs>
<clipPath id="clip0_177_436">
<rect width="239" height="56" fill="white"/>
</clipPath>
</defs>
</svg>
