<svg width="253" height="86" viewBox="0 0 253 86" fill="none" xmlns="http://www.w3.org/2000/svg">
<path d="M226.57 62.28C225.61 61.48 225.21 60.56 225.37 59.52C225.53 58.4 226.01 57.36 226.81 56.4C227.61 55.36 228.57 54.44 229.69 53.64C230.81 52.84 231.81 52.28 232.69 51.96C232.85 51.88 233.09 51.84 233.41 51.84C233.81 51.84 234.01 51.96 234.01 52.2C234.17 52.52 234.09 52.84 233.77 53.16C233.13 53.72 232.29 54.4 231.25 55.2C230.29 55.92 229.33 56.6 228.37 57.24C227.41 58.44 227.09 59.52 227.41 60.48C227.65 61.2 228.37 61.56 229.57 61.56C230.77 61.56 232.09 61.2 233.53 60.48C232.65 59.68 232.25 58.68 232.33 57.48C232.49 56.28 232.89 55.12 233.53 54C234.25 52.88 235.13 51.92 236.17 51.12C237.21 50.32 238.17 49.96 239.05 50.04C239.29 50.04 239.49 50.08 239.65 50.16C239.81 50.16 240.01 50.28 240.25 50.52C240.73 51.16 240.85 51.96 240.61 52.92C240.45 53.88 240.09 54.84 239.53 55.8C239.05 56.76 238.49 57.64 237.85 58.44C237.21 59.24 236.73 59.72 236.41 59.88C237.21 60.04 238.29 59.96 239.65 59.64C241.09 59.24 242.53 58.8 243.97 58.32C245.49 57.76 246.93 57.16 248.29 56.52C249.65 55.88 250.65 55.32 251.29 54.84C251.93 54.84 252.25 55 252.25 55.32C252.41 55.64 252.33 55.96 252.01 56.28C251.21 56.84 250.09 57.48 248.65 58.2C247.21 58.84 245.65 59.44 243.97 60C242.37 60.56 240.73 61 239.05 61.32C237.45 61.56 236.09 61.56 234.97 61.32C232.89 62.68 231.13 63.32 229.69 63.24C228.25 63.16 227.21 62.84 226.57 62.28ZM238.81 51.48C238.25 51.4 237.61 51.72 236.89 52.44C236.17 53.08 235.53 53.84 234.97 54.72C234.49 55.6 234.17 56.52 234.01 57.48C233.85 58.36 234.09 59 234.73 59.4C235.37 58.84 236.01 58.16 236.65 57.36C237.29 56.48 237.81 55.64 238.21 54.84C238.69 53.96 238.97 53.2 239.05 52.56C239.21 51.92 239.13 51.56 238.81 51.48Z" fill="black"/>
<path d="M203.07 63.48C202.19 63.08 201.71 62.44 201.63 61.56C201.63 60.6 201.83 59.8 202.23 59.16C201.19 60.28 199.91 61.28 198.39 62.16C196.95 63.04 195.71 63.24 194.67 62.76C193.79 62.36 193.47 61.56 193.71 60.36C194.03 59.08 194.43 57.96 194.91 57L193.95 57.72C193.55 57.88 193.19 58.04 192.87 58.2C192.55 58.36 192.27 58.52 192.03 58.68C191.39 58.68 191.07 58.52 191.07 58.2C190.91 57.96 190.87 57.76 190.95 57.6C191.03 57.36 191.15 57.24 191.31 57.24C191.95 57 192.55 56.68 193.11 56.28C193.67 55.88 194.27 55.48 194.91 55.08C195.15 54.92 195.35 54.76 195.51 54.6C195.75 54.44 195.95 54.28 196.11 54.12L196.35 53.88L196.83 53.16C196.99 52.92 197.23 52.84 197.55 52.92C197.87 53 198.11 53.16 198.27 53.4C198.27 53.72 198.19 53.96 198.03 54.12C197.63 55 197.23 55.76 196.83 56.4C196.43 57.04 196.11 57.8 195.87 58.68C195.71 59.08 195.59 59.44 195.51 59.76C195.43 60.08 195.39 60.36 195.39 60.6C195.39 60.92 195.47 61.16 195.63 61.32H195.87C196.43 61.48 197.63 60.92 199.47 59.64C201.31 58.36 202.75 56.92 203.79 55.32C203.95 55.32 204.03 55.28 204.03 55.2V55.08H204.15C204.15 55.08 204.19 55 204.27 54.84H205.23C205.39 55 205.47 55.16 205.47 55.32V55.56C205.31 56.12 205.07 56.72 204.75 57.36C204.43 58 204.15 58.64 203.91 59.28C203.67 59.84 203.47 60.4 203.31 60.96C203.23 61.44 203.39 61.8 203.79 62.04C204.51 62.28 205.51 62.04 206.79 61.32C208.15 60.52 209.39 59.56 210.51 58.44C209.87 56.76 209.91 55.44 210.63 54.48C211.35 53.44 212.19 52.92 213.15 52.92C214.11 52.92 214.59 53.52 214.59 54.72C214.67 55.92 214.03 57.24 212.67 58.68C214.03 59.56 216.07 59.8 218.79 59.4C221.51 59 224.99 57.4 229.23 54.6C229.63 54.2 229.95 54.28 230.19 54.84C230.35 55 230.39 55.2 230.31 55.44C230.31 55.68 230.19 55.8 229.95 55.8C225.63 58.68 221.91 60.4 218.79 60.96C215.75 61.44 213.39 61 211.71 59.64H211.47C210.35 60.6 209.07 61.6 207.63 62.64C206.19 63.68 204.67 63.96 203.07 63.48ZM213.15 54.12C212.67 54.28 212.23 54.72 211.83 55.44C211.51 56.08 211.47 56.76 211.71 57.48C212.19 57 212.59 56.44 212.91 55.8C213.31 55.08 213.39 54.52 213.15 54.12Z" fill="black"/>
<path d="M165.392 45.48C165.232 45.48 164.872 45.56 164.312 45.72C163.752 45.88 163.472 45.72 163.472 45.24C163.392 44.84 163.512 44.56 163.832 44.4C163.992 44.32 164.192 44.28 164.432 44.28C166.592 43.8 169.152 43.36 172.112 42.96C175.072 42.48 178.192 42.04 181.472 41.64C184.512 39.24 187.152 37.32 189.392 35.88C191.632 34.44 193.232 33.48 194.192 33C194.672 32.76 195.112 32.8 195.512 33.12C195.992 33.44 195.712 33.88 194.672 34.44C193.552 34.92 192.072 35.76 190.232 36.96C188.472 38.08 186.512 39.56 184.352 41.4C186.912 41.16 189.432 41 191.912 40.92C194.472 40.76 196.832 40.68 198.992 40.68C199.152 40.68 199.352 40.72 199.592 40.8C199.992 41.04 200.192 41.32 200.192 41.64C200.112 42.04 199.752 42.24 199.112 42.24C198.792 42.24 198.512 42.2 198.272 42.12C195.392 42.28 192.592 42.44 189.872 42.6C187.232 42.68 184.592 42.92 181.952 43.32C180.992 43.96 180.072 44.68 179.192 45.48C178.392 46.2 177.552 47 176.672 47.88C174.592 49.88 172.952 51.6 171.752 53.04C170.552 54.48 169.632 55.68 168.992 56.64C168.432 57.6 168.072 58.4 167.912 59.04C167.832 59.6 167.792 60.04 167.792 60.36C167.872 61.32 168.552 61.92 169.832 62.16C171.112 62.32 172.672 62.28 174.512 62.04C176.432 61.72 178.512 61.24 180.752 60.6C183.072 59.96 185.272 59.28 187.352 58.56C189.432 57.76 191.272 57 192.872 56.28C194.552 55.48 195.712 54.84 196.352 54.36C196.992 53.96 197.472 53.96 197.792 54.36C198.112 54.76 197.952 55.16 197.312 55.56C196.352 56.36 194.632 57.32 192.152 58.44C189.672 59.48 186.992 60.48 184.112 61.44C181.232 62.32 178.392 63 175.592 63.48C172.872 63.96 170.752 63.96 169.232 63.48C168.352 63.32 167.592 63 166.952 62.52C166.392 61.96 166.112 61.24 166.112 60.36C166.192 59.24 166.552 58.08 167.192 56.88C167.832 55.6 168.632 54.36 169.592 53.16C170.552 51.96 171.552 50.84 172.592 49.8C173.632 48.68 174.592 47.72 175.472 46.92C176.192 46.28 176.832 45.64 177.392 45C177.952 44.36 178.592 43.8 179.312 43.32C176.672 43.72 174.152 44.08 171.752 44.4C169.432 44.72 167.312 45.08 165.392 45.48Z" fill="black"/>
<path d="M96.2882 83.4C96.0482 82.12 96.3282 80.84 97.1282 79.56C97.9282 78.28 99.1282 77.12 100.728 76.08C102.248 75.04 104.008 74.16 106.008 73.44C108.088 72.72 110.288 72.28 112.608 72.12H113.568C115.088 69.16 116.248 66.84 117.048 65.16C117.928 63.48 118.568 62.2 118.968 61.32C119.368 60.44 119.648 59.88 119.808 59.64C119.968 59.32 120.088 59.04 120.168 58.8L119.088 59.64C117.888 60.6 116.688 61.28 115.488 61.68C114.288 62.08 113.248 61.96 112.368 61.32V61.08C111.648 60.36 111.408 59.24 111.648 57.72L112.128 56.76L109.488 58.44C108.768 58.68 108.288 58.6 108.048 58.2C107.888 57.8 108.048 57.48 108.528 57.24C109.408 56.84 110.288 56.36 111.168 55.8C112.128 55.16 112.848 54.6 113.328 54.12L113.568 53.88C114.208 53.24 114.768 53.08 115.248 53.4C115.728 53.72 115.648 54.2 115.008 54.84L114.528 55.32C113.168 57.64 112.768 59.08 113.328 59.64V59.88L113.568 60.12C114.448 60.36 115.648 60.04 117.168 59.16C118.768 58.2 120.128 57 121.248 55.56V55.32C121.088 55.48 121.048 55.44 121.128 55.2C121.288 54.96 121.568 54.92 121.968 55.08H122.208C122.368 55.16 122.448 55.24 122.448 55.32C122.448 55.4 122.488 55.48 122.568 55.56C122.568 55.64 122.608 55.72 122.688 55.8V56.28C121.808 58.92 120.728 61.64 119.448 64.44C118.168 67.16 116.848 69.72 115.488 72.12H117.888C119.088 72.36 120.328 72.68 121.608 73.08C122.888 73.4 124.128 73.88 125.328 74.52C125.808 74.76 125.888 75.16 125.568 75.72C125.248 76.04 124.928 76.12 124.608 75.96C123.008 75.08 121.448 74.52 119.928 74.28C118.408 73.96 116.848 73.72 115.248 73.56H114.528C112.128 77.16 109.528 80 106.728 82.08C103.928 84.08 101.328 85.08 98.9282 85.08C98.2882 85.08 97.6882 84.96 97.1282 84.72C96.5682 84.48 96.2882 84.04 96.2882 83.4ZM110.688 74.04C109.808 74.04 109.008 74.16 108.288 74.4C107.568 74.56 106.848 74.76 106.128 75C103.328 75.96 101.168 77.24 99.6482 78.84C98.1282 80.36 97.4882 81.8 97.7282 83.16C97.7282 83.24 97.8082 83.32 97.9682 83.4C98.1282 83.56 98.4482 83.64 98.9282 83.64C101.248 83.64 103.528 82.72 105.768 80.88C108.008 79.04 110.288 76.68 112.608 73.8L110.688 74.04Z" fill="black"/>
<path d="M84.7639 63.96C83.8039 63.4 83.444 62.56 83.684 61.44C83.924 60.24 84.5239 59.12 85.4839 58.08C86.4439 56.96 87.6439 56 89.0839 55.2C90.5239 54.32 91.964 53.88 93.404 53.88C94.364 53.88 95.2039 54.08 95.9239 54.48C96.7239 54.88 97.2439 55.32 97.4839 55.8C97.6439 56.04 97.5639 56.28 97.2439 56.52C97.0039 56.68 96.7639 56.68 96.5239 56.52C96.1239 56.28 95.724 56.04 95.324 55.8C95.004 55.48 94.364 55.32 93.404 55.32C92.444 55.32 91.4039 55.64 90.2839 56.28C89.1639 56.92 88.1639 57.68 87.2839 58.56C86.4839 59.36 85.8839 60.16 85.4839 60.96C85.1639 61.68 85.2439 62.2 85.7239 62.52C86.4439 62.68 87.404 62.52 88.604 62.04C89.804 61.48 91.044 60.84 92.324 60.12C93.684 59.32 94.9639 58.48 96.1639 57.6C97.4439 56.72 98.524 55.96 99.404 55.32C100.204 54.68 100.724 54.6 100.964 55.08C101.284 55.56 101.244 55.96 100.844 56.28C99.804 57 99.084 57.92 98.684 59.04C98.364 60.08 98.4839 60.72 99.0439 60.96C99.6039 61.2 100.524 61.08 101.804 60.6C103.084 60.04 104.404 59.4 105.764 58.68C107.124 57.96 108.404 57.24 109.604 56.52C110.804 55.8 111.564 55.32 111.884 55.08C112.364 54.84 112.724 54.96 112.964 55.44C113.284 55.92 113.244 56.28 112.844 56.52C112.284 56.84 111.404 57.4 110.204 58.2C109.004 58.92 107.684 59.64 106.244 60.36C104.884 61.08 103.484 61.68 102.044 62.16C100.684 62.64 99.564 62.76 98.684 62.52C97.804 62.28 97.244 61.76 97.004 60.96C96.844 60.16 96.9639 59.4 97.3639 58.68C96.4839 59.32 95.4439 60.04 94.2439 60.84C93.0439 61.56 91.8039 62.2 90.5239 62.76C89.2439 63.32 88.084 63.76 87.044 64.08C86.004 64.32 85.2439 64.28 84.7639 63.96Z" fill="black"/>
<path d="M0.551598 81.72C0.391598 81.48 0.351603 81.24 0.431603 81C0.511603 80.76 0.551598 80.44 0.551598 80.04C0.551598 79.4 1.59161 78.72 3.67161 78C5.75161 77.28 8.4716 76.6 11.8316 75.96L12.5516 75.24C14.7916 73.24 17.1116 70.92 19.5116 68.28C21.9916 65.56 24.5116 62.72 27.0716 59.76C29.6316 56.72 32.1916 53.56 34.7516 50.28C37.3916 47 39.9916 43.72 42.5516 40.44C38.5516 42.04 34.7516 43.16 31.1516 43.8C27.6316 44.36 24.5516 44.2 21.9116 43.32C19.3516 42.6 17.7916 41.32 17.2316 39.48C16.7516 37.64 17.0316 35.48 18.0716 33C19.1916 30.52 20.9516 27.88 23.3516 25.08C25.8316 22.2 28.7516 19.44 32.1116 16.8C35.4716 14.08 39.1916 11.56 43.2716 9.24001C47.3516 6.84001 51.5516 4.92001 55.8716 3.48001C60.1916 1.96001 64.5116 1.04001 68.8316 0.720005C73.1516 0.320006 77.2716 0.760006 81.1916 2.04001C83.8316 2.92001 86.0716 4.20001 87.9116 5.88C89.8316 7.48001 91.1916 9.48001 91.9916 11.88C92.8716 14.28 93.1116 17.08 92.7116 20.28C92.3116 23.4 91.1116 26.84 89.1116 30.6C87.4316 33.88 85.2716 37.28 82.6316 40.8C79.9916 44.24 76.9116 47.72 73.3916 51.24C69.9516 54.68 66.0716 58.04 61.7516 61.32C57.5116 64.52 52.8716 67.48 47.8316 70.2C56.5516 68.12 64.3916 65.76 71.3516 63.12C78.3116 60.48 84.3116 57.88 89.3516 55.32C89.5116 55.16 89.7116 55.16 89.9516 55.32C90.1916 55.4 90.3916 55.56 90.5516 55.8C90.5516 55.96 90.5116 56.16 90.4316 56.4C90.4316 56.64 90.3116 56.76 90.0716 56.76C84.0716 59.8 77.2716 62.72 69.6716 65.52C62.0716 68.32 52.8716 70.92 42.0716 73.32C40.2316 74.2 38.0316 75.16 35.4716 76.2C32.9916 77.24 30.3516 78.24 27.5516 79.2C24.8316 80.16 22.0316 81.04 19.1516 81.84C16.3516 82.56 13.7116 83.08 11.2316 83.4C8.83161 83.72 6.67161 83.8 4.75161 83.64C2.83161 83.4 1.4316 82.76 0.551598 81.72ZM42.0716 71.16C46.7916 69 51.3916 66.44 55.8716 63.48C60.3516 60.52 64.5516 57.28 68.4716 53.76C72.4716 50.24 76.0716 46.48 79.2716 42.48C82.5516 38.4 85.3516 34.2 87.6716 29.88C89.5916 26.36 90.7516 23.16 91.1516 20.28C91.6316 17.32 91.5116 14.76 90.7916 12.6C90.0716 10.36 88.8316 8.48001 87.0716 6.96C85.3916 5.44 83.3516 4.28 80.9516 3.48001C77.1916 2.28001 73.2316 1.84001 69.0716 2.16001C64.9116 2.48001 60.7516 3.32001 56.5916 4.68C52.5116 6.04001 48.5116 7.84001 44.5916 10.08C40.7516 12.24 37.1916 14.6 33.9116 17.16C30.6316 19.72 27.7516 22.32 25.2716 24.96C22.8716 27.6 21.0716 30.08 19.8716 32.4C18.6716 34.64 18.1916 36.6 18.4316 38.28C18.6716 39.96 19.8316 41.08 21.9116 41.64C24.7916 42.52 28.1916 42.56 32.1116 41.76C36.0316 40.96 40.1516 39.64 44.4716 37.8C46.6316 34.76 48.7116 31.84 50.7116 29.04C52.7116 26.16 54.6316 23.4 56.4716 20.76C56.6316 20.44 56.9516 20.28 57.4316 20.28C57.6716 20.52 57.7916 20.76 57.7916 21C57.8716 21.16 57.9116 21.32 57.9116 21.48L47.3516 36.6C50.9516 34.92 54.4716 33 57.9116 30.84C61.4316 28.6 64.6316 26.28 67.5116 23.88C70.4716 21.48 72.9916 19.08 75.0716 16.68C77.1516 14.28 78.6316 12.04 79.5116 9.96001C79.7516 9.56001 79.9516 9.16001 80.1116 8.76001C80.2716 8.36001 80.5516 8.36001 80.9516 8.76001C81.1916 8.92001 81.2316 9.16 81.0716 9.48001C80.9916 9.72001 80.9516 10.04 80.9516 10.44C80.1516 12.6 78.5916 15 76.2716 17.64C73.9516 20.28 71.1516 22.92 67.8716 25.56C64.6716 28.2 61.1116 30.76 57.1916 33.24C53.2716 35.64 49.3516 37.72 45.4316 39.48C40.4716 46.12 35.3116 52.64 29.9516 59.04C24.6716 65.36 19.6716 70.76 14.9516 75.24C19.1916 74.52 23.7116 73.8 28.5116 73.08C33.3116 72.28 37.8316 71.64 42.0716 71.16ZM8.7116 79.8C8.1516 79.24 8.1516 78.84 8.7116 78.6L9.4316 77.88C7.2716 78.36 5.5516 78.84 4.2716 79.32C2.9116 79.8 2.23161 80.28 2.23161 80.76C2.63161 81.48 3.5516 81.92 4.9916 82.08C6.4316 82.16 8.1916 82.08 10.2716 81.84C12.4316 81.52 14.7916 81.08 17.3516 80.52C19.9116 79.88 22.4316 79.16 24.9116 78.36C27.3916 77.56 29.7116 76.76 31.8716 75.96C34.1116 75.16 35.9916 74.36 37.5116 73.56C36.2316 73.72 34.6316 73.92 32.7116 74.16C30.7916 74.4 28.7116 74.68 26.4716 75C24.2316 75.32 21.9116 75.68 19.5116 76.08C17.1916 76.48 14.9516 76.84 12.7916 77.16L9.9116 79.8C9.3516 80.04 8.9516 80.04 8.7116 79.8Z" fill="black"/>
</svg>
