<svg width="35" height="514" viewBox="0 0 35 514" fill="none" xmlns="http://www.w3.org/2000/svg">
<path d="M19.6233 1C30.6766 11.4075 25.4177 31.6397 22.3523 44.3219C17.0599 66.2171 14.6712 118.339 11.1806 140.426C9.78587 149.251 6.64536 183.047 28.4924 169.333C35.6002 164.871 37.4881 145.386 26.1046 153.762C17.2371 160.286 19.0084 172.223 19.9644 181.512C21.8961 200.282 26.4557 219.031 27.2132 237.862C28.1031 259.981 27.565 282.232 23.4609 304.078C22.2413 310.57 19.889 316.216 12.8862 319.264C10.608 320.255 3.18452 321.547 1.54398 318.878C-0.0603947 316.268 4.96892 308.662 7.34301 307.47C12.8621 304.698 17.3073 308.608 20.3908 312.634C34.8206 331.474 28.1292 358.758 26.1046 379.621C22.9418 412.212 20.112 415.093 23.4609 447.786C25.6966 469.611 27.2985 491.082 27.2985 513" stroke="black" stroke-linecap="round"/>
</svg>
