<svg width="324" height="85" viewBox="0 0 324 85" fill="none" xmlns="http://www.w3.org/2000/svg">
<path d="M297.355 56.28C297.835 55.08 298.635 54.04 299.755 53.16C300.875 52.28 301.995 51.72 303.115 51.48C303.995 51.32 304.835 51.36 305.635 51.6C306.435 51.76 306.875 52.2 306.955 52.92C307.035 53.64 306.715 54.36 305.995 55.08C305.355 55.72 304.515 56.32 303.475 56.88C302.515 57.44 301.555 57.92 300.595 58.32C299.635 58.72 298.995 58.96 298.675 59.04C299.075 60.16 299.915 61 301.195 61.56C302.475 62.12 303.955 62.28 305.635 62.04C308.675 61.64 311.675 60.8 314.635 59.52C317.595 58.16 320.155 56.76 322.315 55.32C322.795 54.92 323.195 54.92 323.515 55.32C323.835 55.72 323.755 56.12 323.275 56.52C322.155 57.32 320.795 58.16 319.195 59.04C317.675 59.84 316.035 60.6 314.275 61.32C312.595 61.96 310.835 62.52 308.995 63C307.235 63.4 305.515 63.6 303.835 63.6C302.715 63.6 301.675 63.44 300.715 63.12C299.755 62.72 298.915 62.2 298.195 61.56C297.555 60.92 297.115 60.16 296.875 59.28C296.715 58.4 296.875 57.4 297.355 56.28ZM305.275 52.92C303.835 52.6 302.435 53.04 301.075 54.24C299.715 55.36 298.835 56.56 298.435 57.84C298.755 57.68 299.275 57.44 299.995 57.12C300.715 56.72 301.475 56.32 302.275 55.92C303.075 55.44 303.755 54.96 304.315 54.48C304.955 53.92 305.275 53.4 305.275 52.92Z" fill="black"/>
<path d="M274.308 64.68C273.668 64.36 273.308 63.92 273.228 63.36C273.148 62.72 273.228 62.08 273.468 61.44C273.708 60.72 274.068 60.04 274.548 59.4C275.028 58.76 275.508 58.2 275.988 57.72C276.948 56.52 278.108 55.44 279.468 54.48C280.828 53.44 282.068 52.92 283.188 52.92C283.668 52.92 284.188 53 284.748 53.16C285.308 53.32 285.788 53.6 286.188 54C286.748 51.92 287.788 49.64 289.308 47.16C290.828 44.68 292.468 42.44 294.228 40.44C296.068 38.36 297.868 36.8 299.628 35.76C301.468 34.72 303.028 34.6 304.308 35.4C305.028 36.28 305.068 37.44 304.428 38.88C303.868 40.32 302.948 41.84 301.668 43.44C300.468 45.04 299.028 46.68 297.348 48.36C295.748 50.04 294.308 51.56 293.028 52.92C292.148 53.8 291.228 54.68 290.268 55.56C289.308 56.36 288.228 57.32 287.028 58.44V58.68C287.028 59.32 287.108 59.72 287.268 59.88C287.588 60.52 288.228 60.92 289.188 61.08C290.148 61.16 291.308 61.04 292.668 60.72C294.108 60.32 295.668 59.72 297.348 58.92C299.028 58.04 300.708 57 302.388 55.8C302.948 55.56 303.348 55.56 303.588 55.8C303.908 56.36 303.828 56.76 303.348 57C301.748 58.2 299.988 59.32 298.068 60.36C296.228 61.32 294.428 62.04 292.668 62.52C290.908 62.92 289.348 62.96 287.988 62.64C286.708 62.24 285.908 61.24 285.588 59.64C284.868 60.12 283.988 60.72 282.948 61.44C281.988 62.16 280.988 62.84 279.948 63.48C278.908 64.04 277.908 64.48 276.948 64.8C275.988 65.12 275.188 65.08 274.548 64.68H274.308ZM302.868 36.6C301.828 36.28 300.428 36.84 298.668 38.28C296.988 39.72 295.308 41.52 293.628 43.68C292.028 45.84 290.588 48.12 289.308 50.52C288.028 52.84 287.268 54.8 287.028 56.4C287.908 55.68 288.988 54.72 290.268 53.52C291.548 52.24 292.868 50.88 294.228 49.44C295.588 48 296.908 46.56 298.188 45.12C299.468 43.68 300.548 42.36 301.428 41.16C302.308 39.96 302.908 38.96 303.228 38.16C303.548 37.28 303.428 36.76 302.868 36.6ZM285.588 56.04V55.8H285.348C285.188 55.8 285.108 55.64 285.108 55.32C284.868 54.84 284.228 54.6 283.188 54.6C282.468 54.44 281.508 54.8 280.308 55.68C279.188 56.48 278.148 57.48 277.188 58.68C275.188 60.92 274.468 62.44 275.028 63.24L275.268 63.48C275.508 63.64 276.068 63.52 276.948 63.12C277.828 62.72 278.788 62.24 279.828 61.68C280.868 61.04 281.868 60.36 282.828 59.64C283.868 58.92 284.708 58.28 285.348 57.72L285.588 56.04Z" fill="black"/>
<path d="M254.15 62.28C253.19 61.48 252.79 60.56 252.95 59.52C253.11 58.4 253.59 57.36 254.39 56.4C255.19 55.36 256.15 54.44 257.27 53.64C258.39 52.84 259.39 52.28 260.27 51.96C260.43 51.88 260.67 51.84 260.99 51.84C261.39 51.84 261.59 51.96 261.59 52.2C261.75 52.52 261.67 52.84 261.35 53.16C260.71 53.72 259.87 54.4 258.83 55.2C257.87 55.92 256.91 56.6 255.95 57.24C254.99 58.44 254.67 59.52 254.99 60.48C255.23 61.2 255.95 61.56 257.15 61.56C258.35 61.56 259.67 61.2 261.11 60.48C260.23 59.68 259.83 58.68 259.91 57.48C260.07 56.28 260.47 55.12 261.11 54C261.83 52.88 262.71 51.92 263.75 51.12C264.79 50.32 265.75 49.96 266.63 50.04C266.87 50.04 267.07 50.08 267.23 50.16C267.39 50.16 267.59 50.28 267.83 50.52C268.31 51.16 268.43 51.96 268.19 52.92C268.03 53.88 267.67 54.84 267.11 55.8C266.63 56.76 266.07 57.64 265.43 58.44C264.79 59.24 264.31 59.72 263.99 59.88C264.79 60.04 265.87 59.96 267.23 59.64C268.67 59.24 270.11 58.8 271.55 58.32C273.07 57.76 274.51 57.16 275.87 56.52C277.23 55.88 278.23 55.32 278.87 54.84C279.51 54.84 279.83 55 279.83 55.32C279.99 55.64 279.91 55.96 279.59 56.28C278.79 56.84 277.67 57.48 276.23 58.2C274.79 58.84 273.23 59.44 271.55 60C269.95 60.56 268.31 61 266.63 61.32C265.03 61.56 263.67 61.56 262.55 61.32C260.47 62.68 258.71 63.32 257.27 63.24C255.83 63.16 254.79 62.84 254.15 62.28ZM266.39 51.48C265.83 51.4 265.19 51.72 264.47 52.44C263.75 53.08 263.11 53.84 262.55 54.72C262.07 55.6 261.75 56.52 261.59 57.48C261.43 58.36 261.67 59 262.31 59.4C262.95 58.84 263.59 58.16 264.23 57.36C264.87 56.48 265.39 55.64 265.79 54.84C266.27 53.96 266.55 53.2 266.63 52.56C266.79 51.92 266.71 51.56 266.39 51.48Z" fill="black"/>
<path d="M235.213 64.44C234.013 63.96 233.213 63.32 232.813 62.52C232.653 61.8 232.773 61.04 233.173 60.24C233.573 59.44 234.013 58.6 234.493 57.72C232.093 58.6 229.373 59.4 226.333 60.12C223.293 60.76 220.173 61.32 216.973 61.8C213.693 62.2 210.413 62.52 207.133 62.76C203.853 62.92 200.813 63 198.013 63C197.693 63 197.453 62.84 197.293 62.52C197.133 62.36 197.173 62.16 197.413 61.92C197.573 61.68 197.773 61.56 198.013 61.56C200.173 61.56 202.973 61.44 206.413 61.2C209.853 60.96 213.493 60.6 217.333 60.12C221.093 59.56 224.813 58.88 228.493 58.08C232.173 57.2 235.373 56.12 238.093 54.84C239.213 54.12 240.373 53.52 241.573 53.04C242.773 52.56 243.853 52.52 244.813 52.92C245.293 53.24 245.493 53.64 245.413 54.12C245.413 54.52 245.213 54.96 244.813 55.44C244.493 55.84 244.053 56.24 243.493 56.64C243.013 57.04 242.573 57.32 242.173 57.48C242.013 57.64 241.853 57.72 241.693 57.72C241.533 57.64 241.373 57.48 241.213 57.24C240.973 56.84 240.973 56.44 241.213 56.04C241.693 55.8 242.133 55.56 242.533 55.32C243.013 55.08 243.453 54.76 243.853 54.36C243.373 54.12 242.493 54.28 241.213 54.84C240.013 55.4 238.973 56.04 238.093 56.76C236.733 57.8 235.853 58.76 235.453 59.64C234.973 60.12 234.693 60.6 234.613 61.08C234.533 61.48 234.493 61.8 234.493 62.04C234.493 62.36 234.813 62.52 235.453 62.52C236.413 62.76 237.693 62.76 239.293 62.52C241.213 62.04 243.693 61.2 246.733 60C249.773 58.72 253.293 56.92 257.293 54.6C257.453 54.44 257.653 54.4 257.893 54.48C258.133 54.56 258.333 54.68 258.493 54.84C258.493 55.48 258.413 55.8 258.253 55.8C254.173 58.2 250.533 60.04 247.333 61.32C244.213 62.6 241.693 63.48 239.773 63.96C238.813 64.2 237.973 64.36 237.253 64.44C236.533 64.44 235.853 64.44 235.213 64.44Z" fill="black"/>
<path d="M140.403 79.08C140.483 78.04 141.083 76.88 142.203 75.6C143.403 74.24 144.923 72.96 146.763 71.76C148.603 70.48 150.723 69.36 153.123 68.4C155.603 67.36 158.243 66.6 161.043 66.12L161.763 64.44C162.483 63 163.123 61.44 163.683 59.76C164.323 58.08 164.963 56.2 165.603 54.12L166.083 51.96C164.883 52.84 163.483 53.64 161.883 54.36C160.363 55.08 158.763 55.76 157.083 56.4C155.483 56.96 153.883 57.52 152.283 58.08C150.763 58.64 149.363 59.16 148.083 59.64L144.483 61.08L144.003 62.52C142.163 66.76 140.163 70 138.003 72.24C135.923 74.48 133.923 76.04 132.003 76.92C129.603 77.88 127.603 77.84 126.003 76.8C124.403 75.68 123.843 73.96 124.323 71.64C124.643 70.36 125.363 69.2 126.483 68.16C127.603 67.04 128.963 66.08 130.563 65.28C132.083 64.4 133.763 63.6 135.603 62.88C137.443 62.08 139.283 61.32 141.123 60.6L143.523 59.64L144.243 57.72C144.403 57.32 144.483 56.96 144.483 56.64C144.563 56.32 144.723 55.96 144.963 55.56L146.163 52.44L146.403 51.72L145.923 51.96C144.483 52.92 142.723 54.04 140.643 55.32C138.643 56.52 136.323 57.96 133.683 59.64C133.043 59.64 132.643 59.56 132.483 59.4C132.323 59.16 132.283 58.96 132.363 58.8C132.443 58.56 132.563 58.36 132.723 58.2C135.843 56.28 138.523 54.64 140.763 53.28C143.083 51.92 144.963 50.68 146.403 49.56L147.603 49.08V48.84C148.723 47 149.683 45.8 150.483 45.24C151.363 44.6 152.003 44.28 152.403 44.28H153.123V44.52C153.843 44.76 154.083 45.32 153.843 46.2C153.363 46.92 152.003 47.96 149.763 49.32L148.803 50.04L148.563 50.52C148.163 51.24 147.803 52.08 147.483 53.04C147.163 53.92 146.803 54.92 146.403 56.04L145.683 58.44L145.443 58.92L147.363 58.2C148.883 57.64 150.563 57.04 152.403 56.4C154.243 55.76 156.083 55.08 157.923 54.36C159.763 53.64 161.483 52.84 163.083 51.96C164.683 51.08 166.003 50.12 167.043 49.08C167.763 47.4 168.363 46.24 168.843 45.6C169.403 44.88 169.923 44.44 170.403 44.28H171.363C171.363 44.36 171.403 44.4 171.483 44.4C171.563 44.48 171.683 44.52 171.843 44.52C172.083 44.76 172.203 44.96 172.203 45.12C172.283 45.28 172.323 45.56 172.323 45.96C172.323 46.76 171.043 48.2 168.483 50.28V50.52C167.843 52.36 167.083 54.68 166.203 57.48C165.403 60.2 164.323 63.08 162.963 66.12C164.643 66.04 166.363 66.12 168.123 66.36C169.963 66.52 171.643 66.8 173.163 67.2C174.683 67.52 175.923 67.88 176.883 68.28C177.923 68.68 178.483 69 178.563 69.24C178.723 69.48 178.723 69.76 178.563 70.08C178.403 70.32 178.083 70.36 177.603 70.2C176.963 69.88 176.083 69.56 174.963 69.24C173.923 68.84 172.723 68.52 171.363 68.28C170.003 67.96 168.563 67.72 167.043 67.56C165.523 67.32 164.003 67.24 162.483 67.32C161.043 70.36 159.323 73.24 157.323 75.96C155.403 78.6 153.123 80.76 150.483 82.44C148.963 83.32 147.563 83.84 146.283 84C145.003 84.16 143.883 84.08 142.923 83.76C141.963 83.36 141.243 82.76 140.763 81.96C140.363 81.16 140.243 80.2 140.403 79.08ZM149.523 81C151.203 80.04 153.003 78.44 154.923 76.2C156.843 73.88 158.723 71.08 160.563 67.8C158.963 67.96 157.123 68.44 155.043 69.24C153.043 70.04 151.083 71 149.163 72.12C147.243 73.24 145.563 74.44 144.123 75.72C142.763 77 142.003 78.2 141.843 79.32C141.683 81 142.323 82.04 143.763 82.44C145.283 82.84 147.203 82.36 149.523 81ZM131.523 75.24C133.203 74.6 135.003 73.24 136.923 71.16C138.843 69 140.723 65.88 142.563 61.8L141.603 62.04C137.363 63.72 133.843 65.28 131.043 66.72C128.163 68.16 126.483 69.96 126.003 72.12C125.603 73.56 125.923 74.68 126.963 75.48C127.923 76.2 129.443 76.12 131.523 75.24ZM170.883 45.96H170.643C170.483 46.12 170.323 46.24 170.163 46.32C170.083 46.4 169.923 46.68 169.683 47.16C170.083 46.92 170.283 46.72 170.283 46.56C170.363 46.32 170.483 46.2 170.643 46.2L170.883 45.96Z" fill="black"/>
<path d="M112.433 56.28C112.913 55.08 113.713 54.04 114.833 53.16C115.953 52.28 117.073 51.72 118.193 51.48C119.073 51.32 119.913 51.36 120.713 51.6C121.513 51.76 121.953 52.2 122.033 52.92C122.113 53.64 121.793 54.36 121.073 55.08C120.433 55.72 119.593 56.32 118.553 56.88C117.593 57.44 116.633 57.92 115.673 58.32C114.713 58.72 114.073 58.96 113.753 59.04C114.153 60.16 114.993 61 116.273 61.56C117.553 62.12 119.033 62.28 120.713 62.04C123.753 61.64 126.753 60.8 129.713 59.52C132.673 58.16 135.233 56.76 137.393 55.32C137.873 54.92 138.273 54.92 138.593 55.32C138.913 55.72 138.833 56.12 138.353 56.52C137.233 57.32 135.873 58.16 134.273 59.04C132.753 59.84 131.113 60.6 129.353 61.32C127.673 61.96 125.913 62.52 124.073 63C122.313 63.4 120.593 63.6 118.913 63.6C117.793 63.6 116.753 63.44 115.793 63.12C114.833 62.72 113.993 62.2 113.273 61.56C112.633 60.92 112.193 60.16 111.953 59.28C111.793 58.4 111.953 57.4 112.433 56.28ZM120.353 52.92C118.913 52.6 117.513 53.04 116.153 54.24C114.793 55.36 113.913 56.56 113.513 57.84C113.833 57.68 114.353 57.44 115.073 57.12C115.793 56.72 116.553 56.32 117.353 55.92C118.153 55.44 118.833 54.96 119.393 54.48C120.033 53.92 120.353 53.4 120.353 52.92Z" fill="black"/>
<path d="M95.6523 63.48C95.0123 62.52 95.0523 61.4 95.7723 60.12C96.4923 58.76 97.4123 57.48 98.5323 56.28V56.04C98.0523 55.32 97.7323 54.72 97.5723 54.24C97.4923 53.76 97.3323 53.16 97.0923 52.44C94.9323 53.88 93.2123 55 91.9323 55.8C90.6523 56.6 89.6523 57.24 88.9323 57.72C88.2923 57.72 87.9723 57.64 87.9723 57.48C87.8123 57.24 87.7723 57.04 87.8523 56.88C87.9323 56.64 88.0523 56.44 88.2123 56.28C88.6123 55.96 89.0523 55.68 89.5323 55.44C90.0123 55.12 90.5723 54.76 91.2123 54.36C91.9323 53.88 92.7323 53.36 93.6123 52.8C94.4923 52.16 95.5723 51.4 96.8523 50.52L97.0923 49.8C97.3323 48.52 97.9323 47.32 98.8923 46.2C99.8523 45 100.932 44 102.132 43.2C103.332 42.32 104.532 41.64 105.732 41.16C107.012 40.68 108.012 40.48 108.732 40.56C109.292 40.64 109.492 41.08 109.332 41.88C109.172 42.6 108.572 43.4 107.532 44.28C106.332 45.24 105.372 46.04 104.652 46.68C103.932 47.24 102.852 48.04 101.412 49.08L98.5323 51.24C98.5323 52.52 99.1723 54.04 100.452 55.8C100.772 56.44 100.772 56.76 100.452 56.76C99.7323 57.4 98.9323 58.2 98.0523 59.16C97.2523 60.12 96.8523 61.08 96.8523 62.04C96.9323 62.6 97.3723 62.88 98.1723 62.88C99.0523 62.88 100.132 62.72 101.412 62.4C102.692 62 104.092 61.52 105.612 60.96C107.212 60.4 108.772 59.8 110.292 59.16C111.812 58.44 113.212 57.8 114.492 57.24C115.852 56.6 116.932 56.04 117.732 55.56C118.132 55.32 118.372 55.28 118.452 55.44C118.612 55.52 118.772 55.64 118.932 55.8C119.092 55.96 119.132 56.16 119.052 56.4C118.972 56.64 118.852 56.76 118.692 56.76C117.652 57.4 116.012 58.28 113.772 59.4C111.532 60.52 109.172 61.56 106.692 62.52C104.292 63.4 102.012 64 99.8523 64.32C97.7723 64.64 96.3723 64.36 95.6523 63.48ZM107.772 42.12C106.172 42.44 104.452 43.28 102.612 44.64C100.852 46 99.6523 47.4 99.0123 48.84C99.8123 48.12 100.572 47.52 101.292 47.04C102.012 46.48 102.692 45.96 103.332 45.48C103.972 44.92 104.652 44.4 105.372 43.92C106.092 43.36 106.892 42.76 107.772 42.12Z" fill="black"/>
<path d="M1.11996 81.72C0.959961 81.48 0.919961 81.24 0.999961 81C1.07996 80.76 1.11996 80.44 1.11996 80.04C1.11996 79.4 2.15996 78.72 4.23996 78C6.31996 77.28 9.03996 76.6 12.4 75.96L13.12 75.24C15.36 73.24 17.68 70.92 20.08 68.28C22.56 65.56 25.08 62.72 27.64 59.76C30.2 56.72 32.76 53.56 35.32 50.28C37.96 47 40.56 43.72 43.12 40.44C39.12 42.04 35.32 43.16 31.72 43.8C28.2 44.36 25.12 44.2 22.48 43.32C19.92 42.6 18.36 41.32 17.8 39.48C17.32 37.64 17.6 35.48 18.64 33C19.76 30.52 21.52 27.88 23.92 25.08C26.4 22.2 29.32 19.44 32.68 16.8C36.04 14.08 39.76 11.56 43.84 9.24001C47.92 6.84001 52.12 4.92001 56.44 3.48001C60.76 1.96001 65.08 1.04001 69.4 0.720005C73.72 0.320006 77.84 0.760006 81.76 2.04001C84.4 2.92001 86.64 4.20001 88.48 5.88C90.4 7.48001 91.76 9.48001 92.56 11.88C93.44 14.28 93.68 17.08 93.28 20.28C92.88 23.4 91.68 26.84 89.68 30.6C88 33.88 85.84 37.28 83.2 40.8C80.56 44.24 77.48 47.72 73.96 51.24C70.52 54.68 66.64 58.04 62.32 61.32C58.08 64.52 53.44 67.48 48.4 70.2C57.12 68.12 64.96 65.76 71.92 63.12C78.88 60.48 84.88 57.88 89.92 55.32C90.08 55.16 90.28 55.16 90.52 55.32C90.76 55.4 90.96 55.56 91.12 55.8C91.12 55.96 91.08 56.16 91 56.4C91 56.64 90.88 56.76 90.64 56.76C84.64 59.8 77.84 62.72 70.24 65.52C62.64 68.32 53.44 70.92 42.64 73.32C40.8 74.2 38.6 75.16 36.04 76.2C33.56 77.24 30.92 78.24 28.12 79.2C25.4 80.16 22.6 81.04 19.72 81.84C16.92 82.56 14.28 83.08 11.8 83.4C9.39996 83.72 7.23996 83.8 5.31996 83.64C3.39996 83.4 1.99996 82.76 1.11996 81.72ZM42.64 71.16C47.36 69 51.96 66.44 56.44 63.48C60.92 60.52 65.12 57.28 69.04 53.76C73.04 50.24 76.64 46.48 79.84 42.48C83.12 38.4 85.92 34.2 88.24 29.88C90.16 26.36 91.32 23.16 91.72 20.28C92.2 17.32 92.08 14.76 91.36 12.6C90.64 10.36 89.4 8.48001 87.64 6.96C85.96 5.44 83.92 4.28 81.52 3.48001C77.76 2.28001 73.8 1.84001 69.64 2.16001C65.48 2.48001 61.32 3.32001 57.16 4.68C53.08 6.04001 49.08 7.84001 45.16 10.08C41.32 12.24 37.76 14.6 34.48 17.16C31.2 19.72 28.32 22.32 25.84 24.96C23.44 27.6 21.64 30.08 20.44 32.4C19.24 34.64 18.76 36.6 19 38.28C19.24 39.96 20.4 41.08 22.48 41.64C25.36 42.52 28.76 42.56 32.68 41.76C36.6 40.96 40.72 39.64 45.04 37.8C47.2 34.76 49.28 31.84 51.28 29.04C53.28 26.16 55.2 23.4 57.04 20.76C57.2 20.44 57.52 20.28 58 20.28C58.24 20.52 58.36 20.76 58.36 21C58.44 21.16 58.48 21.32 58.48 21.48L47.92 36.6C51.52 34.92 55.04 33 58.48 30.84C62 28.6 65.2 26.28 68.08 23.88C71.04 21.48 73.56 19.08 75.64 16.68C77.72 14.28 79.2 12.04 80.08 9.96001C80.32 9.56001 80.52 9.16001 80.68 8.76001C80.84 8.36001 81.12 8.36001 81.52 8.76001C81.76 8.92001 81.8 9.16 81.64 9.48001C81.56 9.72001 81.52 10.04 81.52 10.44C80.72 12.6 79.16 15 76.84 17.64C74.52 20.28 71.72 22.92 68.44 25.56C65.24 28.2 61.68 30.76 57.76 33.24C53.84 35.64 49.92 37.72 46 39.48C41.04 46.12 35.88 52.64 30.52 59.04C25.24 65.36 20.24 70.76 15.52 75.24C19.76 74.52 24.28 73.8 29.08 73.08C33.88 72.28 38.4 71.64 42.64 71.16ZM9.27996 79.8C8.71996 79.24 8.71996 78.84 9.27996 78.6L9.99996 77.88C7.83996 78.36 6.11996 78.84 4.83996 79.32C3.47996 79.8 2.79996 80.28 2.79996 80.76C3.19996 81.48 4.11996 81.92 5.55996 82.08C6.99996 82.16 8.75996 82.08 10.84 81.84C13 81.52 15.36 81.08 17.92 80.52C20.48 79.88 23 79.16 25.48 78.36C27.96 77.56 30.28 76.76 32.44 75.96C34.68 75.16 36.56 74.36 38.08 73.56C36.8 73.72 35.2 73.92 33.28 74.16C31.36 74.4 29.28 74.68 27.04 75C24.8 75.32 22.48 75.68 20.08 76.08C17.76 76.48 15.52 76.84 13.36 77.16L10.48 79.8C9.91996 80.04 9.51996 80.04 9.27996 79.8Z" fill="black"/>
</svg>
