<svg width="160" height="84" viewBox="0 0 160 84" fill="none" xmlns="http://www.w3.org/2000/svg">
<path d="M124.217 36.8003C124.057 36.8003 123.697 36.8403 123.137 36.9203C122.577 37.0003 122.297 36.8003 122.297 36.3203C122.297 35.9203 122.497 35.6403 122.897 35.4803C123.057 35.4003 123.257 35.3603 123.497 35.3603C125.577 35.1203 128.017 34.9603 130.817 34.8803C133.697 34.7203 136.697 34.6403 139.817 34.6403C140.537 34.0003 141.537 33.2003 142.817 32.2403C144.177 31.2003 145.537 30.2003 146.897 29.2403C148.337 28.2803 149.697 27.4803 150.977 26.8403C152.257 26.1203 153.257 25.7603 153.977 25.7603C154.377 25.7603 154.657 25.9203 154.817 26.2403C155.057 26.4803 155.177 26.7203 155.177 26.9603C155.017 27.8403 154.337 28.9203 153.137 30.2003C151.937 31.4803 150.377 32.9603 148.457 34.6403L158.057 35.3603L158.777 35.6003C159.177 35.8403 159.337 36.1603 159.257 36.5603C159.177 36.8003 158.817 36.9203 158.177 36.9203C157.857 36.9203 157.577 36.8803 157.337 36.8003C155.497 36.6403 153.697 36.5203 151.937 36.4403C150.177 36.3603 148.377 36.3203 146.537 36.3203C143.817 38.5603 141.057 40.7203 138.257 42.8003C135.457 44.8003 132.537 46.5603 129.497 48.0803C128.937 48.7203 128.417 49.6003 127.937 50.7203C127.457 51.7603 127.217 52.6003 127.217 53.2403C127.297 54.2003 127.937 54.8003 129.137 55.0403C130.417 55.2003 131.977 55.1603 133.817 54.9203C135.737 54.6803 137.817 54.2403 140.057 53.6003C142.297 52.8803 144.457 52.1603 146.537 51.4403C148.617 50.7203 150.457 50.0003 152.057 49.2803C153.657 48.4803 154.777 47.8403 155.417 47.3603C156.057 46.9603 156.537 46.9603 156.857 47.3603C157.177 47.7603 157.017 48.1603 156.377 48.5603C155.417 49.3603 153.697 50.3203 151.217 51.4403C148.737 52.4803 146.057 53.4803 143.177 54.4403C140.297 55.3203 137.457 56.0003 134.657 56.4803C131.937 56.9603 129.817 56.9603 128.297 56.4803C127.417 56.3203 126.697 56.0003 126.137 55.5203C125.657 54.9603 125.417 54.2403 125.417 53.3603C125.417 52.8803 125.457 52.3603 125.537 51.8003C125.697 51.2403 125.977 50.6403 126.377 50.0003L126.617 49.7603L124.457 50.7203C124.297 50.8803 124.097 50.9203 123.857 50.8403C123.617 50.7603 123.497 50.6403 123.497 50.4803C123.337 50.1603 123.417 49.8403 123.737 49.5203L128.297 46.8803C129.257 45.5203 130.497 44.0003 132.017 42.3203C133.617 40.5603 135.577 38.5603 137.897 36.3203C135.337 36.3203 132.897 36.3603 130.577 36.4403C128.257 36.4403 126.137 36.5603 124.217 36.8003ZM152.537 27.9203C151.417 28.4003 149.937 29.2003 148.097 30.3203C146.337 31.3603 144.297 32.8003 141.977 34.6403H146.297C147.657 33.4403 148.977 32.2003 150.257 30.9203C151.617 29.6403 152.617 28.5603 153.257 27.6803L152.537 27.9203ZM131.297 45.4403C134.097 43.5203 136.577 41.8403 138.737 40.4003C140.897 38.8803 142.777 37.5203 144.377 36.3203H140.297C139.577 36.9603 138.537 37.9203 137.177 39.2003C135.817 40.4803 133.857 42.5603 131.297 45.4403Z" fill="black"/>
<path d="M83.6512 80.7203C83.8112 79.6003 85.7312 76.5603 89.4112 71.6003C93.0112 66.5603 98.0512 59.9203 104.531 51.6803C104.451 51.2003 104.491 50.6803 104.651 50.1203C104.811 49.5603 105.011 49.0803 105.251 48.6803C105.491 48.2803 105.771 48.0003 106.091 47.8403C106.411 47.6803 106.771 47.7603 107.171 48.0803C108.131 46.9603 109.371 45.4803 110.891 43.6403C112.411 41.8003 113.731 40.3203 114.851 39.2003C113.411 40.1603 111.651 41.2803 109.571 42.5603C107.571 43.7603 105.571 44.9603 103.571 46.1603C101.651 47.2803 99.8912 48.2803 98.2912 49.1603C96.7712 50.0403 95.7312 50.6403 95.1712 50.9603C94.8512 51.1203 94.3712 51.0403 93.7312 50.7203C93.7312 50.0803 93.8912 49.6803 94.2112 49.5203C97.8112 47.4403 101.651 45.2003 105.731 42.8003C109.891 40.4003 113.891 37.9203 117.731 35.3603C118.451 34.5603 119.411 33.4803 120.611 32.1203C121.891 30.6803 123.211 29.2803 124.571 27.9203C125.931 26.5603 127.291 25.3603 128.651 24.3203C130.011 23.2803 131.171 22.7203 132.131 22.6403C132.451 22.6403 132.771 22.7203 133.091 22.8803C134.051 23.5203 134.011 24.5203 132.971 25.8803C131.931 27.1603 130.491 28.5203 128.651 29.9603C126.891 31.4003 125.051 32.7203 123.131 33.9203C121.291 35.1203 119.971 35.9203 119.171 36.3203C117.491 38.2403 115.691 40.4003 113.771 42.8003C111.851 45.1203 110.211 47.1203 108.851 48.8003L108.131 49.7603L107.171 52.1603C108.451 52.7203 109.891 53.0003 111.491 53.0003C113.171 52.9203 114.891 52.6803 116.651 52.2803C118.411 51.8803 120.131 51.3203 121.811 50.6003C123.571 49.8003 125.171 48.9603 126.611 48.0803C127.091 47.8403 127.411 47.9203 127.571 48.3203C128.051 48.8003 127.971 49.2003 127.331 49.5203C125.731 50.4803 123.971 51.3603 122.051 52.1603C120.211 52.8803 118.371 53.4403 116.531 53.8403C114.691 54.2403 112.891 54.4403 111.131 54.4403C109.451 54.4403 107.971 54.1603 106.691 53.6003C105.731 56.1603 104.451 58.8003 102.851 61.5203C101.331 64.1603 99.7312 66.8803 98.0512 69.6803C96.6112 71.8403 95.1712 73.8403 93.7312 75.6803C92.3712 77.5203 91.0912 79.1203 89.8912 80.4803C89.2512 80.9603 88.6112 81.4003 87.9712 81.8003C87.3312 82.2803 86.6912 82.6403 86.0512 82.8803C85.4112 83.1203 84.8912 83.0403 84.4912 82.6403C84.0912 82.3203 83.8112 81.8403 83.6512 81.2003V80.7203ZM88.6912 79.2803C89.8112 78.0803 91.0912 76.5603 92.5312 74.7203C93.9712 72.8803 95.4112 70.8803 96.8512 68.7203C98.2912 66.4003 99.6512 64.1203 100.931 61.8803C102.211 59.5603 103.411 57.3603 104.531 55.2803L105.491 52.6403C102.931 55.9203 100.451 59.1603 98.0512 62.3603C95.6512 65.4803 93.4912 68.3203 91.5712 70.8803C89.4912 73.7603 88.0112 75.9603 87.1312 77.4803C86.1712 79.0003 85.5712 80.0003 85.3312 80.4803V80.9603C85.4912 81.1203 85.7312 81.2003 86.0512 81.2003C86.2912 81.0403 86.6512 80.8403 87.1312 80.6003C87.5312 80.3603 88.0512 79.9203 88.6912 79.2803ZM131.171 25.7603C131.571 25.3603 131.851 25.0003 132.011 24.6803C132.091 24.5203 132.131 24.4003 132.131 24.3203C131.651 24.4803 130.491 25.1603 128.651 26.3603C126.891 27.5603 124.451 29.9203 121.331 33.4403C122.211 32.8003 123.171 32.0803 124.211 31.2803C125.251 30.4803 126.251 29.7203 127.211 29.0003C128.171 28.2803 129.011 27.6403 129.731 27.0803C130.451 26.4403 130.931 26.0003 131.171 25.7603Z" fill="black"/>
<path d="M78.1035 55.2802C77.6235 54.6402 77.5435 53.8802 77.8635 53.0002C78.1835 52.1202 78.5835 51.3602 79.0635 50.7202C78.3435 51.2002 77.7835 51.5202 77.3835 51.6802C76.9835 51.7602 76.5835 51.9202 76.1835 52.1602C75.7835 52.4002 75.4635 52.3202 75.2235 51.9202C74.9835 51.5202 75.0635 51.2002 75.4635 50.9602C76.4235 50.5602 77.1435 50.2002 77.6235 49.8802C78.1835 49.5602 78.6635 49.2802 79.0635 49.0402C79.4635 48.7202 79.9035 48.4002 80.3835 48.0802C80.8635 47.7602 81.5435 47.3602 82.4235 46.8802C82.9035 46.6402 83.2635 46.7602 83.5035 47.2402C83.8235 47.7202 83.7835 48.0802 83.3835 48.3202C82.5035 48.9602 81.8635 49.5602 81.4635 50.1202C81.0635 50.6802 80.6635 51.2802 80.2635 51.9202C79.6235 52.9602 79.4235 53.6402 79.6635 53.9602C79.9035 54.2802 80.3435 54.4402 80.9835 54.4402C81.6235 54.4402 82.3435 54.3602 83.1435 54.2002C83.9435 53.9602 84.5835 53.7602 85.0635 53.6002C86.6635 53.1202 88.4235 52.4402 90.3435 51.5602C92.2635 50.6802 94.1835 49.7602 96.1035 48.8002C96.3435 48.5602 96.5435 48.4802 96.7035 48.5602C96.8635 48.5602 97.0635 48.6402 97.3035 48.8002C97.5435 49.2802 97.3835 49.6802 96.8235 50.0002C96.0235 50.4802 94.7035 51.2002 92.8635 52.1602C91.1035 53.0402 89.2235 53.8402 87.2235 54.5602C85.2235 55.2802 83.3435 55.8002 81.5835 56.1202C79.8235 56.3602 78.6635 56.0802 78.1035 55.2802ZM83.8635 43.0402C83.7035 42.8802 83.6235 42.6802 83.6235 42.4402C83.7035 42.2002 83.8635 42.0802 84.1035 42.0802C84.5835 41.6002 85.0635 41.1202 85.5435 40.6402C86.1035 40.0802 86.5835 39.4402 86.9835 38.7202C87.2235 38.1602 87.5435 38.0802 87.9435 38.4802C88.5835 38.8002 88.7435 39.1202 88.4235 39.4402C87.3835 41.2802 86.2635 42.5602 85.0635 43.2802C84.5035 43.6002 84.1035 43.5202 83.8635 43.0402Z" fill="black"/>
<path d="M22.6401 49.0402C22.1601 48.8002 22.0001 48.4002 22.1601 47.8402C22.1601 47.6802 22.2001 47.5202 22.2801 47.3602C22.4401 47.2002 22.7201 47.2002 23.1201 47.3602L23.6001 47.8402C23.7601 47.8402 23.9601 47.8402 24.2001 47.8402C24.4401 47.8402 24.8001 47.9202 25.2801 48.0802C25.9201 48.0802 26.6001 48.0402 27.3201 47.9602C28.0401 47.8802 28.8801 47.8402 29.8401 47.8402C31.6801 47.6002 33.6801 47.3602 35.8401 47.1202C38.0801 46.8002 40.4801 46.4002 43.0401 45.9202C48.0001 44.9602 52.8401 43.8802 57.5601 42.6802C62.3601 41.4802 66.1601 40.3202 68.9601 39.2002C69.1201 39.2002 69.2801 39.2402 69.4401 39.3202C69.6001 39.3202 69.7601 39.4402 69.9201 39.6802C70.0801 40.0802 69.9201 40.4002 69.4401 40.6402C68.3201 41.1202 66.9601 41.6402 65.3601 42.2002C63.8401 42.7602 62.1601 43.2802 60.3201 43.7602V43.8802C60.3201 43.9602 60.2401 44.0002 60.0801 44.0002H60.3201L59.6001 44.7202L58.8801 45.2002C55.7601 48.4802 53.4401 51.3202 51.9201 53.7202C50.4801 56.1202 50.0801 57.6802 50.7201 58.4002C51.2801 59.2002 52.3201 59.5602 53.8401 59.4802C55.4401 59.3202 57.2401 58.9202 59.2401 58.2802C61.3201 57.6402 63.5201 56.8002 65.8401 55.7602C68.1601 54.6402 70.3601 53.5202 72.4401 52.4002C74.5201 51.2802 76.3601 50.2402 77.9601 49.2802C79.6401 48.2402 80.8801 47.4402 81.6801 46.8802C82.3201 46.8802 82.7201 46.9602 82.8801 47.1202C83.2001 47.6802 83.1201 48.0802 82.6401 48.3202C80.9601 49.5202 79.0401 50.7602 76.8801 52.0402C74.8001 53.2402 72.6001 54.4002 70.2801 55.5202C68.0401 56.5602 65.8001 57.5202 63.5601 58.4002C61.3201 59.2802 59.2401 59.9602 57.3201 60.4402C55.4801 60.8402 53.8401 61.0002 52.4001 60.9202C51.0401 60.7602 50.0801 60.2402 49.5201 59.3602C49.0401 58.7202 48.8001 57.8802 48.8001 56.8402C48.8001 55.7202 49.6001 54.0802 51.2001 51.9202C49.5201 53.0402 47.9201 54.1202 46.4001 55.1602C44.9601 56.2002 43.4801 57.2402 41.9601 58.2802C40.4401 59.2402 38.8401 60.2002 37.1601 61.1602C35.5601 62.1202 33.7601 63.1202 31.7601 64.1602C28.4801 65.8402 25.1601 67.3602 21.8001 68.7202C18.5201 70.0002 15.4401 70.8802 12.5601 71.3602C9.76006 71.7602 7.32006 71.6002 5.24006 70.8802C3.16006 70.1602 1.76006 68.5602 1.04006 66.0802C0.240059 63.3602 0.440058 59.8802 1.64006 55.6402C2.92006 51.3202 5.04006 46.8002 8.00006 42.0802C11.0401 37.2802 14.8401 32.5202 19.4001 27.8002C23.9601 23.0002 29.2001 18.7202 35.1201 14.9602C41.0401 11.1202 47.0001 8.08023 53.0001 5.84023C59.0001 3.52023 64.4401 2.00023 69.3201 1.28023C74.2801 0.560234 78.4401 0.560234 81.8001 1.28023C85.2401 2.00023 87.3601 3.44023 88.1601 5.60023C88.8001 7.36023 88.5201 9.32023 87.3201 11.4802C86.1201 13.5602 84.2801 15.6402 81.8001 17.7202C79.4001 19.8002 76.5201 21.8002 73.1601 23.7202C69.8801 25.6402 66.4801 27.3202 62.9601 28.7602C59.5201 30.1202 56.1201 31.2002 52.7601 32.0002C49.4801 32.7202 46.6401 32.9602 44.2401 32.7202C43.2801 32.5602 42.8401 32.2402 42.9201 31.7602C43.0801 31.2802 43.5201 31.1202 44.2401 31.2802C46.5601 31.4402 49.2801 31.2002 52.4001 30.5602C55.5201 29.8402 58.7201 28.8402 62.0001 27.5602C65.2801 26.2802 68.4801 24.7602 71.6001 23.0002C74.7201 21.2402 77.4401 19.4002 79.7601 17.4802C82.1601 15.5602 83.9601 13.6802 85.1601 11.8402C86.4401 9.92023 86.8801 8.16023 86.4801 6.56023C86.0001 4.56023 84.1201 3.28023 80.8401 2.72023C77.5601 2.08023 73.4801 2.16023 68.6001 2.96023C63.8001 3.76023 58.5201 5.28023 52.7601 7.52023C47.0001 9.68023 41.4401 12.5602 36.0801 16.1602C30.1601 20.0002 24.9601 24.2802 20.4801 29.0002C16.0001 33.7202 12.3201 38.4002 9.44006 43.0402C6.56006 47.6002 4.52006 51.8802 3.32006 55.8802C2.12006 59.8802 1.84006 63.1202 2.48006 65.6002C3.04006 67.5202 4.20006 68.8002 5.96006 69.4402C7.72006 70.0002 9.84006 70.1202 12.3201 69.8002C14.8801 69.4002 17.7201 68.6002 20.8401 67.4002C24.0401 66.1202 27.3601 64.5602 30.8001 62.7202C33.4401 61.3602 36.0401 59.8802 38.6001 58.2802C41.2401 56.6002 43.6801 54.9602 45.9201 53.3602C48.2401 51.7602 50.3201 50.2802 52.1601 48.9202C54.0801 47.4802 55.6001 46.3202 56.7201 45.4402L56.9601 44.9602L57.6801 44.2402C55.3601 44.8802 52.9601 45.4802 50.4801 46.0402C48.0801 46.5202 45.6801 46.9602 43.2801 47.3602C40.7201 47.8402 38.3201 48.2402 36.0801 48.5602C33.8401 48.8802 31.7601 49.1202 29.8401 49.2802C28.9601 49.4402 28.1601 49.5602 27.4401 49.6402C26.7201 49.7202 26.0001 49.7602 25.2801 49.7602C24.0001 49.7602 23.1201 49.5202 22.6401 49.0402Z" fill="black"/>
</svg>
