<svg width="221" height="46" viewBox="0 0 221 46" fill="none" xmlns="http://www.w3.org/2000/svg">
<path d="M182.126 42.04C182.406 41.5733 183.013 40.92 183.946 40.08C184.973 39.24 185.673 38.4467 186.046 37.7C186.513 36.86 186.839 36.0667 187.026 35.32C186.093 35.9733 185.159 36.5333 184.226 37C183.386 37.4667 182.546 37.9333 181.706 38.4C181.146 38.68 180.679 38.54 180.306 37.98C180.026 37.42 180.213 37 180.866 36.72C181.426 36.44 182.079 36.1133 182.826 35.74C183.573 35.2733 184.226 34.8533 184.786 34.48C185.439 34.1067 185.953 33.78 186.326 33.5C186.793 33.1267 187.026 32.8 187.026 32.52V32.24C187.213 31.7733 187.493 31.54 187.866 31.54C188.239 31.4467 188.519 31.68 188.706 32.24C188.986 33.2667 189.079 34.1533 188.986 34.9C188.893 35.5533 188.706 36.2533 188.426 37C191.226 35.4133 193.653 34.1067 195.706 33.08C197.759 32.0533 199.439 31.96 200.746 32.8C201.213 33.08 201.446 33.5 201.446 34.06C201.446 34.62 201.306 35.1333 201.026 35.6C200.653 36.72 200.279 37.7467 199.906 38.68C199.533 39.6133 199.299 40.4067 199.206 41.06C199.113 41.7133 199.206 42.18 199.486 42.46C199.859 42.74 200.559 42.7867 201.586 42.6C203.826 42.1333 206.579 41.2 209.846 39.8C213.113 38.3067 216.146 36.6267 218.946 34.76C219.599 34.3867 220.066 34.48 220.346 35.04C220.626 35.6 220.533 35.9733 220.066 36.16C216.986 38.3067 213.859 40.1267 210.686 41.62C207.513 43.02 204.386 44 201.306 44.56C199.439 44.84 198.226 44.6067 197.666 43.86C197.199 43.1133 197.013 42.18 197.106 41.06C197.293 39.94 197.666 38.7733 198.226 37.56C198.786 36.2533 199.159 35.2267 199.346 34.48C199.159 33.92 198.506 33.8267 197.386 34.2C196.266 34.5733 194.959 35.18 193.466 36.02C192.066 36.7667 190.666 37.6067 189.266 38.54C187.866 39.4733 186.793 40.22 186.046 40.78C185.579 41.34 185.066 41.9 184.506 42.46C184.039 42.9267 183.666 43.2533 183.386 43.44C182.919 43.6267 182.499 43.6267 182.126 43.44C181.753 43.2533 181.753 42.7867 182.126 42.04Z" fill="black"/>
<path d="M155.668 43.16C154.548 42.2267 154.081 41.1533 154.268 39.94C154.454 38.6333 155.014 37.42 155.948 36.3C156.881 35.0867 158.001 34.0133 159.308 33.08C160.614 32.1467 161.781 31.4933 162.808 31.12C162.994 31.0267 163.274 30.98 163.648 30.98C164.114 30.98 164.348 31.12 164.348 31.4C164.534 31.7733 164.441 32.1467 164.068 32.52C163.321 33.1733 162.341 33.9667 161.128 34.9C160.008 35.74 158.888 36.5333 157.768 37.28C156.648 38.68 156.274 39.94 156.648 41.06C156.928 41.9 157.768 42.32 159.168 42.32C160.568 42.32 162.108 41.9 163.788 41.06C162.761 40.1267 162.294 38.96 162.388 37.56C162.574 36.16 163.041 34.8067 163.788 33.5C164.628 32.1933 165.654 31.0733 166.868 30.14C168.081 29.2067 169.201 28.7867 170.228 28.88C170.508 28.88 170.741 28.9267 170.928 29.02C171.114 29.02 171.348 29.16 171.628 29.44C172.188 30.1867 172.328 31.12 172.048 32.24C171.861 33.36 171.441 34.48 170.788 35.6C170.228 36.72 169.574 37.7467 168.828 38.68C168.081 39.6133 167.521 40.1733 167.148 40.36C168.081 40.5467 169.341 40.4533 170.928 40.08C172.608 39.6133 174.288 39.1 175.968 38.54C177.741 37.8867 179.421 37.1867 181.008 36.44C182.594 35.6933 183.761 35.04 184.508 34.48C185.254 34.48 185.628 34.6667 185.628 35.04C185.814 35.4133 185.721 35.7867 185.348 36.16C184.414 36.8133 183.108 37.56 181.428 38.4C179.748 39.1467 177.928 39.8467 175.968 40.5C174.101 41.1533 172.188 41.6667 170.228 42.04C168.361 42.32 166.774 42.32 165.468 42.04C163.041 43.6267 160.988 44.3733 159.308 44.28C157.628 44.1867 156.414 43.8133 155.668 43.16ZM169.948 30.56C169.294 30.4667 168.548 30.84 167.708 31.68C166.868 32.4267 166.121 33.3133 165.468 34.34C164.908 35.3667 164.534 36.44 164.348 37.56C164.161 38.5867 164.441 39.3333 165.188 39.8C165.934 39.1467 166.681 38.3533 167.428 37.42C168.174 36.3933 168.781 35.4133 169.248 34.48C169.808 33.4533 170.134 32.5667 170.228 31.82C170.414 31.0733 170.321 30.6533 169.948 30.56Z" fill="black"/>
<path d="M136.035 43.16C135.475 42.4133 135.382 41.5267 135.755 40.5C136.129 39.4733 136.595 38.5867 137.155 37.84C136.315 38.4 135.662 38.7733 135.195 38.96C134.729 39.0533 134.262 39.24 133.795 39.52C133.329 39.8 132.955 39.7067 132.675 39.24C132.395 38.7733 132.489 38.4 132.955 38.12C134.075 37.6533 134.915 37.2333 135.475 36.86C136.129 36.4867 136.689 36.16 137.155 35.88C137.622 35.5067 138.135 35.1333 138.695 34.76C139.255 34.3867 140.049 33.92 141.075 33.36C141.635 33.08 142.055 33.22 142.335 33.78C142.709 34.34 142.662 34.76 142.195 35.04C141.169 35.7867 140.422 36.4867 139.955 37.14C139.489 37.7933 139.022 38.4933 138.555 39.24C137.809 40.4533 137.575 41.2467 137.855 41.62C138.135 41.9933 138.649 42.18 139.395 42.18C140.142 42.18 140.982 42.0867 141.915 41.9C142.849 41.62 143.595 41.3867 144.155 41.2C146.022 40.64 148.075 39.8467 150.315 38.82C152.555 37.7933 154.795 36.72 157.035 35.6C157.315 35.32 157.549 35.2267 157.735 35.32C157.922 35.32 158.155 35.4133 158.435 35.6C158.715 36.16 158.529 36.6267 157.875 37C156.942 37.56 155.402 38.4 153.255 39.52C151.202 40.5467 149.009 41.48 146.675 42.32C144.342 43.16 142.149 43.7667 140.095 44.14C138.042 44.42 136.689 44.0933 136.035 43.16ZM142.755 28.88C142.569 28.6933 142.475 28.46 142.475 28.18C142.569 27.9 142.755 27.76 143.035 27.76C143.595 27.2 144.155 26.64 144.715 26.08C145.369 25.4267 145.929 24.68 146.395 23.84C146.675 23.1867 147.049 23.0933 147.515 23.56C148.262 23.9333 148.449 24.3067 148.075 24.68C146.862 26.8267 145.555 28.32 144.155 29.16C143.502 29.5333 143.035 29.44 142.755 28.88Z" fill="black"/>
<path d="M103.838 21.6C103.651 21.6 103.231 21.6467 102.578 21.74C101.925 21.8333 101.598 21.6 101.598 21.04C101.598 20.5733 101.831 20.2467 102.298 20.06C102.485 19.9667 102.718 19.92 102.998 19.92C105.425 19.64 108.271 19.4533 111.538 19.36C114.898 19.1733 118.398 19.08 122.038 19.08C122.878 18.3333 124.045 17.4 125.538 16.28C127.125 15.0667 128.711 13.9 130.298 12.78C131.978 11.66 133.565 10.7267 135.058 9.98C136.551 9.14 137.718 8.72 138.558 8.72C139.025 8.72 139.351 8.90667 139.538 9.28C139.818 9.56 139.958 9.84 139.958 10.12C139.771 11.1467 138.978 12.4067 137.578 13.9C136.178 15.3933 134.358 17.12 132.118 19.08L143.318 19.92L144.158 20.2C144.625 20.48 144.811 20.8533 144.718 21.32C144.625 21.6 144.205 21.74 143.458 21.74C143.085 21.74 142.758 21.6933 142.478 21.6C140.331 21.4133 138.231 21.2733 136.178 21.18C134.125 21.0867 132.025 21.04 129.878 21.04C126.705 23.6533 123.485 26.1733 120.218 28.6C116.951 30.9333 113.545 32.9867 109.998 34.76C109.345 35.5067 108.738 36.5333 108.178 37.84C107.618 39.0533 107.338 40.0333 107.338 40.78C107.431 41.9 108.178 42.6 109.578 42.88C111.071 43.0667 112.891 43.02 115.038 42.74C117.278 42.46 119.705 41.9467 122.318 41.2C124.931 40.36 127.451 39.52 129.878 38.68C132.305 37.84 134.451 37 136.318 36.16C138.185 35.2267 139.491 34.48 140.238 33.92C140.985 33.4533 141.545 33.4533 141.918 33.92C142.291 34.3867 142.105 34.8533 141.358 35.32C140.238 36.2533 138.231 37.3733 135.338 38.68C132.445 39.8933 129.318 41.06 125.958 42.18C122.598 43.2067 119.285 44 116.018 44.56C112.845 45.12 110.371 45.12 108.598 44.56C107.571 44.3733 106.731 44 106.078 43.44C105.518 42.7867 105.238 41.9467 105.238 40.92C105.238 40.36 105.285 39.7533 105.378 39.1C105.565 38.4467 105.891 37.7467 106.358 37L106.638 36.72L104.118 37.84C103.931 38.0267 103.698 38.0733 103.418 37.98C103.138 37.8867 102.998 37.7467 102.998 37.56C102.811 37.1867 102.905 36.8133 103.278 36.44L108.598 33.36C109.718 31.7733 111.165 30 112.938 28.04C114.805 25.9867 117.091 23.6533 119.798 21.04C116.811 21.04 113.965 21.0867 111.258 21.18C108.551 21.18 106.078 21.32 103.838 21.6ZM136.878 11.24C135.571 11.8 133.845 12.7333 131.698 14.04C129.645 15.2533 127.265 16.9333 124.558 19.08H129.598C131.185 17.68 132.725 16.2333 134.218 14.74C135.805 13.2467 136.971 11.9867 137.718 10.96L136.878 11.24ZM112.098 31.68C115.365 29.44 118.258 27.48 120.778 25.8C123.298 24.0267 125.491 22.44 127.358 21.04H122.598C121.758 21.7867 120.545 22.9067 118.958 24.4C117.371 25.8933 115.085 28.32 112.098 31.68Z" fill="black"/>
<path d="M74.9932 45.12C73.8732 44.4667 73.4532 43.4867 73.7332 42.18C74.0132 40.78 74.7132 39.4733 75.8332 38.26C76.9532 36.9533 78.3532 35.8333 80.0332 34.9C81.7132 33.8733 83.3932 33.36 85.0732 33.36C86.1932 33.36 87.1732 33.5933 88.0132 34.06C88.9465 34.5267 89.5532 35.04 89.8332 35.6C90.0198 35.88 89.9265 36.16 89.5532 36.44C89.2732 36.6267 88.9932 36.6267 88.7132 36.44C88.2465 36.16 87.7798 35.88 87.3132 35.6C86.9398 35.2267 86.1932 35.04 85.0732 35.04C83.9532 35.04 82.7398 35.4133 81.4332 36.16C80.1265 36.9067 78.9598 37.7933 77.9332 38.82C76.9998 39.7533 76.2998 40.6867 75.8332 41.62C75.4598 42.46 75.5532 43.0667 76.1132 43.44C76.9532 43.6267 78.0732 43.44 79.4732 42.88C80.8732 42.2267 82.3198 41.48 83.8132 40.64C85.3998 39.7067 86.8932 38.7267 88.2932 37.7C89.7865 36.6733 91.0465 35.7867 92.0732 35.04C93.0065 34.2933 93.6132 34.2 93.8932 34.76C94.2665 35.32 94.2198 35.7867 93.7532 36.16C92.5398 37 91.6998 38.0733 91.2332 39.38C90.8598 40.5933 90.9998 41.34 91.6532 41.62C92.3065 41.9 93.3798 41.76 94.8732 41.2C96.3665 40.5467 97.9065 39.8 99.4932 38.96C101.08 38.12 102.573 37.28 103.973 36.44C105.373 35.6 106.26 35.04 106.633 34.76C107.193 34.48 107.613 34.62 107.893 35.18C108.266 35.74 108.22 36.16 107.753 36.44C107.1 36.8133 106.073 37.4667 104.673 38.4C103.273 39.24 101.733 40.08 100.053 40.92C98.4665 41.76 96.8332 42.46 95.1532 43.02C93.5665 43.58 92.2598 43.72 91.2332 43.44C90.2065 43.16 89.5532 42.5533 89.2732 41.62C89.0865 40.6867 89.2265 39.8 89.6932 38.96C88.6665 39.7067 87.4532 40.5467 86.0532 41.48C84.6532 42.32 83.2065 43.0667 81.7132 43.72C80.2198 44.3733 78.8665 44.8867 77.6532 45.26C76.4398 45.54 75.5532 45.4933 74.9932 45.12Z" fill="black"/>
<path d="M53.4599 43.44C53.2733 42.32 53.5533 41.06 54.2999 39.66C55.0466 38.26 56.0733 37 57.38 35.88C57.8466 35.5067 58.5 35.04 59.34 34.48C60.18 33.92 61.0666 33.4533 62 33.08C62.9333 32.6133 63.8666 32.2867 64.8 32.1C65.8266 31.9133 66.7133 31.96 67.4599 32.24C68.0199 32.6133 68.2533 33.08 68.16 33.64C68.16 34.1067 67.9266 34.62 67.4599 35.18C67.0866 35.6467 66.5733 36.1133 65.92 36.58C65.36 37.0467 64.8466 37.3733 64.38 37.56C63.9133 37.84 63.54 37.7933 63.26 37.42C62.98 36.9533 63.0733 36.5333 63.54 36.16C64.1 35.88 64.5666 35.5533 64.94 35.18C65.4066 34.8067 65.8733 34.3867 66.34 33.92C65.78 33.64 64.7533 33.8267 63.26 34.48C61.86 35.1333 60.6466 35.88 59.6199 36.72C58.5933 37.4667 57.6133 38.4 56.68 39.52C55.84 40.5467 55.42 41.6667 55.42 42.88C55.42 43.44 56.0733 43.7667 57.38 43.86C58.78 43.86 59.9933 43.72 61.02 43.44C63.26 42.88 66.06 41.9 69.42 40.5C72.78 39.0067 76.7933 36.9067 81.4599 34.2C81.6466 34.0133 81.88 33.9667 82.16 34.06C82.44 34.1533 82.6733 34.2933 82.86 34.48C82.86 35.2267 82.7666 35.6 82.58 35.6C77.82 38.4 73.6666 40.5467 70.1199 42.04C66.6666 43.5333 63.82 44.56 61.58 45.12C60.0866 45.4933 58.4533 45.68 56.68 45.68C54.9066 45.5867 53.8333 44.84 53.4599 43.44Z" fill="black"/>
<path d="M30.5016 43.16C29.3816 42.2267 28.9149 41.1533 29.1016 39.94C29.2883 38.6333 29.8483 37.42 30.7816 36.3C31.7149 35.0867 32.8349 34.0133 34.1416 33.08C35.4483 32.1467 36.6149 31.4933 37.6416 31.12C37.8283 31.0267 38.1083 30.98 38.4816 30.98C38.9483 30.98 39.1816 31.12 39.1816 31.4C39.3683 31.7733 39.2749 32.1467 38.9016 32.52C38.1549 33.1733 37.1749 33.9667 35.9616 34.9C34.8416 35.74 33.7216 36.5333 32.6016 37.28C31.4816 38.68 31.1083 39.94 31.4816 41.06C31.7616 41.9 32.6016 42.32 34.0016 42.32C35.4016 42.32 36.9416 41.9 38.6216 41.06C37.5949 40.1267 37.1283 38.96 37.2216 37.56C37.4083 36.16 37.8749 34.8067 38.6216 33.5C39.4616 32.1933 40.4883 31.0733 41.7016 30.14C42.9149 29.2067 44.0349 28.7867 45.0616 28.88C45.3416 28.88 45.5749 28.9267 45.7616 29.02C45.9483 29.02 46.1816 29.16 46.4616 29.44C47.0216 30.1867 47.1616 31.12 46.8816 32.24C46.6949 33.36 46.2749 34.48 45.6216 35.6C45.0616 36.72 44.4083 37.7467 43.6616 38.68C42.9149 39.6133 42.3549 40.1733 41.9816 40.36C42.9149 40.5467 44.1749 40.4533 45.7616 40.08C47.4416 39.6133 49.1216 39.1 50.8016 38.54C52.5749 37.8867 54.2549 37.1867 55.8416 36.44C57.4283 35.6933 58.5949 35.04 59.3416 34.48C60.0883 34.48 60.4616 34.6667 60.4616 35.04C60.6483 35.4133 60.5549 35.7867 60.1816 36.16C59.2483 36.8133 57.9416 37.56 56.2616 38.4C54.5816 39.1467 52.7616 39.8467 50.8016 40.5C48.9349 41.1533 47.0216 41.6667 45.0616 42.04C43.1949 42.32 41.6083 42.32 40.3016 42.04C37.8749 43.6267 35.8216 44.3733 34.1416 44.28C32.4616 44.1867 31.2483 43.8133 30.5016 43.16ZM44.7816 30.56C44.1283 30.4667 43.3816 30.84 42.5416 31.68C41.7016 32.4267 40.9549 33.3133 40.3016 34.34C39.7416 35.3667 39.3683 36.44 39.1816 37.56C38.9949 38.5867 39.2749 39.3333 40.0216 39.8C40.7683 39.1467 41.5149 38.3533 42.2616 37.42C43.0083 36.3933 43.6149 35.4133 44.0816 34.48C44.6416 33.4533 44.9683 32.5667 45.0616 31.82C45.2483 31.0733 45.1549 30.6533 44.7816 30.56Z" fill="black"/>
<path d="M3.6205 44.56C2.7805 44.3733 1.98716 44 1.2405 43.44C0.587165 42.7867 0.260498 41.9467 0.260498 40.92C0.260498 40.36 0.353831 39.7533 0.540498 39.1C0.820498 38.4467 1.1005 37.7467 1.3805 37L1.9405 36.44V36.16C1.47383 35.6933 1.56716 35.32 2.2205 35.04L3.3405 34.48L4.1805 33.08C6.1405 30.4667 8.75383 27.48 12.0205 24.12C15.3805 20.6667 18.8805 17.4 22.5205 14.32C26.1605 11.1467 29.7538 8.34667 33.3005 5.92C36.9405 3.4 40.0205 1.72001 42.5405 0.880005H43.3805C44.3138 0.880005 44.7805 1.25334 44.7805 2.00001C44.5938 3.02667 43.8005 4.33334 42.4005 5.92C41.0005 7.50667 39.0872 9.37334 36.6605 11.52C35.4472 12.5467 33.6272 14.04 31.2005 16C28.7738 17.96 26.1138 20.06 23.2205 22.3C20.4205 24.54 17.5272 26.7333 14.5405 28.88C11.6472 31.0267 9.12716 32.8 6.9805 34.2L4.4605 35.6L4.1805 36.16C3.6205 37 3.15383 37.84 2.7805 38.68C2.40716 39.4267 2.2205 40.1733 2.2205 40.92C2.2205 42.04 2.87383 42.74 4.1805 43.02C5.48716 43.3 7.1205 43.3467 9.0805 43.16C11.1338 42.88 13.3272 42.4133 15.6605 41.76C18.0872 41.1067 20.4205 40.4067 22.6605 39.66C24.9005 38.82 26.9072 37.98 28.6805 37.14C30.4538 36.3 31.7138 35.6 32.4605 35.04C33.0205 34.5733 33.4872 34.5733 33.8605 35.04C34.2338 35.5067 34.1405 35.9733 33.5805 36.44C32.4605 37.3733 30.5938 38.4467 27.9805 39.66C25.4605 40.78 22.6605 41.8067 19.5805 42.74C16.5938 43.6733 13.6072 44.3733 10.6205 44.84C7.72717 45.2133 5.39383 45.12 3.6205 44.56ZM35.2605 10.12C36.6605 9 37.7805 8.02 38.6205 7.18C39.5538 6.24667 40.3938 5.36 41.1405 4.52L41.9805 3.68L42.5405 2.84L41.7005 3.12001C38.4338 4.61334 35.1205 6.62001 31.7605 9.14C28.4005 11.5667 25.1805 14.1333 22.1005 16.84C19.0205 19.5467 16.2205 22.2067 13.7005 24.82C11.1805 27.4333 9.12717 29.6267 7.5405 31.4L9.5005 30C11.1805 28.88 13.2805 27.3867 15.8005 25.52C18.3205 23.56 20.8405 21.6 23.3605 19.64C25.9738 17.68 28.3538 15.8133 30.5005 14.04C32.6472 12.2667 34.2338 10.96 35.2605 10.12Z" fill="black"/>
</svg>
