<svg width="499" height="86" viewBox="0 0 499 86" fill="none" xmlns="http://www.w3.org/2000/svg">
<path d="M457.04 79.1198C456 78.2398 455.84 76.7998 456.56 74.7998C457.04 73.5998 457.84 72.4398 458.96 71.3198C460.08 70.1198 461.44 68.9598 463.04 67.8398C464.56 66.7198 466.24 65.6398 468.08 64.5998C469.92 63.4798 471.84 62.3998 473.84 61.3598L477.92 59.4398L478.64 58.4798L480.32 54.3998L480.56 53.6798L479.36 54.6398C478.16 55.5998 476.96 56.2798 475.76 56.6798C474.56 57.0798 473.52 56.9598 472.64 56.3198V56.0798C471.92 55.3598 471.68 54.2398 471.92 52.7198L472.4 51.7598L469.76 53.4398C469.04 53.6798 468.56 53.5998 468.32 53.1998C468.16 52.7998 468.32 52.4798 468.8 52.2398C469.68 51.8398 470.56 51.3598 471.44 50.7998C472.4 50.1598 473.12 49.5998 473.6 49.1198L473.84 48.8798C474.48 48.2398 475.04 48.0798 475.52 48.3998C476 48.7198 475.92 49.1998 475.28 49.8398H475.04L474.8 50.3198C473.44 52.6398 473.04 54.0798 473.6 54.6398V54.8798L473.84 55.1198C474.72 55.3598 475.92 55.0398 477.44 54.1598C479.04 53.1998 480.4 51.9998 481.52 50.5598V50.3198C481.36 50.4798 481.36 50.4398 481.52 50.1998C481.76 49.9598 482.08 49.9198 482.48 50.0798C482.56 50.1598 482.6 50.2398 482.6 50.3198C482.68 50.3998 482.76 50.4798 482.84 50.5598C482.92 50.6398 482.96 50.7198 482.96 50.7998C482.96 51.2798 482.72 52.1198 482.24 53.3198C481.84 54.5198 481.28 55.9198 480.56 57.5198L480.32 58.4798L483.2 57.2798C485.76 56.0798 488.24 54.9198 490.64 53.7998C493.12 52.6798 495.2 51.6798 496.88 50.7998C497.52 50.4798 497.84 50.4798 497.84 50.7998C498.08 51.3598 498.08 51.7598 497.84 51.9998C495.92 53.1198 493.44 54.3598 490.4 55.7198C487.36 57.0798 484.32 58.4798 481.28 59.9198L479.12 60.6398L478.64 62.3198C477.68 63.9198 476.68 65.5598 475.64 67.2398C474.68 68.9198 473.52 70.5598 472.16 72.1598C470.56 74.2398 468.76 75.9598 466.76 77.3198C464.84 78.5998 463.04 79.3598 461.36 79.5998C460.48 79.8398 459.68 79.9598 458.96 79.9598C458.16 79.8798 457.52 79.5998 457.04 79.1198ZM461.12 78.1598C462.56 77.9198 464.2 77.1998 466.04 75.9998C467.88 74.7198 469.52 73.1198 470.96 71.1998C471.84 70.0798 472.6 69.0398 473.24 68.0798C473.88 67.0398 474.56 65.9198 475.28 64.7198L476.72 61.8398L475.04 62.7998C471.04 64.7198 467.48 66.7598 464.36 68.9198C461.16 70.9998 459.12 73.1198 458.24 75.2798C457.84 76.1598 457.68 76.7998 457.76 77.1998C457.84 77.5198 458 77.7598 458.24 77.9198C458.56 78.5598 459.52 78.6398 461.12 78.1598Z" fill="black"/>
<path d="M445.035 58.9598C444.075 58.3998 443.716 57.5598 443.956 56.4398C444.196 55.2398 444.795 54.1198 445.755 53.0798C446.715 51.9598 447.915 50.9998 449.355 50.1998C450.795 49.3198 452.236 48.8798 453.676 48.8798C454.636 48.8798 455.475 49.0798 456.195 49.4798C456.995 49.8798 457.515 50.3198 457.755 50.7998C457.915 51.0398 457.836 51.2798 457.516 51.5198C457.276 51.6798 457.036 51.6798 456.796 51.5198C456.396 51.2798 455.995 51.0398 455.595 50.7998C455.275 50.4798 454.636 50.3198 453.676 50.3198C452.716 50.3198 451.676 50.6398 450.556 51.2798C449.436 51.9198 448.436 52.6798 447.556 53.5598C446.756 54.3598 446.155 55.1598 445.755 55.9598C445.435 56.6798 445.516 57.1998 445.996 57.5198C446.716 57.6798 447.675 57.5198 448.875 57.0398C450.075 56.4798 451.315 55.8398 452.595 55.1198C453.955 54.3198 455.235 53.4798 456.435 52.5998C457.715 51.7198 458.796 50.9598 459.676 50.3198C460.476 49.6798 460.996 49.5998 461.236 50.0798C461.556 50.5598 461.516 50.9598 461.116 51.2798C460.076 51.9998 459.356 52.9198 458.956 54.0398C458.636 55.0798 458.755 55.7198 459.315 55.9598C459.875 56.1998 460.796 56.0798 462.076 55.5998C463.356 55.0398 464.675 54.3998 466.035 53.6798C467.395 52.9598 468.675 52.2398 469.875 51.5198C471.075 50.7998 471.835 50.3198 472.155 50.0798C472.635 49.8398 472.996 49.9598 473.236 50.4398C473.556 50.9198 473.516 51.2798 473.116 51.5198C472.556 51.8398 471.675 52.3998 470.475 53.1998C469.275 53.9198 467.956 54.6398 466.516 55.3598C465.156 56.0798 463.755 56.6798 462.315 57.1598C460.955 57.6398 459.836 57.7598 458.956 57.5198C458.076 57.2798 457.516 56.7598 457.276 55.9598C457.116 55.1598 457.235 54.3998 457.635 53.6798C456.755 54.3198 455.716 55.0398 454.516 55.8398C453.316 56.5598 452.076 57.1998 450.796 57.7598C449.516 58.3198 448.355 58.7598 447.315 59.0798C446.275 59.3198 445.515 59.2798 445.035 58.9598Z" fill="black"/>
<path d="M420.789 59.6798C420.149 59.3598 419.789 58.9198 419.709 58.3598C419.629 57.7198 419.709 57.0798 419.949 56.4398C420.189 55.7198 420.549 55.0398 421.029 54.3998C421.509 53.7598 421.989 53.1998 422.469 52.7198C423.429 51.5198 424.589 50.4398 425.949 49.4798C427.309 48.4398 428.549 47.9198 429.669 47.9198C430.149 47.9198 430.669 47.9998 431.229 48.1598C431.789 48.3198 432.269 48.5998 432.669 48.9998C433.229 46.9198 434.269 44.6398 435.789 42.1598C437.309 39.6798 438.949 37.4398 440.709 35.4398C442.549 33.3598 444.349 31.7998 446.109 30.7598C447.949 29.7198 449.509 29.5998 450.789 30.3998C451.509 31.2798 451.549 32.4398 450.909 33.8798C450.349 35.3198 449.429 36.8398 448.149 38.4398C446.949 40.0398 445.509 41.6798 443.829 43.3598C442.229 45.0398 440.789 46.5598 439.509 47.9198C438.629 48.7998 437.709 49.6798 436.749 50.5598C435.789 51.3598 434.709 52.3198 433.509 53.4398V53.6798C433.509 54.3198 433.589 54.7198 433.749 54.8798C434.069 55.5198 434.709 55.9198 435.669 56.0798C436.629 56.1598 437.789 56.0398 439.149 55.7198C440.589 55.3198 442.149 54.7198 443.829 53.9198C445.509 53.0398 447.189 51.9998 448.869 50.7998C449.429 50.5598 449.829 50.5598 450.069 50.7998C450.389 51.3598 450.309 51.7598 449.829 51.9998C448.229 53.1998 446.469 54.3198 444.549 55.3598C442.709 56.3198 440.909 57.0398 439.149 57.5198C437.389 57.9198 435.829 57.9598 434.469 57.6398C433.189 57.2398 432.389 56.2398 432.069 54.6398C431.349 55.1198 430.469 55.7198 429.429 56.4398C428.469 57.1598 427.469 57.8398 426.429 58.4798C425.389 59.0398 424.389 59.4798 423.429 59.7998C422.469 60.1198 421.669 60.0798 421.029 59.6798H420.789ZM449.349 31.5998C448.309 31.2798 446.909 31.8398 445.149 33.2798C443.469 34.7198 441.789 36.5198 440.109 38.6798C438.509 40.8398 437.069 43.1198 435.789 45.5198C434.509 47.8398 433.749 49.7998 433.509 51.3998C434.389 50.6798 435.469 49.7198 436.749 48.5198C438.029 47.2398 439.349 45.8798 440.709 44.4398C442.069 42.9998 443.389 41.5598 444.669 40.1198C445.949 38.6798 447.029 37.3598 447.909 36.1598C448.789 34.9598 449.389 33.9598 449.709 33.1598C450.029 32.2798 449.909 31.7598 449.349 31.5998ZM432.069 51.0398V50.7998H431.829C431.669 50.7998 431.589 50.6398 431.589 50.3198C431.349 49.8398 430.709 49.5998 429.669 49.5998C428.949 49.4398 427.989 49.7998 426.789 50.6798C425.669 51.4798 424.629 52.4798 423.669 53.6798C421.669 55.9198 420.949 57.4398 421.509 58.2398L421.749 58.4798C421.989 58.6398 422.549 58.5198 423.429 58.1198C424.309 57.7198 425.269 57.2398 426.309 56.6798C427.349 56.0398 428.349 55.3598 429.309 54.6398C430.349 53.9198 431.189 53.2798 431.829 52.7198L432.069 51.0398Z" fill="black"/>
<path d="M353.573 55.5998C353.093 54.6398 352.973 53.7198 353.213 52.8398C353.453 51.8798 353.893 50.9998 354.533 50.1998C355.173 49.3998 355.933 48.7198 356.813 48.1598C357.773 47.5998 358.693 47.1998 359.573 46.9598C360.213 46.7998 360.773 46.7598 361.253 46.8398C361.813 46.8398 362.293 47.0398 362.693 47.4398C363.013 47.7598 363.173 48.0798 363.173 48.3998C363.253 49.0398 362.933 49.7198 362.213 50.4398C361.573 51.0798 360.773 51.7198 359.813 52.3598C358.933 52.9198 357.973 53.3998 356.933 53.7998C355.973 54.1998 355.253 54.4798 354.773 54.6398C355.333 56.0798 356.493 57.1198 358.253 57.7598C360.013 58.3198 362.093 58.5998 364.493 58.5998C366.973 58.5998 369.653 58.3598 372.533 57.8798C375.493 57.3198 378.413 56.6398 381.293 55.8398C384.173 55.0398 386.893 54.1198 389.453 53.0798C392.013 52.0398 394.213 50.9598 396.053 49.8398C396.533 49.4398 396.933 49.4398 397.253 49.8398C397.573 50.2398 397.493 50.5598 397.013 50.7998C395.573 51.8398 393.573 52.9198 391.013 54.0398C388.533 55.1598 385.813 56.1998 382.853 57.1598C379.893 58.0398 376.813 58.7598 373.613 59.3198C370.493 59.8798 367.573 60.1998 364.853 60.2798C362.133 60.2798 359.733 59.9198 357.653 59.1998C355.653 58.4798 354.293 57.2798 353.573 55.5998ZM361.493 48.6398C361.493 48.3198 361.093 48.2398 360.293 48.3998C359.173 48.6398 358.053 49.1998 356.933 50.0798C355.813 50.9598 355.093 52.0398 354.773 53.3198C354.933 53.2398 355.373 53.0398 356.093 52.7198C356.813 52.3198 357.573 51.9198 358.373 51.5198C359.173 51.0398 359.893 50.5598 360.533 50.0798C361.173 49.5198 361.493 49.0398 361.493 48.6398Z" fill="black"/>
<path d="M340.845 44.0798C340.125 44.5598 339.405 45.0398 338.685 45.5198C337.485 46.2398 335.965 47.2798 334.125 48.6398L330.765 54.6398C331.405 54.0798 332.405 53.3998 333.765 52.5998C335.125 51.7998 336.565 51.0398 338.085 50.3198C339.605 49.5198 341.045 48.8798 342.405 48.3998C343.845 47.8398 345.005 47.5998 345.885 47.6798C347.245 47.6798 348.045 48.3198 348.285 49.5998C348.365 50.3198 347.965 51.1998 347.085 52.2398C346.285 53.2798 345.565 54.2398 344.925 55.1198C344.365 55.9198 344.125 56.4798 344.205 56.7998C344.365 57.1198 345.405 56.8798 347.325 56.0798C348.125 55.7598 349.085 55.3598 350.205 54.8798C351.325 54.3198 352.485 53.7598 353.685 53.1998C354.965 52.6398 356.205 52.0798 357.405 51.5198C358.605 50.9598 359.645 50.3998 360.525 49.8398C361.005 49.5998 361.365 49.7198 361.605 50.1998C361.925 50.5998 361.885 50.8798 361.485 51.0398C361.005 51.3598 360.205 51.8398 359.085 52.4798C358.045 53.1198 356.845 53.7998 355.485 54.5198C354.205 55.1598 352.805 55.7998 351.285 56.4398C349.845 57.0798 348.485 57.5998 347.205 57.9998C346.005 58.3998 344.925 58.5998 343.965 58.5998C343.085 58.5998 342.525 58.3198 342.285 57.7598C342.045 57.2798 342.085 56.6798 342.405 55.9598C342.805 55.2398 343.285 54.5198 343.845 53.7998C344.485 53.0798 345.045 52.3598 345.525 51.6398C346.085 50.9198 346.445 50.3198 346.605 49.8398C346.525 49.2798 345.845 49.1598 344.565 49.4798C343.285 49.7998 341.725 50.3998 339.885 51.2798C338.125 52.0798 336.245 53.0798 334.245 54.2798C332.325 55.3998 330.685 56.5598 329.325 57.7598C329.085 58.1598 328.765 58.2398 328.365 57.9998C328.045 57.7598 327.965 57.4398 328.125 57.0398C328.365 56.0798 328.725 55.0398 329.205 53.9198C329.685 52.7998 330.285 51.6798 331.005 50.5598L328.125 52.2398C327.565 52.5598 327.165 52.4798 326.925 51.9998C326.765 51.8398 326.725 51.6398 326.805 51.3998C326.965 51.1598 327.165 50.9598 327.405 50.7998C328.285 50.3198 329.125 49.7998 329.925 49.2398C330.805 48.6798 331.725 48.0798 332.685 47.4398C334.045 45.2798 335.565 43.1598 337.245 41.0798C339.005 38.9998 340.845 37.0398 342.765 35.1998C344.205 33.8398 345.605 32.6798 346.965 31.7198C348.325 30.7598 349.565 29.9198 350.685 29.1998C351.805 28.5598 352.885 28.0798 353.925 27.7598C354.965 27.4398 355.805 27.5198 356.445 27.9998C357.645 28.8798 357.085 30.7198 354.765 33.5198C352.525 36.2398 347.885 39.7598 340.845 44.0798ZM355.485 28.9598C355.325 28.7998 354.925 28.8398 354.285 29.0798C353.725 29.2398 352.765 29.7598 351.405 30.6398C347.885 32.7998 344.765 35.2798 342.045 38.0798C339.405 40.7998 337.405 43.1998 336.045 45.2798L339.165 43.3598C340.685 42.3198 342.445 41.1198 344.445 39.7598C346.525 38.3198 348.445 36.8798 350.205 35.4398C351.965 33.9998 353.365 32.7198 354.405 31.5998C355.525 30.3998 355.885 29.5198 355.485 28.9598Z" fill="black"/>
<path d="M298.847 40.4798C298.687 40.4798 298.327 40.5598 297.767 40.7198C297.207 40.8798 296.927 40.7198 296.927 40.2398C296.847 39.8398 296.967 39.5598 297.287 39.3998C297.447 39.3198 297.647 39.2798 297.887 39.2798C300.047 38.7998 302.607 38.3598 305.567 37.9598C308.527 37.4798 311.647 37.0398 314.927 36.6398C317.967 34.2398 320.607 32.3198 322.847 30.8798C325.087 29.4398 326.687 28.4798 327.647 27.9998C328.127 27.7598 328.567 27.7998 328.967 28.1198C329.447 28.4398 329.167 28.8798 328.127 29.4398C327.007 29.9198 325.527 30.7598 323.687 31.9598C321.927 33.0798 319.967 34.5598 317.807 36.3998C320.367 36.1598 322.887 35.9998 325.367 35.9198C327.927 35.7598 330.287 35.6798 332.447 35.6798C332.607 35.6798 332.807 35.7198 333.047 35.7998C333.447 36.0398 333.647 36.3198 333.647 36.6398C333.567 37.0398 333.207 37.2398 332.567 37.2398C332.247 37.2398 331.967 37.1998 331.727 37.1198C328.847 37.2798 326.047 37.4398 323.327 37.5998C320.687 37.6798 318.047 37.9198 315.407 38.3198C314.447 38.9598 313.527 39.6798 312.647 40.4798C311.847 41.1998 311.007 41.9998 310.127 42.8798C308.047 44.8798 306.407 46.5998 305.207 48.0398C304.007 49.4798 303.087 50.6798 302.447 51.6398C301.887 52.5998 301.527 53.3998 301.367 54.0398C301.287 54.5998 301.247 55.0398 301.247 55.3598C301.327 56.3198 302.007 56.9198 303.287 57.1598C304.567 57.3198 306.127 57.2798 307.967 57.0398C309.887 56.7198 311.967 56.2398 314.207 55.5998C316.527 54.9598 318.727 54.2798 320.807 53.5598C322.887 52.7598 324.727 51.9998 326.327 51.2798C328.007 50.4798 329.167 49.8398 329.807 49.3598C330.447 48.9598 330.927 48.9598 331.247 49.3598C331.567 49.7598 331.407 50.1598 330.767 50.5598C329.807 51.3598 328.087 52.3198 325.607 53.4398C323.127 54.4798 320.447 55.4798 317.567 56.4398C314.687 57.3198 311.847 57.9998 309.047 58.4798C306.327 58.9598 304.207 58.9598 302.687 58.4798C301.807 58.3198 301.047 57.9998 300.407 57.5198C299.847 56.9598 299.567 56.2398 299.567 55.3598C299.647 54.2398 300.007 53.0798 300.647 51.8798C301.287 50.5998 302.087 49.3598 303.047 48.1598C304.007 46.9598 305.007 45.8398 306.047 44.7998C307.087 43.6798 308.047 42.7198 308.927 41.9198C309.647 41.2798 310.287 40.6398 310.847 39.9998C311.407 39.3598 312.047 38.7998 312.767 38.3198C310.127 38.7198 307.607 39.0798 305.207 39.3998C302.887 39.7198 300.767 40.0798 298.847 40.4798Z" fill="black"/>
<path d="M237.156 68.5598C238.836 66.2398 240.676 63.8798 242.676 61.4798C244.756 59.0798 246.836 56.4798 248.916 53.6798C248.436 52.7198 248.396 51.9998 248.796 51.5198C249.276 50.9598 250.196 50.7998 251.556 51.0398C252.436 49.9198 253.436 48.5198 254.556 46.8398C255.756 45.0798 256.916 43.5998 258.036 42.3998C255.396 43.9998 252.596 45.6798 249.636 47.4398C246.676 49.1198 243.556 50.8798 240.276 52.7198C239.716 52.9598 239.316 52.9598 239.076 52.7198C238.916 52.4798 238.876 52.2798 238.956 52.1198C239.036 51.8798 239.156 51.6798 239.316 51.5198C243.316 49.1998 247.076 47.0398 250.596 45.0398C254.196 43.0398 257.396 41.1198 260.196 39.2798L261.396 38.5598L262.116 38.0798L263.796 36.1598C265.396 34.3198 267.116 32.5198 268.956 30.7598C270.796 28.9198 272.276 27.9198 273.396 27.7598C273.716 27.7598 273.956 27.8398 274.116 27.9998C274.916 28.5598 275.196 29.2398 274.956 30.0398C274.716 30.7598 274.156 31.5598 273.276 32.4398C272.476 33.2398 271.396 34.0798 270.036 34.9598C268.756 35.7598 267.476 36.5598 266.196 37.3598L263.796 39.2798L262.356 39.9998L261.396 40.9598L253.476 50.7998L252.756 51.7598C253.476 52.2398 254.116 52.7198 254.676 53.1998C255.236 53.6798 255.716 54.2398 256.116 54.8798C258.516 54.8798 261.076 54.4398 263.796 53.5598C266.596 52.5998 269.076 51.4398 271.236 50.0798C271.716 49.8398 272.036 49.9198 272.196 50.3198C272.676 50.7998 272.596 51.1998 271.956 51.5198C269.636 52.8798 267.116 54.0398 264.396 54.9998C261.756 55.8798 259.236 56.3198 256.836 56.3198C257.636 58.1598 257.836 60.1598 257.436 62.3198C257.036 64.4798 256.196 66.6398 254.916 68.7998C253.716 70.8798 252.156 72.9198 250.236 74.9198C248.396 76.9198 246.476 78.6798 244.476 80.1998C242.476 81.7198 240.476 82.9198 238.476 83.7998C236.476 84.7598 234.756 85.1998 233.316 85.1198C232.196 85.0398 231.356 84.6798 230.796 84.0398C230.156 83.4798 229.956 82.5598 230.196 81.2798C230.356 79.9198 230.996 78.1998 232.116 76.1198C233.156 74.0398 234.836 71.5198 237.156 68.5598ZM250.116 54.6398C248.196 57.0398 246.196 59.5198 244.116 62.0798C242.116 64.5598 240.276 66.8798 238.596 69.0398C235.236 73.5998 233.116 77.0398 232.236 79.3598C231.356 81.6798 231.476 83.0398 232.596 83.4398C233.636 83.7598 235.036 83.5598 236.796 82.8398C238.636 82.1198 240.556 81.0398 242.556 79.5998C244.556 78.1598 246.516 76.4798 248.436 74.5598C250.356 72.6398 251.996 70.6398 253.356 68.5598C254.716 66.3998 255.596 64.2798 255.996 62.1998C256.396 60.0398 256.116 58.0798 255.156 56.3198C254.196 56.3198 253.276 56.1598 252.396 55.8398C251.596 55.5198 250.836 55.1198 250.116 54.6398ZM272.196 31.1198C272.836 30.4798 273.196 30.0798 273.276 29.9198L273.396 29.6798V29.4398L273.156 29.6798C272.756 29.6798 272.116 30.0798 271.236 30.8798C270.356 31.6798 268.996 33.0398 267.156 34.9598L266.436 35.4398L267.636 34.7198C268.756 34.0798 269.676 33.4398 270.396 32.7998C271.116 32.1598 271.716 31.5998 272.196 31.1198ZM250.836 53.6798C251.316 53.9198 251.796 54.1598 252.276 54.3998C252.756 54.5598 253.316 54.6398 253.956 54.6398C253.556 54.2398 253.196 53.9198 252.876 53.6798C252.636 53.4398 252.276 53.1198 251.796 52.7198L250.836 53.6798Z" fill="black"/>
<path d="M216.998 57.2798C216.038 56.4798 215.638 55.5598 215.798 54.5198C215.958 53.3998 216.438 52.3598 217.238 51.3998C218.038 50.3598 218.998 49.4398 220.118 48.6398C221.238 47.8398 222.238 47.2798 223.118 46.9598C223.278 46.8798 223.518 46.8398 223.838 46.8398C224.238 46.8398 224.438 46.9598 224.438 47.1998C224.598 47.5198 224.518 47.8398 224.198 48.1598C223.558 48.7198 222.718 49.3998 221.678 50.1998C220.718 50.9198 219.758 51.5998 218.798 52.2398C217.838 53.4398 217.518 54.5198 217.838 55.4798C218.078 56.1998 218.798 56.5598 219.998 56.5598C221.198 56.5598 222.518 56.1998 223.958 55.4798C223.078 54.6798 222.678 53.6798 222.758 52.4798C222.918 51.2798 223.318 50.1198 223.958 48.9998C224.678 47.8798 225.558 46.9198 226.598 46.1198C227.638 45.3198 228.598 44.9598 229.478 45.0398C229.718 45.0398 229.918 45.0798 230.078 45.1598C230.238 45.1598 230.438 45.2798 230.678 45.5198C231.158 46.1598 231.278 46.9598 231.038 47.9198C230.878 48.8798 230.518 49.8398 229.958 50.7998C229.478 51.7598 228.918 52.6398 228.278 53.4398C227.638 54.2398 227.158 54.7198 226.838 54.8798C227.638 55.0398 228.718 54.9598 230.078 54.6398C231.518 54.2398 232.958 53.7998 234.398 53.3198C235.918 52.7598 237.358 52.1598 238.718 51.5198C240.078 50.8798 241.078 50.3198 241.718 49.8398C242.358 49.8398 242.678 49.9998 242.678 50.3198C242.838 50.6398 242.758 50.9598 242.438 51.2798C241.638 51.8398 240.518 52.4798 239.078 53.1998C237.638 53.8398 236.078 54.4398 234.398 54.9998C232.798 55.5598 231.158 55.9998 229.478 56.3198C227.878 56.5598 226.518 56.5598 225.398 56.3198C223.318 57.6798 221.558 58.3198 220.118 58.2398C218.678 58.1598 217.638 57.8398 216.998 57.2798ZM229.238 46.4798C228.678 46.3998 228.038 46.7198 227.318 47.4398C226.598 48.0798 225.958 48.8398 225.398 49.7198C224.918 50.5998 224.598 51.5198 224.438 52.4798C224.278 53.3598 224.518 53.9998 225.158 54.3998C225.798 53.8398 226.438 53.1598 227.078 52.3598C227.718 51.4798 228.238 50.6398 228.638 49.8398C229.118 48.9598 229.398 48.1998 229.478 47.5598C229.638 46.9198 229.558 46.5598 229.238 46.4798Z" fill="black"/>
<path d="M170.931 50.1998C170.051 50.4398 169.091 50.3998 168.051 50.0798C167.011 49.6798 166.171 49.1598 165.531 48.5198C165.291 48.6798 164.891 48.9998 164.331 49.4798C163.771 49.8798 163.171 50.2798 162.531 50.6798C161.891 51.0798 161.291 51.3998 160.731 51.6398C160.171 51.8798 159.811 51.9198 159.651 51.7598C159.411 51.7598 159.291 51.5998 159.291 51.2798C159.371 50.9598 159.491 50.7998 159.651 50.7998C160.291 50.3198 161.131 49.7198 162.171 48.9998C163.291 48.1998 164.171 47.5598 164.811 47.0798C164.971 45.8798 165.411 45.2398 166.131 45.1598C166.851 45.0798 167.291 45.2398 167.451 45.6398C167.531 45.7998 167.531 46.0398 167.451 46.3598C167.371 46.5998 167.091 46.9598 166.611 47.4398C166.851 47.8398 167.371 48.2398 168.171 48.6398C169.051 48.9598 170.051 48.9598 171.171 48.6398C172.131 48.3998 172.611 48.4798 172.611 48.8798C172.691 51.2798 173.651 53.2398 175.491 54.7598C177.411 56.2798 179.771 57.2798 182.571 57.7598C185.371 58.2398 188.411 58.1998 191.691 57.6398C195.051 56.9998 198.211 55.7598 201.171 53.9198C201.731 53.5998 202.131 53.6798 202.371 54.1598C202.611 54.6398 202.451 55.0398 201.891 55.3598C199.331 57.0398 196.371 58.2398 193.011 58.9598C189.651 59.6798 186.411 59.8398 183.291 59.4398C180.251 59.0398 177.571 58.1198 175.251 56.6798C172.931 55.1598 171.491 52.9998 170.931 50.1998Z" fill="black"/>
<path d="M135.281 51.2798C135.761 50.0798 136.561 49.0398 137.681 48.1598C138.801 47.2798 139.921 46.7198 141.041 46.4798C141.921 46.3198 142.761 46.3598 143.561 46.5998C144.361 46.7598 144.801 47.1998 144.881 47.9198C144.961 48.6398 144.641 49.3598 143.921 50.0798C143.281 50.7198 142.441 51.3198 141.401 51.8798C140.441 52.4398 139.481 52.9198 138.521 53.3198C137.561 53.7198 136.921 53.9598 136.601 54.0398C137.001 55.1598 137.841 55.9998 139.121 56.5598C140.401 57.1198 141.881 57.2798 143.561 57.0398C146.601 56.6398 149.601 55.7998 152.561 54.5198C155.521 53.1598 158.081 51.7598 160.241 50.3198C160.721 49.9198 161.121 49.9198 161.441 50.3198C161.761 50.7198 161.681 51.1198 161.201 51.5198C160.081 52.3198 158.721 53.1598 157.121 54.0398C155.601 54.8398 153.961 55.5998 152.201 56.3198C150.521 56.9598 148.761 57.5198 146.921 57.9998C145.161 58.3998 143.441 58.5998 141.761 58.5998C140.641 58.5998 139.601 58.4398 138.641 58.1198C137.681 57.7198 136.841 57.1998 136.121 56.5598C135.481 55.9198 135.041 55.1598 134.801 54.2798C134.641 53.3998 134.801 52.3998 135.281 51.2798ZM143.201 47.9198C141.761 47.5998 140.361 48.0398 139.001 49.2398C137.641 50.3598 136.761 51.5598 136.361 52.8398C136.681 52.6798 137.201 52.4398 137.921 52.1198C138.641 51.7198 139.401 51.3198 140.201 50.9198C141.001 50.4398 141.681 49.9598 142.241 49.4798C142.881 48.9198 143.201 48.3998 143.201 47.9198Z" fill="black"/>
<path d="M112.234 59.6798C111.594 59.3598 111.234 58.9198 111.154 58.3598C111.074 57.7198 111.154 57.0798 111.394 56.4398C111.634 55.7198 111.994 55.0398 112.474 54.3998C112.954 53.7598 113.434 53.1998 113.914 52.7198C114.874 51.5198 116.034 50.4398 117.394 49.4798C118.754 48.4398 119.994 47.9198 121.114 47.9198C121.594 47.9198 122.114 47.9998 122.674 48.1598C123.234 48.3198 123.714 48.5998 124.114 48.9998C124.674 46.9198 125.714 44.6398 127.234 42.1598C128.754 39.6798 130.394 37.4398 132.154 35.4398C133.994 33.3598 135.794 31.7998 137.554 30.7598C139.394 29.7198 140.954 29.5998 142.234 30.3998C142.954 31.2798 142.994 32.4398 142.354 33.8798C141.794 35.3198 140.874 36.8398 139.594 38.4398C138.394 40.0398 136.954 41.6798 135.274 43.3598C133.674 45.0398 132.234 46.5598 130.954 47.9198C130.074 48.7998 129.154 49.6798 128.194 50.5598C127.234 51.3598 126.154 52.3198 124.954 53.4398V53.6798C124.954 54.3198 125.034 54.7198 125.194 54.8798C125.514 55.5198 126.154 55.9198 127.114 56.0798C128.074 56.1598 129.234 56.0398 130.594 55.7198C132.034 55.3198 133.594 54.7198 135.274 53.9198C136.954 53.0398 138.634 51.9998 140.314 50.7998C140.874 50.5598 141.274 50.5598 141.514 50.7998C141.834 51.3598 141.754 51.7598 141.274 51.9998C139.674 53.1998 137.914 54.3198 135.994 55.3598C134.154 56.3198 132.354 57.0398 130.594 57.5198C128.834 57.9198 127.274 57.9598 125.914 57.6398C124.634 57.2398 123.834 56.2398 123.514 54.6398C122.794 55.1198 121.914 55.7198 120.874 56.4398C119.914 57.1598 118.914 57.8398 117.874 58.4798C116.834 59.0398 115.834 59.4798 114.874 59.7998C113.914 60.1198 113.114 60.0798 112.474 59.6798H112.234ZM140.794 31.5998C139.754 31.2798 138.354 31.8398 136.594 33.2798C134.914 34.7198 133.234 36.5198 131.554 38.6798C129.954 40.8398 128.514 43.1198 127.234 45.5198C125.954 47.8398 125.194 49.7998 124.954 51.3998C125.834 50.6798 126.914 49.7198 128.194 48.5198C129.474 47.2398 130.794 45.8798 132.154 44.4398C133.514 42.9998 134.834 41.5598 136.114 40.1198C137.394 38.6798 138.474 37.3598 139.354 36.1598C140.234 34.9598 140.834 33.9598 141.154 33.1598C141.474 32.2798 141.354 31.7598 140.794 31.5998ZM123.514 51.0398V50.7998H123.274C123.114 50.7998 123.034 50.6398 123.034 50.3198C122.794 49.8398 122.154 49.5998 121.114 49.5998C120.394 49.4398 119.434 49.7998 118.234 50.6798C117.114 51.4798 116.074 52.4798 115.114 53.6798C113.114 55.9198 112.394 57.4398 112.954 58.2398L113.194 58.4798C113.434 58.6398 113.994 58.5198 114.874 58.1198C115.754 57.7198 116.714 57.2398 117.754 56.6798C118.794 56.0398 119.794 55.3598 120.754 54.6398C121.794 53.9198 122.634 53.2798 123.274 52.7198L123.514 51.0398Z" fill="black"/>
<path d="M93.7735 58.4798C93.1335 57.5198 93.1735 56.3998 93.8935 55.1198C94.6135 53.7598 95.5335 52.4798 96.6535 51.2798V51.0398C96.1735 50.3198 95.8535 49.7198 95.6935 49.2398C95.6135 48.7598 95.4535 48.1598 95.2135 47.4398C93.0535 48.8798 91.3335 49.9998 90.0535 50.7998C88.7735 51.5998 87.7735 52.2398 87.0535 52.7198C86.4135 52.7198 86.0935 52.6398 86.0935 52.4798C85.9335 52.2398 85.8935 52.0398 85.9735 51.8798C86.0535 51.6398 86.1735 51.4398 86.3335 51.2798C86.7335 50.9598 87.1735 50.6798 87.6535 50.4398C88.1335 50.1198 88.6935 49.7598 89.3335 49.3598C90.0535 48.8798 90.8535 48.3598 91.7335 47.7998C92.6135 47.1598 93.6935 46.3998 94.9735 45.5198L95.2135 44.7998C95.4535 43.5198 96.0535 42.3198 97.0135 41.1998C97.9735 39.9998 99.0535 38.9998 100.253 38.1998C101.453 37.3198 102.653 36.6398 103.853 36.1598C105.133 35.6798 106.133 35.4798 106.853 35.5598C107.413 35.6398 107.613 36.0798 107.453 36.8798C107.293 37.5998 106.693 38.3998 105.653 39.2798C104.453 40.2398 103.493 41.0398 102.773 41.6798C102.053 42.2398 100.973 43.0398 99.5335 44.0798L96.6535 46.2398C96.6535 47.5198 97.2935 49.0398 98.5735 50.7998C98.8935 51.4398 98.8935 51.7598 98.5735 51.7598C97.8535 52.3998 97.0535 53.1998 96.1735 54.1598C95.3735 55.1198 94.9735 56.0798 94.9735 57.0398C95.0535 57.5998 95.4935 57.8798 96.2935 57.8798C97.1735 57.8798 98.2535 57.7198 99.5335 57.3998C100.813 56.9998 102.213 56.5198 103.733 55.9598C105.333 55.3998 106.893 54.7998 108.413 54.1598C109.933 53.4398 111.333 52.7998 112.613 52.2398C113.973 51.5998 115.053 51.0398 115.853 50.5598C116.253 50.3198 116.493 50.2798 116.573 50.4398C116.733 50.5198 116.893 50.6398 117.053 50.7998C117.213 50.9598 117.253 51.1598 117.173 51.3998C117.093 51.6398 116.973 51.7598 116.813 51.7598C115.773 52.3998 114.133 53.2798 111.893 54.3998C109.653 55.5198 107.293 56.5598 104.813 57.5198C102.413 58.3998 100.133 58.9998 97.9735 59.3198C95.8935 59.6398 94.4935 59.3598 93.7735 58.4798ZM105.893 37.1198C104.293 37.4398 102.573 38.2798 100.733 39.6398C98.9735 40.9998 97.7735 42.3998 97.1335 43.8398C97.9335 43.1198 98.6935 42.5198 99.4135 42.0398C100.133 41.4798 100.813 40.9598 101.453 40.4798C102.093 39.9198 102.773 39.3998 103.493 38.9198C104.213 38.3598 105.013 37.7598 105.893 37.1198Z" fill="black"/>
<path d="M5.22191 74.7998C2.42191 73.3598 0.901909 71.2398 0.661909 68.4398C0.341909 65.5598 0.981907 62.3198 2.58191 58.7198C4.10191 55.1198 6.34191 51.3198 9.30191 47.3198C12.3419 43.3198 15.7019 39.4398 19.3819 35.6798L21.5419 33.7598L22.0219 33.0398C23.6219 29.5998 25.7819 26.2398 28.5019 22.9598C31.3019 19.6798 34.3819 16.6398 37.7419 13.8398C41.1019 11.0398 44.6219 8.59977 48.3019 6.51977C51.9819 4.43977 55.5819 2.87977 59.1019 1.83977C62.6219 0.799764 65.9019 0.399765 68.9419 0.639766C71.9819 0.799764 74.5819 1.75976 76.7419 3.51977C78.6619 5.67977 79.4219 8.47977 79.0219 11.9198C78.7019 15.2798 77.5019 18.9998 75.4219 23.0798C73.4219 27.1598 70.7419 31.3998 67.3819 35.7998C64.1019 40.1198 60.5019 44.3198 56.5819 48.3998C55.4619 49.5198 54.3819 50.5598 53.3419 51.5198C52.3019 52.4798 51.2219 53.4398 50.1019 54.3998L43.8619 59.6798C51.8619 59.5998 59.7019 58.8398 67.3819 57.3998C75.0619 55.9598 82.5019 53.1998 89.7019 49.1198C90.1819 48.8798 90.5819 49.0398 90.9019 49.5998C91.1419 50.0798 90.9819 50.4798 90.4219 50.7998C86.9019 52.9598 82.8619 54.7998 78.3019 56.3198C73.7419 57.7598 69.1819 58.8798 64.6219 59.6798C60.1419 60.4798 55.8619 61.0398 51.7819 61.3598C47.7019 61.5998 44.3819 61.5998 41.8219 61.3598C38.5419 63.8398 35.2619 66.0798 31.9819 68.0798C28.7019 69.9998 25.5019 71.5998 22.3819 72.8798C19.2619 74.0798 16.2619 74.8798 13.3819 75.2798C10.5019 75.6798 7.86191 75.5198 5.46191 74.7998H5.22191ZM55.3819 47.1998C59.2219 43.2798 62.6619 39.3198 65.7019 35.3198C68.8219 31.3198 71.3419 27.5198 73.2619 23.9198C75.2619 20.2398 76.5419 16.8398 77.1019 13.7198C77.7419 10.5998 77.5419 7.99977 76.5019 5.91977L75.5419 4.71976L74.1019 3.51977C71.2219 1.91977 67.6219 1.51977 63.3019 2.31977C59.0619 3.11977 54.6619 4.75977 50.1019 7.23977C45.6219 9.71977 41.2619 12.7998 37.0219 16.4798C32.7819 20.1598 29.3019 24.0798 26.5819 28.2398L25.1419 30.1598H25.3819C28.9019 26.9598 32.5419 23.9598 36.3019 21.1598C40.1419 18.2798 43.9019 15.8398 47.5819 13.8398C51.2619 11.7598 54.7419 10.2398 58.0219 9.27977C61.3819 8.23977 64.3419 7.91977 66.9019 8.31977C67.2219 8.47976 67.3819 8.79977 67.3819 9.27977C67.3819 9.43977 67.3019 9.59977 67.1419 9.75977C67.0619 9.91977 66.8219 9.91977 66.4219 9.75977C64.1019 9.43977 61.3419 9.79977 58.1419 10.8398C55.0219 11.7998 51.7019 13.2798 48.1819 15.2798C44.6619 17.1998 41.0219 19.5598 37.2619 22.3598C33.5819 25.1598 30.0219 28.1598 26.5819 31.3598L22.9819 34.4798L22.5019 35.6798C21.1419 39.0398 20.5819 42.3598 20.8219 45.6398C21.0619 48.8398 22.3419 51.7598 24.6619 54.3998C25.8619 55.8398 27.6619 56.9598 30.0619 57.7598C32.4619 58.4798 35.3019 59.0398 38.5819 59.4398L41.4619 59.6798L42.4219 58.7198C46.9819 55.3598 51.3019 51.5198 55.3819 47.1998ZM39.5419 61.1198H38.1019C34.7419 60.7198 31.7819 60.0798 29.2219 59.1998C26.7419 58.2398 24.8219 56.9598 23.4619 55.3598C21.3019 52.9598 19.9819 50.2798 19.5019 47.3198C19.0219 44.3598 19.2219 41.3598 20.1019 38.3198L20.3419 37.3598L17.9419 39.7598C14.7419 43.2798 11.9419 46.7198 9.54191 50.0798C7.22191 53.3598 5.42191 56.4398 4.14191 59.3198C2.86191 62.1998 2.22191 64.7998 2.22191 67.1198C2.14191 69.3598 2.90191 71.1198 4.50191 72.3998L5.94191 73.3598C8.10191 73.9998 10.4619 74.1598 13.0219 73.8398C15.6619 73.4398 18.4219 72.7198 21.3019 71.6798C24.1819 70.5598 27.1419 69.1198 30.1819 67.3598C33.2219 65.5998 36.2619 63.5998 39.3019 61.3598L39.5419 61.1198Z" fill="black"/>
</svg>
