<svg width="284" height="136" viewBox="0 0 284 136" fill="none" xmlns="http://www.w3.org/2000/svg">
<path d="M242.032 129.12C240.992 128.24 240.832 126.8 241.552 124.8C242.032 123.6 242.832 122.44 243.952 121.32C245.072 120.12 246.432 118.96 248.032 117.84C249.552 116.72 251.232 115.64 253.072 114.6C254.912 113.48 256.832 112.4 258.832 111.36L262.912 109.44L263.632 108.48L265.312 104.4L265.552 103.68L264.352 104.64C263.152 105.6 261.952 106.28 260.752 106.68C259.552 107.08 258.512 106.96 257.632 106.32V106.08C256.912 105.36 256.672 104.24 256.912 102.72L257.392 101.76L254.752 103.44C254.032 103.68 253.552 103.6 253.312 103.2C253.152 102.8 253.312 102.48 253.792 102.24C254.672 101.84 255.552 101.36 256.432 100.8C257.392 100.16 258.112 99.5997 258.592 99.1197L258.832 98.8797C259.472 98.2397 260.032 98.0797 260.512 98.3997C260.992 98.7197 260.912 99.1997 260.272 99.8397H260.032L259.792 100.32C258.432 102.64 258.032 104.08 258.592 104.64V104.88L258.832 105.12C259.712 105.36 260.912 105.04 262.432 104.16C264.032 103.2 265.392 102 266.512 100.56V100.32C266.352 100.48 266.352 100.44 266.512 100.2C266.752 99.9597 267.072 99.9197 267.472 100.08C267.552 100.16 267.592 100.24 267.592 100.32C267.672 100.4 267.752 100.48 267.832 100.56C267.912 100.64 267.952 100.72 267.952 100.8C267.952 101.28 267.712 102.12 267.232 103.32C266.832 104.52 266.272 105.92 265.552 107.52L265.312 108.48L268.192 107.28C270.752 106.08 273.232 104.92 275.632 103.8C278.112 102.68 280.192 101.68 281.872 100.8C282.512 100.48 282.832 100.48 282.832 100.8C283.072 101.36 283.072 101.76 282.832 102C280.912 103.12 278.432 104.36 275.392 105.72C272.352 107.08 269.312 108.48 266.272 109.92L264.112 110.64L263.632 112.32C262.672 113.92 261.672 115.56 260.632 117.24C259.672 118.92 258.512 120.56 257.152 122.16C255.552 124.24 253.752 125.96 251.752 127.32C249.832 128.6 248.032 129.36 246.352 129.6C245.472 129.84 244.672 129.96 243.952 129.96C243.152 129.88 242.512 129.6 242.032 129.12ZM246.112 128.16C247.552 127.92 249.192 127.2 251.032 126C252.872 124.72 254.512 123.12 255.952 121.2C256.832 120.08 257.592 119.04 258.232 118.08C258.872 117.04 259.552 115.92 260.272 114.72L261.712 111.84L260.032 112.8C256.032 114.72 252.472 116.76 249.352 118.92C246.152 121 244.112 123.12 243.232 125.28C242.832 126.16 242.672 126.8 242.752 127.2C242.832 127.52 242.992 127.76 243.232 127.92C243.552 128.56 244.512 128.64 246.112 128.16Z" fill="black"/>
<path d="M230.028 108.96C229.068 108.4 228.708 107.56 228.948 106.44C229.188 105.24 229.788 104.12 230.748 103.08C231.708 101.96 232.908 101 234.348 100.2C235.788 99.3198 237.228 98.8798 238.668 98.8798C239.628 98.8798 240.468 99.0798 241.188 99.4798C241.988 99.8798 242.508 100.32 242.748 100.8C242.908 101.04 242.828 101.28 242.508 101.52C242.268 101.68 242.028 101.68 241.788 101.52C241.388 101.28 240.988 101.04 240.588 100.8C240.268 100.48 239.628 100.32 238.668 100.32C237.708 100.32 236.668 100.64 235.548 101.28C234.428 101.92 233.428 102.68 232.548 103.56C231.748 104.36 231.148 105.16 230.748 105.96C230.428 106.68 230.508 107.2 230.988 107.52C231.708 107.68 232.668 107.52 233.868 107.04C235.068 106.48 236.308 105.84 237.588 105.12C238.948 104.32 240.228 103.48 241.428 102.6C242.708 101.72 243.788 100.96 244.668 100.32C245.468 99.6798 245.988 99.5998 246.228 100.08C246.548 100.56 246.508 100.96 246.108 101.28C245.068 102 244.348 102.92 243.948 104.04C243.628 105.08 243.748 105.72 244.308 105.96C244.868 106.2 245.788 106.08 247.068 105.6C248.348 105.04 249.668 104.4 251.028 103.68C252.388 102.96 253.668 102.24 254.868 101.52C256.068 100.8 256.828 100.32 257.148 100.08C257.628 99.8398 257.988 99.9598 258.228 100.44C258.548 100.92 258.508 101.28 258.108 101.52C257.548 101.84 256.668 102.4 255.468 103.2C254.268 103.92 252.948 104.64 251.508 105.36C250.148 106.08 248.748 106.68 247.308 107.16C245.948 107.64 244.828 107.76 243.948 107.52C243.068 107.28 242.508 106.76 242.268 105.96C242.108 105.16 242.228 104.4 242.628 103.68C241.748 104.32 240.708 105.04 239.508 105.84C238.308 106.56 237.068 107.2 235.788 107.76C234.508 108.32 233.348 108.76 232.308 109.08C231.268 109.32 230.508 109.28 230.028 108.96Z" fill="black"/>
<path d="M205.781 109.68C205.141 109.36 204.781 108.92 204.701 108.36C204.621 107.72 204.701 107.08 204.941 106.44C205.181 105.72 205.541 105.04 206.021 104.4C206.501 103.76 206.981 103.2 207.461 102.72C208.421 101.52 209.581 100.44 210.941 99.4798C212.301 98.4398 213.541 97.9198 214.661 97.9198C215.141 97.9198 215.661 97.9998 216.221 98.1598C216.781 98.3198 217.261 98.5998 217.661 98.9998C218.221 96.9198 219.261 94.6398 220.781 92.1598C222.301 89.6798 223.941 87.4398 225.701 85.4398C227.541 83.3598 229.341 81.7998 231.101 80.7598C232.941 79.7198 234.501 79.5998 235.781 80.3998C236.501 81.2798 236.541 82.4398 235.901 83.8798C235.341 85.3198 234.421 86.8398 233.141 88.4398C231.941 90.0398 230.501 91.6798 228.821 93.3598C227.221 95.0398 225.781 96.5598 224.501 97.9198C223.621 98.7998 222.701 99.6798 221.741 100.56C220.781 101.36 219.701 102.32 218.501 103.44V103.68C218.501 104.32 218.581 104.72 218.741 104.88C219.061 105.52 219.701 105.92 220.661 106.08C221.621 106.16 222.781 106.04 224.141 105.72C225.581 105.32 227.141 104.72 228.821 103.92C230.501 103.04 232.181 102 233.861 100.8C234.421 100.56 234.821 100.56 235.061 100.8C235.381 101.36 235.301 101.76 234.821 102C233.221 103.2 231.461 104.32 229.541 105.36C227.701 106.32 225.901 107.04 224.141 107.52C222.381 107.92 220.821 107.96 219.461 107.64C218.181 107.24 217.381 106.24 217.061 104.64C216.341 105.12 215.461 105.72 214.421 106.44C213.461 107.16 212.461 107.84 211.421 108.48C210.381 109.04 209.381 109.48 208.421 109.8C207.461 110.12 206.661 110.08 206.021 109.68H205.781ZM234.341 81.5998C233.301 81.2798 231.901 81.8398 230.141 83.2798C228.461 84.7198 226.781 86.5198 225.101 88.6798C223.501 90.8398 222.061 93.1198 220.781 95.5198C219.501 97.8398 218.741 99.7998 218.501 101.4C219.381 100.68 220.461 99.7198 221.741 98.5198C223.021 97.2398 224.341 95.8798 225.701 94.4398C227.061 92.9998 228.381 91.5598 229.661 90.1198C230.941 88.6798 232.021 87.3598 232.901 86.1598C233.781 84.9598 234.381 83.9598 234.701 83.1598C235.021 82.2798 234.901 81.7598 234.341 81.5998ZM217.061 101.04V100.8H216.821C216.661 100.8 216.581 100.64 216.581 100.32C216.341 99.8398 215.701 99.5998 214.661 99.5998C213.941 99.4398 212.981 99.7998 211.781 100.68C210.661 101.48 209.621 102.48 208.661 103.68C206.661 105.92 205.941 107.44 206.501 108.24L206.741 108.48C206.981 108.64 207.541 108.52 208.421 108.12C209.301 107.72 210.261 107.24 211.301 106.68C212.341 106.04 213.341 105.36 214.301 104.64C215.341 103.92 216.181 103.28 216.821 102.72L217.061 101.04Z" fill="black"/>
<path d="M138.565 105.6C138.085 104.64 137.965 103.72 138.205 102.84C138.445 101.88 138.885 101 139.525 100.2C140.165 99.3997 140.925 98.7197 141.805 98.1597C142.765 97.5997 143.685 97.1997 144.565 96.9597C145.205 96.7997 145.765 96.7597 146.245 96.8397C146.805 96.8397 147.285 97.0397 147.685 97.4397C148.005 97.7597 148.165 98.0797 148.165 98.3997C148.245 99.0397 147.925 99.7198 147.205 100.44C146.565 101.08 145.765 101.72 144.805 102.36C143.925 102.92 142.965 103.4 141.925 103.8C140.965 104.2 140.245 104.48 139.765 104.64C140.325 106.08 141.485 107.12 143.245 107.76C145.005 108.32 147.085 108.6 149.485 108.6C151.965 108.6 154.645 108.36 157.525 107.88C160.485 107.32 163.405 106.64 166.285 105.84C169.165 105.04 171.885 104.12 174.445 103.08C177.005 102.04 179.205 100.96 181.045 99.8397C181.525 99.4397 181.925 99.4397 182.245 99.8397C182.565 100.24 182.485 100.56 182.005 100.8C180.565 101.84 178.565 102.92 176.005 104.04C173.525 105.16 170.805 106.2 167.845 107.16C164.885 108.04 161.805 108.76 158.605 109.32C155.485 109.88 152.565 110.2 149.845 110.28C147.125 110.28 144.725 109.92 142.645 109.2C140.645 108.48 139.285 107.28 138.565 105.6ZM146.485 98.6397C146.485 98.3197 146.085 98.2397 145.285 98.3997C144.165 98.6397 143.045 99.1997 141.925 100.08C140.805 100.96 140.085 102.04 139.765 103.32C139.925 103.24 140.365 103.04 141.085 102.72C141.805 102.32 142.565 101.92 143.365 101.52C144.165 101.04 144.885 100.56 145.525 100.08C146.165 99.5198 146.485 99.0397 146.485 98.6397Z" fill="black"/>
<path d="M125.837 94.0798C125.117 94.5598 124.397 95.0397 123.677 95.5197C122.477 96.2397 120.957 97.2797 119.117 98.6397L115.757 104.64C116.397 104.08 117.397 103.4 118.757 102.6C120.117 101.8 121.557 101.04 123.077 100.32C124.597 99.5197 126.037 98.8797 127.397 98.3997C128.837 97.8397 129.997 97.5997 130.877 97.6797C132.237 97.6797 133.037 98.3197 133.277 99.5997C133.357 100.32 132.957 101.2 132.077 102.24C131.277 103.28 130.557 104.24 129.917 105.12C129.357 105.92 129.117 106.48 129.197 106.8C129.357 107.12 130.397 106.88 132.317 106.08C133.117 105.76 134.077 105.36 135.197 104.88C136.317 104.32 137.477 103.76 138.677 103.2C139.957 102.64 141.197 102.08 142.397 101.52C143.597 100.96 144.637 100.4 145.517 99.8397C145.997 99.5997 146.357 99.7197 146.597 100.2C146.917 100.6 146.877 100.88 146.477 101.04C145.997 101.36 145.197 101.84 144.077 102.48C143.037 103.12 141.837 103.8 140.477 104.52C139.197 105.16 137.797 105.8 136.277 106.44C134.837 107.08 133.477 107.6 132.197 108C130.997 108.4 129.917 108.6 128.957 108.6C128.077 108.6 127.517 108.32 127.277 107.76C127.037 107.28 127.077 106.68 127.397 105.96C127.797 105.24 128.277 104.52 128.837 103.8C129.477 103.08 130.037 102.36 130.517 101.64C131.077 100.92 131.437 100.32 131.597 99.8397C131.517 99.2797 130.837 99.1597 129.557 99.4797C128.277 99.7997 126.717 100.4 124.877 101.28C123.117 102.08 121.237 103.08 119.237 104.28C117.317 105.4 115.677 106.56 114.317 107.76C114.077 108.16 113.757 108.24 113.357 108C113.037 107.76 112.957 107.44 113.117 107.04C113.357 106.08 113.717 105.04 114.197 103.92C114.677 102.8 115.277 101.68 115.997 100.56L113.117 102.24C112.557 102.56 112.157 102.48 111.917 102C111.757 101.84 111.717 101.64 111.797 101.4C111.957 101.16 112.157 100.96 112.397 100.8C113.277 100.32 114.117 99.7997 114.917 99.2397C115.797 98.6797 116.717 98.0797 117.677 97.4397C119.037 95.2797 120.557 93.1597 122.237 91.0797C123.997 88.9997 125.837 87.0397 127.757 85.1997C129.197 83.8397 130.597 82.6797 131.957 81.7197C133.317 80.7597 134.557 79.9197 135.677 79.1997C136.797 78.5597 137.877 78.0798 138.917 77.7598C139.957 77.4397 140.797 77.5197 141.437 77.9997C142.637 78.8797 142.077 80.7197 139.757 83.5197C137.517 86.2397 132.877 89.7598 125.837 94.0798ZM140.477 78.9597C140.317 78.7997 139.917 78.8397 139.277 79.0798C138.717 79.2398 137.757 79.7597 136.397 80.6397C132.877 82.7997 129.757 85.2797 127.037 88.0797C124.397 90.7997 122.397 93.1997 121.037 95.2797L124.157 93.3597C125.677 92.3198 127.437 91.1197 129.437 89.7597C131.517 88.3197 133.437 86.8798 135.197 85.4398C136.957 83.9998 138.357 82.7197 139.397 81.5997C140.517 80.3997 140.877 79.5197 140.477 78.9597Z" fill="black"/>
<path d="M83.8395 90.4797C83.6795 90.4797 83.3195 90.5597 82.7595 90.7197C82.1995 90.8797 81.9195 90.7197 81.9195 90.2397C81.8395 89.8397 81.9595 89.5597 82.2795 89.3997C82.4395 89.3197 82.6395 89.2797 82.8795 89.2797C85.0395 88.7997 87.5995 88.3597 90.5595 87.9597C93.5195 87.4797 96.6395 87.0397 99.9195 86.6397C102.96 84.2397 105.6 82.3197 107.84 80.8797C110.08 79.4397 111.68 78.4797 112.64 77.9997C113.12 77.7597 113.56 77.7997 113.96 78.1197C114.44 78.4397 114.16 78.8797 113.12 79.4397C112 79.9197 110.52 80.7597 108.68 81.9597C106.92 83.0797 104.96 84.5597 102.8 86.3997C105.36 86.1597 107.88 85.9997 110.36 85.9197C112.92 85.7597 115.28 85.6797 117.44 85.6797C117.6 85.6797 117.8 85.7197 118.04 85.7997C118.44 86.0397 118.64 86.3197 118.64 86.6397C118.56 87.0397 118.2 87.2397 117.56 87.2397C117.24 87.2397 116.96 87.1997 116.72 87.1197C113.84 87.2797 111.04 87.4397 108.32 87.5997C105.68 87.6797 103.04 87.9197 100.4 88.3197C99.4395 88.9597 98.5195 89.6797 97.6395 90.4797C96.8395 91.1997 95.9995 91.9997 95.1195 92.8797C93.0395 94.8797 91.3995 96.5997 90.1995 98.0397C88.9995 99.4797 88.0795 100.68 87.4395 101.64C86.8795 102.6 86.5195 103.4 86.3595 104.04C86.2795 104.6 86.2395 105.04 86.2395 105.36C86.3195 106.32 86.9995 106.92 88.2795 107.16C89.5595 107.32 91.1195 107.28 92.9595 107.04C94.8795 106.72 96.9595 106.24 99.1995 105.6C101.52 104.96 103.72 104.28 105.8 103.56C107.88 102.76 109.72 102 111.32 101.28C113 100.48 114.16 99.8397 114.8 99.3597C115.44 98.9597 115.92 98.9597 116.24 99.3597C116.56 99.7597 116.4 100.16 115.76 100.56C114.8 101.36 113.08 102.32 110.6 103.44C108.12 104.48 105.44 105.48 102.56 106.44C99.6795 107.32 96.8395 108 94.0395 108.48C91.3195 108.96 89.1995 108.96 87.6795 108.48C86.7995 108.32 86.0395 108 85.3995 107.52C84.8395 106.96 84.5595 106.24 84.5595 105.36C84.6395 104.24 84.9995 103.08 85.6395 101.88C86.2795 100.6 87.0795 99.3597 88.0395 98.1597C88.9995 96.9597 89.9995 95.8397 91.0395 94.7998C92.0795 93.6798 93.0395 92.7197 93.9195 91.9197C94.6395 91.2797 95.2795 90.6397 95.8395 89.9997C96.3995 89.3597 97.0395 88.7997 97.7595 88.3197C95.1195 88.7197 92.5995 89.0797 90.1995 89.3997C87.8795 89.7197 85.7595 90.0797 83.8395 90.4797Z" fill="black"/>
<path d="M22.1483 118.56C23.8283 116.24 25.6683 113.88 27.6683 111.48C29.7483 109.08 31.8283 106.48 33.9083 103.68C33.4283 102.72 33.3883 102 33.7883 101.52C34.2683 100.96 35.1883 100.8 36.5483 101.04C37.4283 99.9198 38.4283 98.5198 39.5483 96.8398C40.7483 95.0798 41.9083 93.5998 43.0283 92.3998C40.3883 93.9998 37.5883 95.6798 34.6283 97.4398C31.6683 99.1198 28.5483 100.88 25.2683 102.72C24.7083 102.96 24.3083 102.96 24.0683 102.72C23.9083 102.48 23.8683 102.28 23.9483 102.12C24.0283 101.88 24.1483 101.68 24.3083 101.52C28.3083 99.1998 32.0683 97.0398 35.5883 95.0398C39.1883 93.0398 42.3883 91.1198 45.1883 89.2798L46.3883 88.5598L47.1083 88.0798L48.7883 86.1598C50.3883 84.3198 52.1083 82.5198 53.9483 80.7598C55.7883 78.9198 57.2683 77.9198 58.3883 77.7598C58.7083 77.7598 58.9483 77.8398 59.1083 77.9998C59.9083 78.5598 60.1883 79.2398 59.9483 80.0398C59.7083 80.7598 59.1483 81.5598 58.2683 82.4398C57.4683 83.2398 56.3883 84.0798 55.0283 84.9598C53.7483 85.7598 52.4683 86.5598 51.1883 87.3598L48.7883 89.2798L47.3483 89.9998L46.3883 90.9598L38.4683 100.8L37.7483 101.76C38.4683 102.24 39.1083 102.72 39.6683 103.2C40.2283 103.68 40.7083 104.24 41.1083 104.88C43.5083 104.88 46.0683 104.44 48.7883 103.56C51.5883 102.6 54.0683 101.44 56.2283 100.08C56.7083 99.8398 57.0283 99.9198 57.1883 100.32C57.6683 100.8 57.5883 101.2 56.9483 101.52C54.6283 102.88 52.1083 104.04 49.3883 105C46.7483 105.88 44.2283 106.32 41.8283 106.32C42.6283 108.16 42.8283 110.16 42.4283 112.32C42.0283 114.48 41.1883 116.64 39.9083 118.8C38.7083 120.88 37.1483 122.92 35.2283 124.92C33.3883 126.92 31.4683 128.68 29.4683 130.2C27.4683 131.72 25.4683 132.92 23.4683 133.8C21.4683 134.76 19.7483 135.2 18.3083 135.12C17.1883 135.04 16.3483 134.68 15.7883 134.04C15.1483 133.48 14.9483 132.56 15.1883 131.28C15.3483 129.92 15.9883 128.2 17.1083 126.12C18.1483 124.04 19.8283 121.52 22.1483 118.56ZM35.1083 104.64C33.1883 107.04 31.1883 109.52 29.1083 112.08C27.1083 114.56 25.2683 116.88 23.5883 119.04C20.2283 123.6 18.1083 127.04 17.2283 129.36C16.3483 131.68 16.4683 133.04 17.5883 133.44C18.6283 133.76 20.0283 133.56 21.7883 132.84C23.6283 132.12 25.5483 131.04 27.5483 129.6C29.5483 128.16 31.5083 126.48 33.4283 124.56C35.3483 122.64 36.9883 120.64 38.3483 118.56C39.7083 116.4 40.5883 114.28 40.9883 112.2C41.3883 110.04 41.1083 108.08 40.1483 106.32C39.1883 106.32 38.2683 106.16 37.3883 105.84C36.5883 105.52 35.8283 105.12 35.1083 104.64ZM57.1883 81.1198C57.8283 80.4798 58.1883 80.0798 58.2683 79.9198L58.3883 79.6798V79.4398L58.1483 79.6798C57.7483 79.6798 57.1083 80.0798 56.2283 80.8798C55.3483 81.6798 53.9883 83.0398 52.1483 84.9598L51.4283 85.4398L52.6283 84.7198C53.7483 84.0798 54.6683 83.4398 55.3883 82.7998C56.1083 82.1598 56.7083 81.5998 57.1883 81.1198ZM35.8283 103.68C36.3083 103.92 36.7883 104.16 37.2683 104.4C37.7483 104.56 38.3083 104.64 38.9483 104.64C38.5483 104.24 38.1883 103.92 37.8683 103.68C37.6283 103.44 37.2683 103.12 36.7883 102.72L35.8283 103.68Z" fill="black"/>
<path d="M1.98966 107.28C1.02966 106.48 0.629657 105.56 0.789657 104.52C0.949657 103.4 1.42966 102.36 2.22966 101.4C3.02966 100.36 3.98966 99.4398 5.10966 98.6398C6.22966 97.8398 7.22966 97.2798 8.10966 96.9598C8.26966 96.8798 8.50966 96.8398 8.82966 96.8398C9.22966 96.8398 9.42966 96.9598 9.42966 97.1998C9.58966 97.5198 9.50966 97.8398 9.18966 98.1598C8.54966 98.7198 7.70966 99.3998 6.66966 100.2C5.70966 100.92 4.74966 101.6 3.78966 102.24C2.82966 103.44 2.50966 104.52 2.82966 105.48C3.06966 106.2 3.78966 106.56 4.98966 106.56C6.18966 106.56 7.50966 106.2 8.94966 105.48C8.06966 104.68 7.66966 103.68 7.74966 102.48C7.90966 101.28 8.30966 100.12 8.94966 98.9998C9.66966 97.8798 10.5497 96.9198 11.5897 96.1198C12.6297 95.3198 13.5897 94.9598 14.4697 95.0397C14.7097 95.0397 14.9097 95.0798 15.0697 95.1598C15.2297 95.1598 15.4297 95.2798 15.6697 95.5198C16.1497 96.1598 16.2697 96.9598 16.0297 97.9198C15.8697 98.8798 15.5097 99.8398 14.9497 100.8C14.4697 101.76 13.9097 102.64 13.2697 103.44C12.6297 104.24 12.1497 104.72 11.8297 104.88C12.6297 105.04 13.7097 104.96 15.0697 104.64C16.5097 104.24 17.9497 103.8 19.3897 103.32C20.9097 102.76 22.3497 102.16 23.7097 101.52C25.0697 100.88 26.0697 100.32 26.7097 99.8398C27.3497 99.8398 27.6697 99.9998 27.6697 100.32C27.8297 100.64 27.7497 100.96 27.4297 101.28C26.6297 101.84 25.5097 102.48 24.0697 103.2C22.6297 103.84 21.0697 104.44 19.3897 105C17.7897 105.56 16.1497 106 14.4697 106.32C12.8697 106.56 11.5097 106.56 10.3897 106.32C8.30966 107.68 6.54966 108.32 5.10966 108.24C3.66966 108.16 2.62966 107.84 1.98966 107.28ZM14.2297 96.4798C13.6697 96.3998 13.0297 96.7198 12.3097 97.4398C11.5897 98.0798 10.9497 98.8398 10.3897 99.7197C9.90966 100.6 9.58966 101.52 9.42966 102.48C9.26966 103.36 9.50966 104 10.1497 104.4C10.7897 103.84 11.4297 103.16 12.0697 102.36C12.7097 101.48 13.2297 100.64 13.6297 99.8398C14.1097 98.9598 14.3897 98.1998 14.4697 97.5598C14.6297 96.9198 14.5497 96.5598 14.2297 96.4798Z" fill="black"/>
<path d="M198.501 50.1997C197.621 50.4397 196.661 50.3997 195.621 50.0797C194.581 49.6797 193.741 49.1597 193.101 48.5197C192.861 48.6797 192.461 48.9997 191.901 49.4797C191.341 49.8797 190.741 50.2797 190.101 50.6797C189.461 51.0797 188.861 51.3997 188.301 51.6397C187.741 51.8797 187.381 51.9197 187.221 51.7597C186.981 51.7597 186.861 51.5997 186.861 51.2797C186.941 50.9597 187.061 50.7997 187.221 50.7997C187.861 50.3197 188.701 49.7197 189.741 48.9997C190.861 48.1997 191.741 47.5597 192.381 47.0797C192.541 45.8797 192.981 45.2397 193.701 45.1597C194.421 45.0797 194.861 45.2397 195.021 45.6397C195.101 45.7997 195.101 46.0397 195.021 46.3597C194.941 46.5997 194.661 46.9597 194.181 47.4397C194.421 47.8397 194.941 48.2397 195.741 48.6397C196.621 48.9597 197.621 48.9597 198.741 48.6397C199.701 48.3997 200.181 48.4797 200.181 48.8797C200.261 51.2797 201.221 53.2397 203.061 54.7597C204.981 56.2797 207.341 57.2797 210.141 57.7597C212.941 58.2397 215.981 58.1997 219.261 57.6397C222.621 56.9997 225.781 55.7597 228.741 53.9197C229.301 53.5997 229.701 53.6797 229.941 54.1597C230.181 54.6397 230.021 55.0397 229.461 55.3597C226.901 57.0397 223.941 58.2397 220.581 58.9597C217.221 59.6797 213.981 59.8397 210.861 59.4397C207.821 59.0397 205.141 58.1197 202.821 56.6797C200.501 55.1597 199.061 52.9997 198.501 50.1997Z" fill="black"/>
<path d="M162.851 51.2798C163.331 50.0798 164.131 49.0398 165.251 48.1598C166.371 47.2798 167.491 46.7198 168.611 46.4798C169.491 46.3198 170.331 46.3598 171.131 46.5998C171.931 46.7598 172.371 47.1998 172.451 47.9198C172.531 48.6398 172.211 49.3598 171.491 50.0798C170.851 50.7198 170.011 51.3198 168.971 51.8798C168.011 52.4398 167.051 52.9198 166.091 53.3198C165.131 53.7198 164.491 53.9598 164.171 54.0398C164.571 55.1598 165.411 55.9998 166.691 56.5598C167.971 57.1198 169.451 57.2798 171.131 57.0398C174.171 56.6398 177.171 55.7998 180.131 54.5198C183.091 53.1598 185.651 51.7598 187.811 50.3198C188.291 49.9198 188.691 49.9198 189.011 50.3198C189.331 50.7198 189.251 51.1198 188.771 51.5198C187.651 52.3198 186.291 53.1598 184.691 54.0398C183.171 54.8398 181.531 55.5998 179.771 56.3198C178.091 56.9598 176.331 57.5198 174.491 57.9998C172.731 58.3998 171.011 58.5998 169.331 58.5998C168.211 58.5998 167.171 58.4398 166.211 58.1198C165.251 57.7198 164.411 57.1998 163.691 56.5598C163.051 55.9198 162.611 55.1598 162.371 54.2798C162.211 53.3998 162.371 52.3998 162.851 51.2798ZM170.771 47.9198C169.331 47.5998 167.931 48.0398 166.571 49.2398C165.211 50.3598 164.331 51.5598 163.931 52.8398C164.251 52.6798 164.771 52.4398 165.491 52.1198C166.211 51.7198 166.971 51.3198 167.771 50.9198C168.571 50.4398 169.251 49.9598 169.811 49.4798C170.451 48.9198 170.771 48.3998 170.771 47.9198Z" fill="black"/>
<path d="M139.804 59.6798C139.164 59.3598 138.804 58.9198 138.724 58.3598C138.644 57.7198 138.724 57.0798 138.964 56.4398C139.204 55.7198 139.564 55.0398 140.044 54.3998C140.524 53.7598 141.004 53.1998 141.484 52.7198C142.444 51.5198 143.604 50.4398 144.964 49.4798C146.324 48.4398 147.564 47.9198 148.684 47.9198C149.164 47.9198 149.684 47.9998 150.244 48.1598C150.804 48.3198 151.284 48.5998 151.684 48.9998C152.244 46.9198 153.284 44.6398 154.804 42.1598C156.324 39.6798 157.964 37.4398 159.724 35.4398C161.564 33.3598 163.364 31.7998 165.124 30.7598C166.964 29.7198 168.524 29.5998 169.804 30.3998C170.524 31.2798 170.564 32.4398 169.924 33.8798C169.364 35.3198 168.444 36.8398 167.164 38.4398C165.964 40.0398 164.524 41.6798 162.844 43.3598C161.244 45.0398 159.804 46.5598 158.524 47.9198C157.644 48.7998 156.724 49.6798 155.764 50.5598C154.804 51.3598 153.724 52.3198 152.524 53.4398V53.6798C152.524 54.3198 152.604 54.7198 152.764 54.8798C153.084 55.5198 153.724 55.9198 154.684 56.0798C155.644 56.1598 156.804 56.0398 158.164 55.7198C159.604 55.3198 161.164 54.7198 162.844 53.9198C164.524 53.0398 166.204 51.9998 167.884 50.7998C168.444 50.5598 168.844 50.5598 169.084 50.7998C169.404 51.3598 169.324 51.7598 168.844 51.9998C167.244 53.1998 165.484 54.3198 163.564 55.3598C161.724 56.3198 159.924 57.0398 158.164 57.5198C156.404 57.9198 154.844 57.9598 153.484 57.6398C152.204 57.2398 151.404 56.2398 151.084 54.6398C150.364 55.1198 149.484 55.7198 148.444 56.4398C147.484 57.1598 146.484 57.8398 145.444 58.4798C144.404 59.0398 143.404 59.4798 142.444 59.7998C141.484 60.1198 140.684 60.0798 140.044 59.6798H139.804ZM168.364 31.5998C167.324 31.2798 165.924 31.8398 164.164 33.2798C162.484 34.7198 160.804 36.5198 159.124 38.6798C157.524 40.8398 156.084 43.1198 154.804 45.5198C153.524 47.8398 152.764 49.7998 152.524 51.3998C153.404 50.6798 154.484 49.7198 155.764 48.5198C157.044 47.2398 158.364 45.8798 159.724 44.4398C161.084 42.9998 162.404 41.5598 163.684 40.1198C164.964 38.6798 166.044 37.3598 166.924 36.1598C167.804 34.9598 168.404 33.9598 168.724 33.1598C169.044 32.2798 168.924 31.7598 168.364 31.5998ZM151.084 51.0398V50.7998H150.844C150.684 50.7998 150.604 50.6398 150.604 50.3198C150.364 49.8398 149.724 49.5998 148.684 49.5998C147.964 49.4398 147.004 49.7998 145.804 50.6798C144.684 51.4798 143.644 52.4798 142.684 53.6798C140.684 55.9198 139.964 57.4398 140.524 58.2398L140.764 58.4798C141.004 58.6398 141.564 58.5198 142.444 58.1198C143.324 57.7198 144.284 57.2398 145.324 56.6798C146.364 56.0398 147.364 55.3598 148.324 54.6398C149.364 53.9198 150.204 53.2798 150.844 52.7198L151.084 51.0398Z" fill="black"/>
<path d="M121.344 58.4797C120.704 57.5197 120.744 56.3997 121.464 55.1197C122.184 53.7597 123.104 52.4797 124.224 51.2797V51.0397C123.744 50.3197 123.424 49.7197 123.264 49.2397C123.184 48.7597 123.024 48.1597 122.784 47.4397C120.624 48.8797 118.904 49.9997 117.624 50.7997C116.344 51.5997 115.344 52.2397 114.624 52.7197C113.984 52.7197 113.664 52.6397 113.664 52.4797C113.504 52.2397 113.464 52.0397 113.544 51.8797C113.624 51.6397 113.744 51.4397 113.904 51.2797C114.304 50.9597 114.744 50.6797 115.224 50.4397C115.704 50.1197 116.264 49.7597 116.904 49.3597C117.624 48.8797 118.424 48.3597 119.304 47.7997C120.184 47.1597 121.264 46.3997 122.544 45.5197L122.784 44.7997C123.024 43.5197 123.624 42.3197 124.584 41.1997C125.544 39.9997 126.624 38.9997 127.824 38.1997C129.024 37.3197 130.224 36.6397 131.424 36.1597C132.704 35.6797 133.704 35.4797 134.424 35.5597C134.984 35.6397 135.184 36.0797 135.024 36.8797C134.864 37.5997 134.264 38.3997 133.224 39.2797C132.024 40.2397 131.064 41.0397 130.344 41.6797C129.624 42.2397 128.544 43.0397 127.104 44.0797L124.224 46.2397C124.224 47.5197 124.864 49.0397 126.144 50.7997C126.464 51.4397 126.464 51.7597 126.144 51.7597C125.424 52.3997 124.624 53.1997 123.744 54.1597C122.944 55.1197 122.544 56.0797 122.544 57.0397C122.624 57.5997 123.064 57.8797 123.864 57.8797C124.744 57.8797 125.824 57.7197 127.104 57.3997C128.384 56.9997 129.784 56.5197 131.304 55.9597C132.904 55.3997 134.464 54.7997 135.984 54.1597C137.504 53.4397 138.904 52.7997 140.184 52.2397C141.544 51.5997 142.624 51.0397 143.424 50.5597C143.824 50.3197 144.064 50.2797 144.144 50.4397C144.304 50.5197 144.464 50.6397 144.624 50.7997C144.784 50.9597 144.824 51.1597 144.744 51.3997C144.664 51.6397 144.544 51.7597 144.384 51.7597C143.344 52.3997 141.704 53.2797 139.464 54.3997C137.224 55.5197 134.864 56.5597 132.384 57.5197C129.984 58.3997 127.704 58.9997 125.544 59.3197C123.464 59.6397 122.064 59.3597 121.344 58.4797ZM133.464 37.1197C131.864 37.4397 130.144 38.2797 128.304 39.6397C126.544 40.9997 125.344 42.3997 124.704 43.8397C125.504 43.1197 126.264 42.5197 126.984 42.0397C127.704 41.4797 128.384 40.9597 129.024 40.4797C129.664 39.9197 130.344 39.3997 131.064 38.9197C131.784 38.3597 132.584 37.7597 133.464 37.1197Z" fill="black"/>
<path d="M32.7922 74.7998C29.9922 73.3598 28.4722 71.2398 28.2322 68.4398C27.9122 65.5598 28.5522 62.3198 30.1522 58.7198C31.6722 55.1198 33.9122 51.3198 36.8722 47.3198C39.9122 43.3198 43.2722 39.4398 46.9522 35.6798L49.1122 33.7598L49.5922 33.0398C51.1922 29.5998 53.3522 26.2398 56.0722 22.9598C58.8722 19.6798 61.9522 16.6398 65.3122 13.8398C68.6722 11.0398 72.1922 8.59977 75.8722 6.51977C79.5522 4.43977 83.1522 2.87977 86.6722 1.83977C90.1922 0.799764 93.4722 0.399765 96.5122 0.639766C99.5522 0.799764 102.152 1.75976 104.312 3.51977C106.232 5.67977 106.992 8.47977 106.592 11.9198C106.272 15.2798 105.072 18.9998 102.992 23.0798C100.992 27.1598 98.3122 31.3998 94.9522 35.7998C91.6722 40.1198 88.0722 44.3198 84.1522 48.3998C83.0322 49.5198 81.9522 50.5598 80.9122 51.5198C79.8722 52.4798 78.7922 53.4398 77.6722 54.3998L71.4322 59.6798C79.4322 59.5998 87.2722 58.8398 94.9522 57.3998C102.632 55.9598 110.072 53.1998 117.272 49.1198C117.752 48.8798 118.152 49.0398 118.472 49.5998C118.712 50.0798 118.552 50.4798 117.992 50.7998C114.472 52.9598 110.432 54.7998 105.872 56.3198C101.312 57.7598 96.7522 58.8798 92.1922 59.6798C87.7122 60.4798 83.4322 61.0398 79.3522 61.3598C75.2722 61.5998 71.9522 61.5998 69.3922 61.3598C66.1122 63.8398 62.8322 66.0798 59.5522 68.0798C56.2722 69.9998 53.0722 71.5998 49.9522 72.8798C46.8322 74.0798 43.8322 74.8798 40.9522 75.2798C38.0722 75.6798 35.4322 75.5198 33.0322 74.7998H32.7922ZM82.9522 47.1998C86.7922 43.2798 90.2322 39.3198 93.2722 35.3198C96.3922 31.3198 98.9122 27.5198 100.832 23.9198C102.832 20.2398 104.112 16.8398 104.672 13.7198C105.312 10.5998 105.112 7.99977 104.072 5.91977L103.112 4.71976L101.672 3.51977C98.7922 1.91977 95.1922 1.51977 90.8722 2.31977C86.6322 3.11977 82.2322 4.75977 77.6722 7.23977C73.1922 9.71977 68.8322 12.7998 64.5922 16.4798C60.3522 20.1598 56.8722 24.0798 54.1522 28.2398L52.7122 30.1598H52.9522C56.4722 26.9598 60.1122 23.9598 63.8722 21.1598C67.7122 18.2798 71.4722 15.8398 75.1522 13.8398C78.8322 11.7598 82.3122 10.2398 85.5922 9.27977C88.9522 8.23977 91.9122 7.91977 94.4722 8.31977C94.7922 8.47977 94.9522 8.79977 94.9522 9.27977C94.9522 9.43977 94.8722 9.59977 94.7122 9.75976C94.6322 9.91977 94.3922 9.91977 93.9922 9.75976C91.6722 9.43977 88.9122 9.79977 85.7122 10.8398C82.5922 11.7998 79.2722 13.2798 75.7522 15.2798C72.2322 17.1998 68.5922 19.5598 64.8322 22.3598C61.1522 25.1598 57.5922 28.1598 54.1522 31.3598L50.5522 34.4798L50.0722 35.6798C48.7122 39.0398 48.1522 42.3598 48.3922 45.6398C48.6322 48.8398 49.9122 51.7598 52.2322 54.3998C53.4322 55.8398 55.2322 56.9598 57.6322 57.7598C60.0322 58.4798 62.8722 59.0398 66.1522 59.4398L69.0322 59.6798L69.9922 58.7198C74.5522 55.3598 78.8722 51.5198 82.9522 47.1998ZM67.1122 61.1198H65.6722C62.3122 60.7198 59.3522 60.0798 56.7922 59.1998C54.3122 58.2398 52.3922 56.9598 51.0322 55.3598C48.8722 52.9598 47.5522 50.2798 47.0722 47.3198C46.5922 44.3598 46.7922 41.3598 47.6722 38.3198L47.9122 37.3598L45.5122 39.7598C42.3122 43.2798 39.5122 46.7198 37.1122 50.0798C34.7922 53.3598 32.9922 56.4398 31.7122 59.3198C30.4322 62.1998 29.7922 64.7998 29.7922 67.1198C29.7122 69.3598 30.4722 71.1198 32.0722 72.3998L33.5122 73.3598C35.6722 73.9998 38.0322 74.1598 40.5922 73.8398C43.2322 73.4398 45.9922 72.7198 48.8722 71.6798C51.7522 70.5598 54.7122 69.1198 57.7522 67.3598C60.7922 65.5998 63.8322 63.5998 66.8722 61.3598L67.1122 61.1198Z" fill="black"/>
</svg>
