<svg width="491" height="107" viewBox="0 0 491 107" fill="none" xmlns="http://www.w3.org/2000/svg">
<path d="M320.495 39.7006C319.937 38.7315 319.825 36.6715 319.871 35.6433C319.916 34.615 320.028 34.1865 320.495 33.7707C320.961 33.3549 321.105 33.1317 322.055 32.8344C323.006 32.5371 323.748 32.7228 324.24 32.8344C324.732 32.946 324.893 33.0625 325.176 33.4586C325.459 33.8547 326.113 35.0191 326.113 35.0191L327.361 38.4522C327.361 38.4522 328.153 40.9494 328.35 41.5884C328.547 42.2274 329.258 44.3826 329.454 44.8993C329.65 45.416 329.893 46.388 329.893 46.388L330.794 42.8216C330.794 42.8216 331.325 40.7007 331.541 39.765C331.757 38.8294 332.189 37.1979 332.355 36.5796C332.521 35.9613 333.076 33.8151 333.291 33.1465C333.505 32.4779 334.348 30.3591 334.636 29.8324C334.923 29.3057 335.907 27.8416 336.243 27.4332C336.58 27.0248 337.134 26.5668 337.66 26.2802C338.187 25.9937 339.053 25.8 339.866 25.8018C340.679 25.8036 341.026 25.991 341.406 26.2802C341.786 26.5695 342.505 27.1213 343.081 27.8651C343.657 28.6088 344.167 29.7616 344.497 30.5762C344.826 31.3908 345.072 32.2076 345.24 32.7834C345.408 33.3592 345.72 34.2949 345.864 34.7507C346.008 35.2066 346.296 36.5261 346.416 37.1019C346.536 37.6777 346.673 38.9701 346.711 39.7006C346.75 40.4311 346.697 44.0209 346.697 44.0209C346.697 44.0209 347.787 43.6191 348.272 43.1337C348.756 42.6484 349.483 41.4493 349.832 40.949C350.182 40.4487 351.003 39.0424 351.393 38.4522C351.783 37.862 352.663 36.4596 352.953 35.9554C353.243 35.4512 354.387 33.7795 354.669 33.3571C354.95 32.9348 355.755 31.6542 356.074 31.2739C356.393 30.8936 357.099 29.9678 357.635 29.4013C358.171 28.8347 359.209 27.7965 359.455 27.5853C359.701 27.3742 360.751 26.5794 361.285 26.3887C361.819 26.1981 363.296 26.1245 364.006 26.2068C364.716 26.2891 365.426 26.6195 366.019 27.0574C366.611 27.4953 366.989 28.2758 367.31 29.0892C367.631 29.9025 367.841 31.5443 367.934 32.2102C368.027 32.8761 367.981 34.8873 367.934 35.6433C367.887 36.3993 367.73 37.9093 367.636 38.4756C367.541 39.0418 367.384 39.9227 367.038 40.9923C366.692 42.0619 366.407 43.2155 366.062 44.07C365.717 44.9246 365.125 47.5032 365.125 47.5032C365.125 47.5032 364.607 49.8167 364.501 50.3121C364.395 50.8074 364.131 52.7114 363.837 52.9426C363.543 53.1738 362.73 53.2612 362.414 53.2612C362.097 53.2612 361.287 53.2523 361.004 52.9074C360.721 52.5625 360.757 51.3413 360.881 50.567C361.004 49.7927 361.092 48.9305 361.197 48.4554C361.303 47.9802 361.514 46.9596 361.637 46.4141C361.76 45.8686 362.099 45.0819 362.256 44.3898C362.414 43.6977 362.445 43.1944 362.697 42.2506C362.948 41.3069 363.106 40.08 363.106 40.08C363.106 40.08 363.452 38.6643 363.546 38.0352C363.64 37.406 363.798 37.0599 363.924 35.9903C364.049 34.9207 364.018 34.5118 364.018 33.6309C364.018 32.7501 363.907 32.2133 363.877 31.8981C363.847 31.5828 363.59 30.8408 363.253 30.6497C362.915 30.4586 362.323 30.5416 362.004 30.6497C361.685 30.7577 361.197 31.0519 360.793 31.3335C360.388 31.615 359.42 32.6181 359.195 32.8344C358.971 33.0507 357.924 34.2898 357.635 34.707C357.346 35.1242 356.657 36.1375 356.428 36.5422C356.2 36.9469 355.39 38.1259 355.073 38.6362C354.757 39.1465 353.987 40.4939 353.701 40.959C353.415 41.4241 352.469 42.8067 352.293 43.1235C352.117 43.4402 350.938 45.3583 350.769 45.6306C350.599 45.9028 349.706 47.4875 349.52 47.8153C349.334 48.143 348.193 49.9863 347.96 50.3121C347.726 50.6378 347.123 51.4305 346.873 51.7108C346.623 51.9911 345.798 52.8367 345.184 52.8194C344.57 52.8022 344.002 51.9139 343.811 51.5524C343.621 51.1909 343.316 49.9718 343.201 49.3378C343.086 48.7038 343.009 46.3868 342.966 45.6306C342.923 44.8743 342.913 43.8677 342.841 43.0999C342.769 42.3322 342.621 40.7407 342.553 40.2449C342.486 39.749 342.169 38.1816 342.03 37.5159C341.89 36.8502 341.666 35.6864 341.522 35.0147C341.378 34.3429 341.038 33.3082 340.874 32.7594C340.709 32.2106 340.562 31.7038 340.322 31.2959C340.082 30.8881 339.65 30.2403 339.122 30.2163C338.595 30.1923 337.875 31.008 337.66 31.2739C337.446 31.5397 336.772 32.3303 336.507 32.9274C336.243 33.5244 335.476 35.6433 335.476 35.6433C335.476 35.6433 334.684 38.9013 334.539 39.3885C334.395 39.8757 334.06 42.2842 333.915 42.8216C333.77 43.3591 333.291 45.6306 333.291 45.6306C333.291 45.6306 332.472 48.7971 332.303 49.6001C332.133 50.4031 331.922 52.6854 331.956 53.3003C331.99 53.9152 331.956 57.3439 331.956 57.8437C331.956 58.3435 332.547 61.0695 332.355 61.5477C332.162 62.0259 331.774 62.796 331.418 63.1082C331.062 63.4205 330.457 63.7955 329.546 63.7324C328.635 63.6693 328.594 63.3412 328.14 62.9323C327.685 62.5234 327.867 62.6597 327.413 61.9328C326.958 61.2058 326.913 60.7969 326.731 60.07C326.55 59.343 326.459 58.4343 326.459 57.5711C326.459 56.7079 326.55 54.6179 326.731 53.891C326.913 53.164 327.413 50.9832 327.413 50.9832C327.413 50.9832 326.368 48.7115 326.004 47.712C325.641 46.7124 325.187 45.8492 324.869 44.8951C324.55 43.941 324.596 44.0318 324.278 43.3049C323.96 42.5779 323.642 41.7601 323.642 41.7601L322.915 39.9882C322.915 39.9882 321.052 40.6697 320.495 39.7006Z" fill="black"/>
<path fill-rule="evenodd" clip-rule="evenodd" d="M376.552 33.1659C377.09 32.2502 377.681 31.322 378.546 30.0255C379.41 28.729 380.796 27.1457 381.667 26.2802C382.538 25.4148 383.052 25.1846 383.851 24.7197C384.651 24.2549 385.228 24.1356 386.328 23.8821C387.428 23.6286 388.74 23.7055 389.781 23.7834C390.823 23.8614 391.602 24.1254 392.59 24.4076C393.578 24.6899 394.776 25.2759 395.399 25.656C396.022 26.0362 396.83 26.7139 397.58 27.3969C398.33 28.08 398.627 28.486 399.088 29.1562C399.549 29.8264 400.386 31.6275 400.386 31.6275C400.386 31.6275 400.47 31.5856 401.224 31.5018C401.978 31.418 403.235 31.5437 403.235 31.5437C403.235 31.5437 404.019 31.8247 404.45 32.2102C404.881 32.5956 405.096 32.9688 405.074 34.0828C405.052 35.1968 405.061 35.7648 404.896 36.496C404.731 37.2273 404.66 37.4396 404.354 38.1944C404.047 38.9493 403.803 39.5382 403.195 40.5539C402.586 41.5695 401.971 42.5809 401.971 42.5809C401.971 42.5809 402.215 44.1911 402.284 45.1836C402.352 46.1762 402.475 47.3019 402.481 47.8259C402.488 48.3499 402.794 49.9575 402.979 50.8823C403.164 51.8071 403.554 52.4854 403.886 52.9599C404.218 53.4345 404.884 54.1418 405.216 54.6638C405.548 55.1858 405.826 55.6957 405.786 56.0875C405.746 56.4793 405.928 57.179 405.386 57.4904C404.845 57.8018 403.767 57.6183 403.244 57.4551C402.721 57.292 401.863 56.8608 401.128 56.2085C400.394 55.5563 400.354 55.4727 400.033 54.7731C399.712 54.0735 399.544 53.5965 399.37 52.8094C399.195 52.0224 398.937 50.9958 398.845 50.1568C398.753 49.3178 398.491 46.2195 398.491 46.2195C398.491 46.2195 398.046 46.843 397.868 47.0568C397.689 47.2706 397.286 47.723 396.826 48.2564C396.366 48.7899 395.653 49.5549 395.192 50.0576C394.732 50.5602 393.819 51.534 393.349 51.9425C392.88 52.3509 391.838 53.2327 391.004 53.7855C390.169 54.3382 388.793 55.0555 388.227 55.2807C387.66 55.506 385.707 56.1533 384.788 56.242C383.868 56.3307 382.31 56.5468 381.355 56.242C380.399 55.9372 378.973 54.9485 378.234 54.3694C377.494 53.7903 375.944 52.357 375.651 51.8638C375.357 51.3707 374.369 49.8707 374.176 49.0637C373.983 48.2567 373.895 47.6877 373.864 46.5669C373.833 45.446 373.8 44.3657 373.864 43.4458C373.928 42.526 374.037 41.2335 374.176 40.3248C374.315 39.4161 374.464 38.2912 374.8 37.2038C375.137 36.1164 376.015 34.0816 376.552 33.1659ZM383.851 30.0255C383.242 30.6346 382.518 31.4659 381.979 32.2102C381.44 32.9545 380.839 33.8866 380.487 34.4665C380.135 35.0465 379.356 36.5617 379.099 37.1385C378.843 37.7154 378.457 39.1891 378.292 39.9762C378.126 40.7633 377.945 42.335 377.921 43.1337C377.898 43.9325 377.919 45.5688 377.981 46.2316C378.043 46.8945 378.582 48.2201 378.789 48.7172C378.996 49.2143 379.617 50.2707 380.135 50.8093C380.653 51.3478 381.63 52.048 382.291 52.1847C382.952 52.3213 384.073 52.2345 384.476 52.1847C384.878 52.1349 385.81 51.9425 386.312 51.8168C386.815 51.6911 387.783 51.1268 388.155 50.8534C388.528 50.58 389.328 50.0576 389.747 49.6387C390.166 49.2198 391.171 48.424 391.464 48.0889C391.758 47.7538 392.595 47.0836 393.014 46.7066C393.433 46.3297 394.02 45.5757 394.355 45.3244C394.69 45.0731 395.067 44.4867 395.36 44.1097C395.653 43.7327 396.239 43.2301 396.533 42.6855C396.826 42.141 396.952 42.141 397.245 41.7221C397.538 41.3033 397.85 40.7498 397.85 40.7498C397.85 40.7498 397.789 40.2343 397.397 39.2911C397.005 38.3479 397.069 38.4937 396.818 37.7398C396.567 36.9858 396.616 36.1512 396.658 35.4392C396.7 34.7271 397.58 33.4705 397.58 33.4705C397.58 33.4705 396.284 31.4899 395.904 31.083C395.525 30.676 395.214 30.3446 394.842 30.0132C394.469 29.6818 394.179 29.3918 393.578 28.9568C392.977 28.5218 392.522 28.2318 392.522 28.2318C392.522 28.2318 391.983 27.8176 391.3 27.6519C390.616 27.4862 390.23 27.4451 389.435 27.424C388.641 27.403 387.764 27.3847 387.285 27.5287C386.805 27.6726 386.366 27.8643 385.686 28.3561C385.006 28.848 384.461 29.4164 383.851 30.0255ZM400.722 37.7918C400.559 37.1152 400.435 37.305 400.462 36.3863C400.728 35.6251 401.028 35.2934 401.712 35.3276C401.615 36.4353 401.37 36.7058 400.722 37.7918Z" fill="black"/>
<path d="M459.692 1.31213C458.963 1.85595 459.02 2.10705 458.756 3.18474C458.491 4.26243 458.692 5.38954 458.805 6.68754C458.918 7.98554 459.144 8.78934 459.087 10.3558C459.031 11.9223 459.196 13.0203 459.144 13.8548C459.092 14.6892 459.144 16.3586 459.144 17.2973C459.144 18.236 458.914 21.1298 458.862 21.7556C458.81 22.3815 458.595 24.0279 458.595 25.1231C458.595 26.2183 458.543 28.3044 458.543 28.3044C458.543 28.3044 458.126 32.4765 458.126 33.5717C458.126 34.6669 457.97 36.3357 457.97 37.4309C457.97 38.5261 457.917 39.1519 458.022 39.8299C458.126 40.5079 458.24 41.281 458.444 41.8853C458.648 42.4896 459.326 43.5493 459.951 44.1063C460.577 44.6633 461.089 45.2773 462.189 45.6306C463.289 45.9838 463.683 45.7467 464.686 45.6306C465.688 45.5144 466.366 45.2537 466.94 44.8886C467.513 44.5235 467.859 44.3762 468.452 43.9499C468.838 43.6724 469.391 43.2197 469.391 43.2197C469.391 43.2197 469.97 44.2778 470.439 45.0209C470.909 45.7639 471.554 46.4874 472.18 47.3282C472.805 48.1691 473.294 48.6384 473.998 49.3423C474.702 50.0463 475.308 50.6133 475.738 51.0826C476.169 51.5519 476.266 51.6302 476.99 52.1777C477.713 52.7252 478.065 53.038 478.73 53.5269C479.395 54.0158 480.783 54.837 481.272 55.1108C481.761 55.3845 482.475 56.0863 482.915 56.4014C483.355 56.7164 483.865 57.1129 484.348 57.4904C484.831 57.8679 485.383 58.0747 485.828 58.3959C486.274 58.717 487.041 59.2758 487.608 59.4518C488.175 59.6278 488.535 59.7029 489.03 59.6751C489.524 59.6473 490.054 59.3149 490.278 59.0509C490.502 58.787 490.463 57.9266 490.278 57.4904C490.093 57.0542 489.27 56.1667 489.03 55.9299C488.789 55.6931 487.881 54.9348 487.469 54.6815C487.057 54.4282 486.083 54.0353 485.596 53.7452C485.11 53.4551 483.724 52.1847 483.724 52.1847C483.724 52.1847 482.387 51.024 481.851 50.6242C481.316 50.2244 480.822 49.8898 480.236 49.4205C479.649 48.9512 478.965 48.4428 478.241 47.6998C477.518 46.9567 476.912 46.3505 476.233 45.6306C475.555 44.9106 474.819 43.9454 474.78 43.6912C474.741 43.437 474.702 42.4202 474.78 41.9118C474.858 41.4033 475.588 40.6369 475.895 40.367C476.201 40.097 476.873 39.3111 477.264 38.8809C477.655 38.4507 479.079 37.4039 479.354 37.2038C479.63 37.0037 480.392 36.2606 480.666 36.0846C480.94 35.9086 481.647 35.3223 482.163 35.0191C482.68 34.7158 483.34 34.2906 483.724 34.0828C484.108 33.875 484.176 33.8243 484.66 33.4586C485.144 33.0928 485.243 32.9015 485.596 32.2102C485.95 31.5189 485.781 31.2367 485.596 30.6497C485.412 30.0626 485.047 29.5437 484.348 29.0892C483.649 28.6347 483.185 28.5843 482.451 28.6971C481.718 28.81 481.266 28.81 480.603 29.0892C479.939 29.3683 479.799 29.4308 479.348 29.8823C478.896 30.3337 478.617 30.5787 477.88 31.2367C477.143 31.8947 476.752 32.0268 476.233 32.5223C475.715 33.0178 475.115 33.4377 474.049 34.3949C472.983 35.3521 472.575 35.8644 472.176 36.2675C471.777 36.6706 471.052 37.4445 470.616 37.828C470.18 38.2115 469.415 38.6297 468.907 39.1376C468.399 39.6455 467.666 40.2663 467.182 40.6369C466.699 41.0076 466.198 41.7336 465.622 41.8853C465.046 42.0371 464.279 42.2415 463.659 41.8464C463.038 41.4514 462.981 40.6049 462.813 40.0127C462.645 39.4206 462.53 38.9683 462.586 37.7831C462.643 36.598 462.586 36.9366 462.643 36.0901C462.699 35.2436 462.699 34.7921 462.756 34.002C462.812 33.2119 462.869 33.2119 462.925 32.3654C462.981 31.5189 463.038 29.7654 463.151 28.1328C463.264 26.5002 463.546 23.9883 463.546 22.8279C463.546 21.6675 463.879 17.6813 463.903 17.0419C463.927 16.4025 463.856 11.2871 463.856 11.2871C463.856 11.2871 463.856 8.14294 463.856 7.30851C463.856 6.47409 463.798 6.17241 463.772 5.22024C463.745 4.26806 463.863 3.79306 463.749 3.18474C463.636 2.57641 463.289 2.17636 462.813 1.62423C462.337 1.0721 462.559 1.08124 461.565 1.00003C460.57 0.918821 460.421 0.768308 459.692 1.31213Z" fill="black"/>
<path fill-rule="evenodd" clip-rule="evenodd" d="M413.363 28.2981C413.314 28.5864 413.266 30.004 413.242 30.4365C413.218 30.8689 413.218 32.6709 413.189 33.1465C413.16 33.6221 413.189 37.2038 413.189 37.2038V42.8216L413.214 45.5366C413.214 45.5366 413.222 49.5429 413.281 50.1503C413.339 50.7577 413.448 51.5545 413.715 52.2566C413.983 52.9587 414.248 53.5112 414.618 53.9952C414.618 53.9952 415.287 54.597 415.855 54.9647C416.423 55.3325 416.968 55.3838 417.493 55.4328C418.019 55.4818 418.563 55.1319 418.931 54.6973C419.299 54.2626 419.332 54.1289 419.6 53.6274C419.867 53.1259 420.201 51.9557 420.201 51.9557L420.536 50.4512C420.536 50.4512 420.736 49.0805 420.77 48.3784C420.803 47.6763 420.837 46.8405 420.837 46.2387C420.837 45.6369 420.803 44.8679 420.736 44.2995C420.669 43.7312 420.695 43.6727 420.633 43.1324C420.571 42.592 420.593 42.2985 420.494 41.5044C420.394 40.7103 420.494 41.1868 420.394 39.7971C420.295 38.4074 419.972 37.0862 419.805 37.0497C419.215 36.6772 419.13 36.6006 418.336 36.8035C417.542 37.0063 417.398 38.2726 417.398 38.2726C417.398 38.2726 417.399 36.4911 417.364 35.7746C417.33 35.0581 417.279 33.3677 417.279 33.3677C417.279 33.3677 417.737 34.0538 417.976 34.3475C418.216 34.6411 418.317 34.7607 418.696 35.1456C419.075 35.5306 419.081 35.5781 419.489 35.9625C419.898 36.347 420.57 36.6593 421.123 36.9716C421.676 37.284 422.047 37.4676 422.901 37.9327C423.755 38.3978 424.343 38.6054 425.184 38.8457C426.024 39.086 426.857 39.0188 427.234 39.0764C427.61 39.134 428.968 39.0669 429.418 39.0764C429.869 39.086 431.358 39.0619 431.358 39.0619C431.358 39.0619 431.25 40.7804 431.291 41.5732C431.332 42.3661 431.472 43.6999 431.683 44.9285C431.893 46.157 432.595 48.1226 433.122 48.8246C433.648 49.5267 434.35 50.5797 434.736 51.036C435.123 51.4923 435.523 51.8591 435.972 52.1847C436.421 52.5102 437.744 52.9946 438.469 53.121C439.194 53.2473 440.484 53.2052 441.278 53.121C442.073 53.0367 442.474 52.7016 443.151 52.1847C443.828 51.6678 444.331 50.9846 444.711 50.6242C445.091 50.2638 445.599 49.3729 445.96 49.0637C446.32 48.7544 447.162 47.9822 447.52 47.8153C447.878 47.6483 448.32 47.3153 448.456 46.879C448.592 46.4426 448.742 45.8762 448.456 45.6306C448.171 45.3849 447.338 45.5954 446.896 45.6306C446.454 45.6657 445.934 46.0868 445.647 46.2548C445.361 46.4227 444.108 47.4908 443.775 47.8153C443.441 48.1397 442.283 48.9299 441.902 49.0637C441.521 49.1974 440.563 49.4214 440.03 49.3758C439.496 49.3302 438.598 49.281 438.157 49.0637C437.717 48.8464 437.404 48.4736 437.158 48.0875C436.913 47.7014 436.737 47.2451 436.597 46.879C436.456 46.5128 436.246 45.5954 436.176 45.104C436.105 44.6125 436.14 43.5946 436.14 42.8575C436.14 42.1204 436.168 41.1079 436.14 40.7164C436.113 40.3248 436.176 38.5752 436.176 38.5752C436.176 38.5752 436.983 38.5401 437.966 38.2593C438.949 37.9785 439.264 37.9083 440.142 37.4169C441.019 36.9255 441.797 36.5132 442.248 36.1883C442.699 35.8635 443.213 35.3388 443.792 34.8545C444.372 34.3702 445.499 33.2945 446.214 32.6783C446.929 32.062 448.031 30.7698 448.456 30.3376C448.882 29.9053 449.338 29.2033 449.689 28.396C450.04 27.5886 450.181 27.2727 450.426 26.3952C450.672 25.5177 450.844 24.8262 450.918 23.7276C450.992 22.6289 450.883 21.4109 450.641 20.6624C450.399 19.9139 449.724 18.989 449.393 18.4777C449.061 17.9665 448.215 17.269 447.832 16.9172C447.449 16.5654 446.571 16.1001 445.723 15.865C444.875 15.6299 444.249 15.4789 443.463 15.3567C442.677 15.2345 442.002 15.2332 440.966 15.3567C439.93 15.4802 439.44 15.6895 438.781 15.9809C438.123 16.2723 437.229 16.8478 436.807 17.3041C436.386 17.7604 435.509 18.673 435.036 19.414C434.563 20.155 434.175 20.7791 433.894 21.446C433.613 22.1129 433.403 22.8851 433.163 23.4713C432.924 24.0575 432.701 24.5349 432.539 25.3439C432.378 26.153 432.314 26.5005 432.174 27.1323C432.034 27.7642 431.928 28.8523 431.928 29.4841C431.928 30.1159 431.928 30.6424 431.893 31.3444C431.858 32.0465 431.858 32.6081 431.858 33.3101C431.858 34.0121 431.823 35.03 431.823 35.03C431.823 35.03 430.133 35.0976 429.532 35.1216C428.932 35.1456 428.043 35.0976 427.37 35.0255C426.697 34.9534 425.976 34.8573 425.256 34.6171C424.535 34.3768 423.838 33.8242 423.43 33.5839C423.021 33.3437 422.276 32.8391 421.748 32.4547C421.219 32.0703 420.787 31.7339 420.45 31.4215C420.114 31.1092 419.489 30.4124 419.273 30.1241C419.057 29.8358 418.72 29.4754 418.495 29.0892C418.269 28.7029 417.928 27.6975 417.663 27.3371C417.399 26.9767 416.942 26.6643 416.438 26.4961C415.933 26.328 415.387 26.3036 414.804 26.4C414.221 26.4965 413.969 26.7846 413.723 27.0247C413.477 27.2648 413.411 28.0098 413.363 28.2981ZM436.983 26.7813C437.123 26.1144 437.264 25.623 437.439 24.8157C437.615 24.0084 437.931 23.3064 438.211 22.7096C438.492 22.1129 438.703 21.7619 439.124 21.2354C439.545 20.7089 439.931 20.4632 440.353 20.0771C440.774 19.691 441.541 19.1798 442.526 19.1019C443.512 19.0241 444.399 19.414 444.399 19.414C444.399 19.414 445.337 19.9367 445.583 20.0771C445.828 20.2175 446.144 20.7089 446.355 21.0248C446.565 21.3407 446.846 21.9725 446.896 22.535C446.946 23.0975 447.022 23.9382 446.896 24.4076C446.77 24.8771 446.53 25.4475 446.272 25.9681C446.013 26.4888 445.407 27.3429 445.023 27.8408C444.64 28.3386 444.108 29.0629 443.687 29.5192C443.266 29.9755 442.459 30.7126 441.902 31.2739C441.346 31.8351 441.055 32.0465 440.668 32.3975C440.282 32.7485 439.545 33.3803 439.054 33.626C438.562 33.8717 437.86 34.1525 437.299 34.2929C436.737 34.4333 436.07 34.4333 436.07 34.4333C436.07 34.4333 436.105 33.4154 436.14 32.3975C436.176 31.3795 436.246 30.853 436.351 30.151C436.456 29.449 436.562 29.1682 436.667 28.4311C436.772 27.694 436.842 27.4482 436.983 26.7813ZM417.54 47.3687L417.331 44.0111C417.331 44.0111 416.98 46.468 416.993 47.5218C417.006 48.5755 417.24 50.244 417.24 50.244L417.54 47.3687Z" fill="black"/>
<path d="M417.331 44.0111L417.54 47.3687L417.24 50.244C417.24 50.244 417.006 48.5755 416.993 47.5218C416.98 46.468 417.331 44.0111 417.331 44.0111Z" fill="black"/>
<path d="M400.462 36.3863C400.435 37.305 400.559 37.1152 400.722 37.7918C401.37 36.7058 401.615 36.4353 401.712 35.3276C401.028 35.2934 400.728 35.6251 400.462 36.3863Z" fill="black"/>
<path fill-rule="evenodd" clip-rule="evenodd" d="M282.899 16.9642C282.829 17.3384 282.752 18.6271 282.806 20.0745C282.859 21.5219 282.97 23.4421 283.063 24.8452C283.157 26.2484 283.269 28.1128 283.377 29.7063C283.484 31.2997 283.736 34.3347 283.788 35.9301C283.841 37.5256 283.953 39.9537 283.953 40.939C283.953 41.9244 283.985 43.5773 283.985 44.6263C283.985 45.6752 283.985 47.2328 283.985 47.2328C283.985 47.2328 283.191 47.4553 282.753 47.418C282.314 47.3808 281.474 47.3599 281.474 47.3599C281.474 47.3599 278.853 45.083 278.383 44.6871C277.913 44.2913 276.301 43.2336 275.82 42.9377C275.339 42.6418 272.804 41.3827 272.084 41.1253C271.364 40.868 269.162 40.1266 268.708 40.0056C268.254 39.8846 267.004 39.5403 265.944 39.5348C264.884 39.5294 263.503 39.7198 262.778 40.0056C262.053 40.2915 261.543 40.7185 261.53 41.5661C261.517 42.4138 261.948 43.307 262.319 43.8994C262.691 44.4918 262.948 44.8241 263.429 45.3789C263.91 45.9337 264.428 46.5995 265.056 47.2653C265.685 47.9311 266.21 48.3003 266.835 48.7445C267.461 49.1887 269.012 50.1591 269.956 50.6171C270.901 51.075 271.819 51.4029 272.765 51.5534C273.712 51.7038 275.709 51.8148 276.449 51.8518C277.188 51.8888 280.147 51.5929 280.147 51.5929C280.147 51.5929 280.635 53.3024 280.88 54.0502C281.124 54.798 281.683 56.4401 282.046 57.2773C282.409 58.1146 283.118 60.1372 283.377 60.9164C283.636 61.6957 284.132 63.3913 284.313 64.0374C284.494 64.6836 285.225 66.2729 285.384 67.1948C285.543 68.1166 285.115 69.6249 285.249 69.9674C285.384 70.3098 285.748 70.4919 286.186 70.5916C286.624 70.6913 287.502 70.0699 287.746 69.9674C287.99 69.8648 288.695 69.2375 288.995 68.4069C289.294 67.5762 289.007 64.9061 288.88 63.5711C288.753 62.236 288.37 59.3559 288.37 59.3559C288.37 59.3559 288.149 57.6588 288.022 56.3873C287.895 55.1159 287.831 54.0987 287.831 53.4312C287.831 52.7636 287.863 50.5068 287.863 50.5068L289.931 49.3687C289.931 49.3687 291.646 48.4725 292.186 48.2182C292.727 47.9639 293.839 47.2964 294.348 47.0739C294.856 46.8513 296.509 45.8024 296.986 45.5799C297.463 45.3574 299.417 44.0197 299.918 43.7508C300.419 43.482 302.835 42.1152 302.835 42.1152C302.835 42.1152 304.552 41.0893 305.06 40.7483C305.568 40.4073 306.522 39.7312 306.784 39.3814C307.047 39.0317 307.348 38.3008 306.784 37.8209C306.22 37.3411 304.71 37.7604 304.287 37.8209C303.865 37.8814 303.057 38.3961 302.676 38.5868C302.294 38.7776 300.832 39.6358 300.419 39.8583C300.006 40.0808 298.861 40.8755 298.48 41.098C298.098 41.3205 297.208 41.988 296.795 42.2105C296.382 42.433 295.524 42.878 295.206 43.0687C294.888 43.2595 293.848 43.732 293.362 43.9906C292.876 44.2491 292.044 44.7219 291.469 45.0309C290.894 45.34 290.296 45.6368 289.675 45.9295C289.054 46.2223 287.863 46.5971 287.863 46.5971L287.746 40.6298C287.746 40.6298 287.711 35.1905 287.623 32.1416C287.536 29.0928 287.483 23.863 287.434 22.84C287.385 21.8171 287.415 20.2591 287.296 19.0689C287.177 17.8788 286.917 16.6441 286.758 16.2158C286.599 15.7876 286.431 15.1167 286.033 14.8127C285.636 14.5087 285.285 14.4152 284.937 14.4133C284.59 14.4114 284.232 14.3918 283.689 14.7254C283.145 15.059 282.97 16.59 282.899 16.9642ZM272.141 44.9993C271.31 44.5826 268.903 44.0474 268.755 44.3063C268.607 44.5652 270.974 46.6365 270.974 46.6365C270.974 46.6365 272.284 47.4753 272.972 47.7831C273.659 48.091 276.116 48.116 276.116 48.116C276.116 48.116 275.006 46.8954 274.638 46.5598C274.27 46.2241 272.972 45.4159 272.141 44.9993Z" fill="black"/>
<path d="M49.6246 4.43318C49.6246 6.30579 49.9982 7.49294 50.8731 7.55419C51.748 7.61544 52.4334 7.49294 53.7426 6.86874C55.0517 6.24454 56.1162 5.99369 57.115 5.99369C58.3634 5.99369 63.5727 6.60032 65.4453 6.60032C66.9434 6.60032 69.4214 6.76412 70.9819 6.76412C72.5424 6.76412 77.3387 7.36693 78.3374 6.61789C79.3361 5.86884 79.5863 5.36948 79.5863 4.43318C79.5863 3.49687 78.9616 3.22838 78.3374 3.18477C74.676 2.92898 64.6255 2.06533 63.9807 1.93637C62.4202 1.62426 55.2419 1.00006 53.6814 1.00006C52.856 1.00006 51.6781 1.52396 50.873 2.24847C50.1561 2.89371 49.6246 3.68352 49.6246 4.43318Z" fill="black"/>
<path fill-rule="evenodd" clip-rule="evenodd" d="M44.5319 50.4867C44.5319 50.4867 45.7696 41.1427 45.8568 40.6023C45.944 40.0619 46.0137 38.6324 46.1915 37.5159C46.4713 36.8208 46.766 36.5687 47.4399 36.2675C48.4076 36.3691 48.4382 36.5343 48.7681 36.8891C49.6609 37.8453 49.6187 38.4325 49.9857 39.4234C50.1827 40.7821 50.0232 41.8226 49.8837 43.0603L49.1864 48.203L55.5546 45.6306C55.5546 45.6306 58.6828 44.6142 60.0335 44.164C61.3841 43.7137 64.36 42.9291 65.3797 42.6445C66.3995 42.3599 69.2628 41.8566 70.726 41.6315C72.1892 41.4064 75.0593 41.4627 76.5224 41.6315C77.9856 41.8003 79.4586 42.1463 80.6306 42.8133C81.8027 43.4803 82.3752 45.5146 82.3752 45.5146C82.3752 45.5146 82.5437 46.8586 82.7128 47.9907C82.882 49.1229 83.3471 50.6957 84.4574 50.8046C85.5677 50.9134 87.3582 49.8516 88.0591 49.4539C88.76 49.0563 88.1049 49.5362 89.1503 48.6999C90.1956 47.8637 90.3151 47.6546 91.1812 46.7287C92.0474 45.8028 92.6447 44.9964 92.6447 44.9964C92.6447 44.9964 90.8552 43.6147 90.4613 42.9957C90.0674 42.3766 89.9148 41.8706 89.8827 41.0027C89.8506 40.1347 89.7863 39.8133 90.2684 38.7203C90.7506 37.6274 91.018 37.4725 91.4578 37.0488C91.8977 36.6251 93.0154 36.0298 93.6107 35.8111C94.206 35.5924 95.1901 35.4952 95.7974 35.5058C96.4048 35.5164 97.5238 35.406 98.6912 36.0086C99.8586 36.6111 100.348 37.1007 100.649 37.9292C100.951 38.7577 101.025 39.6734 100.875 40.6783C100.726 41.6832 99.5573 43.8417 99.5573 43.8417C99.5573 43.8417 101.403 44.0676 102.834 43.7663C104.265 43.4651 104.039 43.6534 105.206 43.1261C106.374 42.5989 105.723 42.7958 107.277 42.147C108.831 41.4982 109.471 41.2508 110.626 40.7874C111.78 40.3239 113.946 39.4367 113.946 39.4367L118.911 36.8917L123.281 34.3949C123.281 34.3949 127.008 32.5862 127.962 32.5223C128.916 32.4585 129.521 32.0234 130.147 32.5223C130.773 33.0212 130.544 33.1696 130.771 33.7707C130.998 34.3719 131.296 34.5357 132.019 34.707C132.743 34.8784 131.823 34.7608 133.268 34.707C134.712 34.6532 136.457 34.6532 137.301 34.4281C138.145 34.203 140.021 33.874 140.758 33.7707C141.495 33.6674 144.612 33.189 145.44 33.1465C146.268 33.104 148.39 33.2221 149.185 33.1465C149.98 33.0709 150.346 32.8354 151.058 32.5223C151.769 32.2092 152.329 31.5925 153.242 31.586C154.156 31.5795 155.074 32.2057 155.427 32.5223C155.78 32.8389 155.958 33.178 156.051 33.7707C156.144 34.3634 155.448 37.7094 155.448 37.7094C155.448 37.7094 156.836 36.6106 157.874 35.8576C158.913 35.1047 160.426 33.837 160.883 33.5017C161.341 33.1665 164.264 31.2149 164.927 30.7509C165.59 30.287 168.245 28.3517 169.302 27.7682C170.358 27.1846 173.299 25.6429 174.465 25.0319C175.632 24.4208 177.95 23.3283 179.459 22.8472C180.968 22.366 184.765 21.2867 184.765 21.2867C184.765 21.2867 187.106 20.7058 187.574 20.6625C188.041 20.6191 189.029 20.4834 189.758 20.6625C190.487 20.8415 191.186 21.4604 191.319 21.9109C191.451 22.3613 191.557 23.7481 191.319 24.4077C191.08 25.0672 190.382 25.9682 190.382 25.9682L186.325 28.7771C186.325 28.7771 185.246 30.2946 185.075 31.2575C184.904 32.2205 184.839 34.3363 184.964 35.0384C185.09 35.7405 185.991 36.4099 186.558 36.5582C187.125 36.7065 188.232 36.8917 188.822 36.8917C189.412 36.8918 192.255 36.2675 192.255 36.2675C192.255 36.2675 196.894 35.4113 197.864 35.1867C198.834 34.9621 202.013 34.0228 202.866 33.7707C203.72 33.5186 205.96 32.7492 206.47 32.5319C206.979 32.3146 208.823 31.5294 209.782 31.0718C210.741 30.6141 211.809 29.7207 211.809 29.7207C211.809 29.7207 210.234 27.0834 210.045 26.5924C209.855 26.1014 209.423 24.1522 209.421 23.4714C209.418 22.7906 209.515 21.8478 210.045 20.6625C210.574 19.4772 211.58 18.7691 211.917 18.4777C212.255 18.1864 213.485 17.2828 214.216 16.8149C214.948 16.347 215.874 15.8154 216.911 15.3567C217.948 14.8981 220.18 14.6596 220.968 14.7325C221.756 14.8055 224.368 14.9493 225.026 15.3567C225.683 15.7641 226.823 16.8853 226.898 17.5414C226.974 18.1976 227.063 19.9012 226.898 20.6625C226.734 21.4237 225.985 23.7967 225.65 24.4077C225.314 25.0186 224 26.9388 223.305 27.5258C222.61 28.1129 221.414 29.1855 220.632 29.6274C220.323 29.8023 218.826 30.8321 218.826 30.8321C218.826 30.8321 219.799 31.5424 220.526 31.8563C221.253 32.1702 222.134 32.5321 222.833 32.8686C223.532 33.205 225.395 33.6739 225.65 33.7707C225.904 33.8675 228.292 34.5232 229.596 35.0004C230.9 35.4776 233.765 36.2675 233.765 36.2675C233.765 36.2675 237.335 37.2012 238.446 37.5159C239.557 37.8307 242.507 38.4851 243.44 38.7643C244.372 39.0436 246.322 39.4749 246.873 40.0127C247.423 40.5506 248.561 41.5647 248.433 42.5096C248.305 43.4544 247.681 43.969 246.873 44.0701C246.065 44.1712 245.585 44.1527 245 44.0701C244.415 43.9874 244.064 42.5096 244.064 42.5096C244.064 42.5096 241.763 42.1312 240.943 41.8854C240.123 41.6396 237.058 41.396 235.325 40.9491C233.592 40.5021 228.972 39.0436 228.972 39.0436C228.972 39.0436 223.882 37.5441 223.097 37.3044C222.313 37.0647 220.787 36.4981 219.096 35.6433C217.404 34.7886 215.557 33.2292 215.557 33.2292C215.557 33.2292 214.903 33.6651 214.511 33.9266C214.119 34.1881 213.639 34.4278 213.073 34.7329C212.506 35.038 211.613 35.3867 210.981 35.6433C210.35 35.9 208.605 36.6071 207.612 36.9659C206.62 37.3248 205.38 37.871 204.427 38.1401C203.474 38.4093 200.782 39.0696 200.088 39.227C199.394 39.3845 196.532 39.9849 195.343 40.2279C194.154 40.4709 191.482 40.9894 190.932 41.0434C190.382 41.0973 188.397 41.2859 187.707 41.2658C187.017 41.2456 185.372 41.0434 184.765 40.9491C184.157 40.8548 183.593 40.6356 182.963 40.3391C182.332 40.0425 181.665 39.3753 181.665 39.3753C181.665 39.3753 180.32 38.2427 179.997 37.0401C179.675 35.8374 179.441 32.8514 179.589 31.5911C179.738 30.3308 180.182 27.4396 180.182 27.4396C180.182 27.4396 179.973 27.0722 179.509 27.2379C179.045 27.4036 178.204 27.8136 177.847 28.0326C177.49 28.2517 176.513 28.8481 175.93 29.0607C175.347 29.2733 173.776 30.287 172.914 30.8172C172.052 31.3475 170.656 32.1471 170.096 32.5223C169.536 32.8975 167.287 34.3949 167.287 34.3949L163.542 36.8917C163.542 36.8917 160.303 39.0049 159.822 39.3207C159.341 39.6364 157.565 40.6256 156.675 41.2727C155.785 41.9197 154.374 42.8775 154.374 42.8775C154.374 42.8775 152.168 46.1641 151.058 47.8153C149.947 49.4664 149.491 50.1249 148.561 51.2484C147.631 52.3719 146.276 54.0938 145.191 55.3144C144.105 56.5349 142.497 58.6577 141.336 59.8737C140.175 61.0897 138.704 62.5796 137.481 63.877C136.257 65.1743 135.145 66.1752 134.107 67.2501C133.07 68.3251 132.328 69.0664 131.402 69.8078C130.475 70.5491 129.962 70.8528 129.523 71.2229C129.083 71.593 127.86 72.2972 127.079 72.4105C126.297 72.5238 125.538 72.405 125.123 71.5488C124.709 70.6926 125.123 68.4997 125.289 67.3729C125.455 66.2461 126.089 64.2403 126.402 63.4204C126.714 62.6005 127.034 62.2161 127.874 60.9434C128.714 59.6706 129.105 59.1359 130.147 57.8025C131.188 56.4692 132.249 55.0721 133.475 53.7847C134.701 52.4972 137.048 50.2448 138.413 48.8134C139.779 47.3819 141.956 45.5651 142.943 44.6943C143.93 43.8234 144.778 43.362 145.675 42.7639C146.572 42.1658 149.787 39.7358 149.787 39.7358L150.339 36.7516C150.339 36.7516 145.678 37.3902 144.503 37.5159C143.329 37.6417 141.015 38.0298 139.822 38.1401C138.629 38.2505 136.963 38.7051 136.063 38.874C135.162 39.0428 132.63 39.3805 132.019 39.3885C131.409 39.3966 129.479 39.6056 128.803 39.1554C128.128 38.7051 127.903 37.6922 127.903 37.6922L126.402 37.5159C126.402 37.5159 122.613 38.9303 121.72 39.3885C120.827 39.8468 118.448 41.1813 117.351 41.5733C116.253 41.9652 114.059 43.151 113.383 43.3761C112.708 43.6012 109.376 44.928 108.769 45.1207C108.162 45.3133 104.886 46.8089 103.618 46.879C102.351 46.949 101.516 47.005 100.185 46.879C98.8545 46.7529 97.7497 46.5531 97.7497 46.5531C97.7497 46.5531 97.1095 47.1557 96.6199 47.5699C96.1304 47.9842 95.375 48.7223 94.8794 49.0637C94.3837 49.405 92.8239 50.5218 91.9279 51.3282C91.0319 52.1346 90.3163 52.558 89.5385 53.0605C88.7608 53.563 87.215 54.1811 86.3145 54.5188C85.4141 54.8565 85.189 54.7439 84.176 54.6314C83.1631 54.5188 81.8027 54.0236 81.1934 53.337C80.5841 52.6504 79.9814 52.2741 79.7302 51.4799C79.479 50.6856 79.0549 49.6228 79.0549 48.7223C79.0549 47.8219 78.2107 46.7527 77.7138 46.2548C77.2168 45.7569 76.9164 45.796 75.217 45.6306C73.5175 45.4652 72.1495 45.68 71.1762 45.6834C70.2029 45.6869 67.525 46.125 66.1113 46.415C64.6977 46.705 60.9339 48.047 60.9339 48.047C60.9339 48.047 56.2067 49.7916 54.3496 50.5232C52.4924 51.2548 49.0004 52.4968 49.0004 52.4968L48.5763 52.7355L48.3148 54.6008L47.4399 60.6115L46.2458 67.7438C46.2458 67.7438 44.9514 74.8908 44.4449 76.6354C43.9384 78.38 42.9817 81.4189 42.1342 83.0828C41.2867 84.7466 39.133 88.7536 38.0294 90.3106C36.9258 91.8676 33.6961 95.7131 32.147 97.1273C30.5978 98.5415 25.3004 102.325 23.5664 103.198C21.8324 104.07 17.7914 106.321 15.9177 106.178C14.0439 106.035 8.70943 105.787 7.49093 105.242C6.27243 104.697 3.70084 103.31 2.29393 101.453C0.887018 99.5962 0.0143568 97.1445 0.0004957 94.3184C-0.0133654 91.4924 0.260075 89.2492 1.2489 86.5159C2.23773 83.7825 4.1208 81.5116 5.30828 79.9131C6.49577 78.3146 9.10862 75.398 10.8693 73.7942C12.63 72.1904 14.9736 70.2505 18.7838 67.1523C22.3723 64.2344 27.2579 60.4537 28.4017 59.6751C30.7601 58.0699 33.351 56.4659 37.3845 54.1998C40.9662 52.1876 44.5319 50.4867 44.5319 50.4867ZM43.1199 58.8718L42.1342 66.2293C42.1342 66.2293 41.1325 73.0446 40.8362 74.4566C40.5398 75.8687 39.8184 78.3621 39.1103 80.2269C38.4023 82.0916 36.6328 84.9137 35.5801 86.5159C34.5274 88.118 32.5456 90.744 31.3353 92.0463C30.1251 93.3485 26.9477 95.6838 25.453 96.6945C23.9584 97.7053 20.9803 99.2285 20.2871 99.6241C19.5939 100.02 15.8551 101.652 15.2935 101.809C14.7319 101.966 12.41 102.044 11.2362 101.809C10.0623 101.574 8.43445 101.001 7.84192 100.662C7.24939 100.322 5.85841 98.7381 5.30622 97.7515C4.75403 96.7649 4.73001 95.4223 4.59354 94.2777C4.45708 93.133 4.93435 89.0521 5.30622 87.7643C5.67809 86.4765 6.49895 84.65 7.27818 83.4345C8.05741 82.219 9.75363 80.0003 10.6078 79.0763C11.462 78.1524 12.5301 76.879 13.6586 75.9559C14.787 75.0328 16.8836 73.2887 16.8836 73.2887L20.3876 70.6215L23.4732 68.2506L26.9074 65.7054C26.9074 65.7054 29.0865 64.0667 29.8187 63.5263C30.5509 62.9859 30.7492 62.9391 31.562 62.2712L33.3227 61.2078L35.5889 59.8132L38.3084 58.2442L40.6095 56.7799L42.3354 55.6816L43.73 54.8797L43.1199 58.8718ZM94.2551 40.637C94.4068 40.3671 94.4857 39.9601 94.8794 39.7006C95.273 39.4412 95.7067 39.3678 96.1661 39.4667C96.6254 39.5657 96.7663 39.8593 96.752 40.3249C96.7376 40.7904 96.7706 40.9419 96.6199 41.3185C96.4693 41.6951 96.3366 41.9357 96.0131 42.213C95.6897 42.4903 95.3772 42.6742 95.3772 42.6742C95.3772 42.6742 94.4367 42.0993 94.3471 41.8007C94.2575 41.502 94.1035 40.9068 94.2551 40.637ZM142.943 49.6879C142.318 50.1631 140.702 51.5152 140.335 51.83C139.968 52.1448 137.775 54.2232 137.637 54.3694C137.5 54.5156 135.751 56.4324 135.558 56.6342C135.365 56.8359 134.247 58.2758 133.871 58.7769C133.496 59.2781 132.773 60.1986 132.554 60.919C132.335 61.6394 132.243 62.1695 132.512 62.3054C132.78 62.4412 133.796 61.392 134.516 60.6115C135.237 59.8309 135.9 59.2629 136.646 58.4527C137.392 57.6426 138.841 56.3085 139.058 56.1036C139.274 55.8986 140.678 54.3727 140.992 54.0293C141.305 53.6859 142.069 52.8075 142.631 52.1847C143.192 51.5619 147.656 46.1658 147.656 46.1658C147.656 46.1658 143.568 49.2127 142.943 49.6879ZM213.478 24.4077C213.403 23.9811 213.442 23.5438 213.478 23.1593C213.514 22.7747 213.811 22.2165 214.102 21.9109C214.393 21.6053 214.806 21.1656 215.323 20.7601C215.839 20.3545 216.447 19.9674 216.853 19.7277C217.258 19.488 217.793 19.1931 218.254 18.9903C218.715 18.7875 219.682 18.3684 220.448 18.3635C221.213 18.3586 222.343 18.5894 222.529 18.7898C222.715 18.9903 222.838 19.4296 222.841 19.7262C222.844 20.0227 222.77 20.9444 222.641 21.2947C222.512 21.645 222.015 22.4745 221.646 23.0092C221.277 23.5438 220.724 24.2075 220.392 24.484C220.06 24.7605 219.606 25.2427 219.096 25.6561C218.586 26.0694 218.172 26.5608 217.627 27.0184C217.083 27.476 216.385 27.9555 215.274 28.3477C214.925 27.8901 214.707 27.4543 214.467 27.171C214.228 26.8877 214.072 26.5221 213.814 25.9506C213.556 25.3791 213.553 24.8343 213.478 24.4077Z" fill="black"/>
</svg>
