<svg width="520" height="214" viewBox="0 0 520 214" fill="none" xmlns="http://www.w3.org/2000/svg">
<rect width="520" height="214" fill="white"/>
<path d="M242.771 150.859C241.869 149.312 241.669 146.013 241.732 144.365C241.794 142.718 241.971 142.03 242.714 141.359C243.457 140.689 243.685 140.33 245.205 139.844C246.725 139.359 247.915 139.649 248.705 139.823C249.494 139.998 249.754 140.183 250.211 140.814C250.668 141.446 251.726 143.305 251.726 143.305L253.759 148.793C253.759 148.793 255.052 152.786 255.373 153.808C255.695 154.83 256.854 158.276 257.173 159.102C257.492 159.928 257.892 161.482 257.892 161.482L259.3 155.76C259.3 155.76 260.131 152.357 260.468 150.856C260.805 149.355 261.481 146.738 261.741 145.745C262 144.753 262.87 141.31 263.208 140.237C263.545 139.163 264.875 135.761 265.33 134.915C265.786 134.068 267.347 131.713 267.883 131.056C268.418 130.398 269.301 129.659 270.142 129.195C270.982 128.731 272.369 128.412 273.671 128.407C274.973 128.402 275.53 128.699 276.141 129.159C276.753 129.619 277.911 130.496 278.841 131.682C279.77 132.868 280.598 134.71 281.135 136.011C281.671 137.313 282.073 138.619 282.347 139.54C282.622 140.461 283.13 141.957 283.365 142.686C283.6 143.415 284.074 145.526 284.272 146.447C284.47 147.369 284.701 149.438 284.77 150.608C284.839 151.778 284.789 157.529 284.789 157.529C284.789 157.529 286.532 156.875 287.303 156.093C288.074 155.31 289.227 153.382 289.782 152.578C290.337 151.773 291.639 149.512 292.258 148.563C292.877 147.613 294.274 145.358 294.734 144.548C295.194 143.737 297.01 141.048 297.457 140.369C297.904 139.69 299.182 137.63 299.689 137.018C300.196 136.406 301.318 134.916 302.171 134.003C303.024 133.09 304.677 131.417 305.07 131.076C305.462 130.736 307.136 129.453 307.99 129.142C308.844 128.831 311.209 128.699 312.347 128.824C313.485 128.949 314.626 129.472 315.58 130.168C316.533 130.864 317.146 132.11 317.668 133.41C318.19 134.71 318.542 137.338 318.698 138.404C318.853 139.47 318.798 142.693 318.731 143.904C318.663 145.116 318.425 147.536 318.279 148.444C318.134 149.352 317.89 150.765 317.346 152.482C316.802 154.199 316.356 156.049 315.811 157.422C315.267 158.794 314.344 162.931 314.344 162.931C314.344 162.931 313.536 166.642 313.371 167.437C313.207 168.231 312.802 171.284 312.332 171.657C311.863 172.03 310.563 172.178 310.055 172.181C309.548 172.184 308.25 172.178 307.793 171.628C307.337 171.078 307.384 169.121 307.574 167.88C307.763 166.638 307.896 165.256 308.061 164.494C308.225 163.732 308.554 162.095 308.746 161.22C308.938 160.344 309.473 159.081 309.718 157.971C309.964 156.86 310.009 156.054 310.403 154.539C310.797 153.025 311.038 151.058 311.038 151.058C311.038 151.058 311.578 148.787 311.724 147.778C311.869 146.769 312.117 146.213 312.309 144.499C312.5 142.784 312.446 142.129 312.437 140.718C312.429 139.307 312.246 138.448 312.195 137.943C312.143 137.438 311.726 136.252 311.183 135.949C310.64 135.646 309.693 135.785 309.183 135.961C308.673 136.137 307.894 136.613 307.248 137.068C306.602 137.523 305.062 139.139 304.704 139.488C304.346 139.837 302.681 141.832 302.222 142.503C301.762 143.174 300.669 144.804 300.307 145.455C299.944 146.105 298.659 148.002 298.156 148.822C297.654 149.643 296.434 151.809 295.98 152.557C295.525 153.304 294.024 155.528 293.745 156.038C293.466 156.547 291.596 159.631 291.327 160.069C291.058 160.506 289.643 163.054 289.348 163.58C289.053 164.107 287.243 167.071 286.872 167.595C286.501 168.119 285.543 169.395 285.145 169.847C284.747 170.298 283.433 171.661 282.449 171.639C281.465 171.617 280.547 170.2 280.238 169.622C279.929 169.045 279.429 167.095 279.239 166.08C279.049 165.066 278.903 161.355 278.827 160.143C278.751 158.932 278.725 157.32 278.603 156.09C278.48 154.861 278.227 152.313 278.114 151.519C278.001 150.726 277.479 148.218 277.249 147.153C277.019 146.088 276.648 144.225 276.411 143.15C276.174 142.076 275.62 140.421 275.352 139.544C275.083 138.666 274.842 137.856 274.454 137.204C274.065 136.553 273.367 135.52 272.522 135.486C271.676 135.453 270.531 136.767 270.189 137.195C269.848 137.623 268.776 138.896 268.358 139.855C267.94 140.814 266.731 144.216 266.731 144.216C266.731 144.216 265.494 149.443 265.267 150.224C265.041 151.006 264.528 154.868 264.3 155.73C264.073 156.593 263.327 160.236 263.327 160.236C263.327 160.236 262.045 165.317 261.782 166.605C261.519 167.893 261.202 171.551 261.263 172.536C261.323 173.521 261.301 179.014 261.306 179.815C261.311 180.615 262.283 184.977 261.98 185.745C261.677 186.513 261.063 187.75 260.495 188.254C259.928 188.757 258.961 189.364 257.501 189.272C256.041 189.179 255.973 188.654 255.241 188.003C254.509 187.353 254.802 187.569 254.067 186.409C253.332 185.249 253.255 184.594 252.957 183.431C252.659 182.269 252.505 180.814 252.497 179.431C252.488 178.048 252.614 174.699 252.898 173.532C253.182 172.366 253.962 168.868 253.962 168.868C253.962 168.868 252.266 165.238 251.674 163.641C251.082 162.043 250.346 160.664 249.827 159.139C249.309 157.613 249.382 157.759 248.866 156.597C248.35 155.435 247.832 154.128 247.832 154.128L246.651 151.297C246.651 151.297 243.673 152.406 242.771 150.859Z" fill="black"/>
<path fill-rule="evenodd" clip-rule="evenodd" d="M332.513 139.853C333.366 138.38 334.304 136.888 335.676 134.802C337.049 132.717 339.253 130.167 340.64 128.773C342.028 127.378 342.849 127.004 344.125 126.252C345.401 125.499 346.325 125.303 348.085 124.886C349.845 124.469 351.946 124.58 353.616 124.695C355.286 124.81 356.537 125.225 358.122 125.668C359.707 126.111 361.632 127.038 362.634 127.641C363.636 128.244 364.936 129.322 366.144 130.409C367.352 131.496 367.832 132.143 368.577 133.213C369.321 134.282 370.681 137.159 370.681 137.159C370.681 137.159 370.814 137.091 372.021 136.95C373.229 136.809 375.243 136.998 375.243 136.998C375.243 136.998 376.502 137.44 377.197 138.054C377.891 138.667 378.239 139.263 378.214 141.048C378.19 142.833 378.21 143.742 377.952 144.916C377.695 146.089 377.583 146.429 377.099 147.642C376.615 148.854 376.23 149.8 375.265 151.433C374.3 153.065 373.325 154.692 373.325 154.692C373.325 154.692 373.731 157.269 373.85 158.858C373.97 160.448 374.177 162.25 374.192 163.089C374.208 163.929 374.714 166.501 375.02 167.981C375.325 169.461 375.955 170.544 376.492 171.301C377.029 172.058 378.102 173.184 378.639 174.017C379.177 174.851 379.625 175.665 379.565 176.293C379.505 176.921 379.804 178.04 378.939 178.544C378.074 179.048 376.346 178.764 375.506 178.508C374.666 178.252 373.289 177.569 372.106 176.531C370.922 175.494 370.857 175.36 370.337 174.242C369.816 173.125 369.543 172.362 369.255 171.103C368.967 169.844 368.545 168.202 368.389 166.858C368.233 165.515 367.785 160.554 367.785 160.554C367.785 160.554 367.077 161.557 366.794 161.902C366.51 162.246 365.868 162.974 365.136 163.833C364.405 164.692 363.27 165.925 362.537 166.734C361.803 167.544 360.351 169.113 359.602 169.772C358.854 170.431 357.194 171.853 355.862 172.747C354.531 173.64 352.333 174.803 351.428 175.169C350.523 175.535 347.4 176.591 345.928 176.742C344.456 176.893 341.961 177.254 340.428 176.775C338.894 176.296 336.6 174.725 335.41 173.805C334.22 172.884 331.723 170.603 331.248 169.816C330.773 169.028 329.176 166.635 328.859 165.344C328.542 164.053 328.395 163.142 328.335 161.347C328.275 159.552 328.211 157.821 328.305 156.347C328.399 154.873 328.561 152.801 328.775 151.344C328.989 149.887 329.217 148.083 329.745 146.338C330.273 144.593 331.66 141.325 332.513 139.853ZM344.176 134.752C343.206 135.733 342.053 137.072 341.197 138.269C340.341 139.467 339.388 140.966 338.829 141.898C338.271 142.831 337.038 145.266 336.632 146.192C336.226 147.119 335.623 149.484 335.365 150.746C335.107 152.009 334.832 154.528 334.802 155.808C334.772 157.088 334.821 159.709 334.927 160.77C335.033 161.832 335.909 163.95 336.245 164.745C336.582 165.539 337.587 167.225 338.422 168.083C339.257 168.941 340.828 170.053 341.889 170.266C342.95 170.478 344.744 170.329 345.389 170.245C346.034 170.161 347.524 169.844 348.328 169.638C349.132 169.432 350.677 168.518 351.271 168.077C351.865 167.635 353.142 166.791 353.809 166.116C354.476 165.441 356.079 164.156 356.546 163.616C357.012 163.077 358.348 161.995 359.015 161.387C359.683 160.779 360.615 159.566 361.149 159.16C361.684 158.754 362.282 157.811 362.748 157.204C363.214 156.597 364.149 155.787 364.613 154.911C365.078 154.036 365.279 154.035 365.745 153.361C366.21 152.687 366.705 151.798 366.705 151.798C366.705 151.798 366.602 150.972 365.966 149.465C365.329 147.958 365.433 148.191 365.023 146.986C364.613 145.78 364.685 144.443 364.745 143.301C364.805 142.16 366.202 140.139 366.202 140.139C366.202 140.139 364.107 136.978 363.495 136.33C362.884 135.682 362.383 135.154 361.782 134.626C361.182 134.099 360.715 133.637 359.748 132.946C358.782 132.255 358.049 131.795 358.049 131.795C358.049 131.795 357.182 131.136 356.085 130.878C354.989 130.619 354.37 130.557 353.097 130.53C351.824 130.504 350.419 130.483 349.652 130.719C348.885 130.954 348.184 131.265 347.1 132.06C346.015 132.854 345.146 133.77 344.176 134.752ZM371.278 147.031C371.01 145.949 370.813 146.254 370.847 144.782C371.267 143.56 371.743 143.026 372.84 143.074C372.696 144.85 372.305 145.285 371.278 147.031Z" fill="black"/>
<path d="M465.398 88.0247C464.236 88.9029 464.33 89.3046 463.916 91.0336C463.503 92.7626 463.836 94.5663 464.029 96.6446C464.223 98.723 464.593 100.009 464.517 102.519C464.441 105.029 464.716 106.786 464.641 108.123C464.565 109.461 464.665 112.135 464.674 113.638C464.683 115.142 464.342 119.78 464.264 120.783C464.187 121.786 463.86 124.426 463.87 126.181C463.881 127.935 463.817 131.278 463.817 131.278C463.817 131.278 463.189 137.965 463.199 139.72C463.21 141.474 462.975 144.149 462.986 145.904C462.996 147.658 462.919 148.662 463.092 149.747C463.266 150.832 463.455 152.069 463.788 153.035C464.12 154.002 465.218 155.693 466.225 156.579C467.232 157.465 468.058 158.444 469.824 158.999C471.59 159.555 472.219 159.171 473.824 158.975C475.428 158.78 476.512 158.356 477.427 157.765C478.343 157.175 478.895 156.936 479.841 156.247C480.458 155.799 481.338 155.068 481.338 155.068C481.338 155.068 482.276 156.758 483.035 157.944C483.794 159.129 484.835 160.282 485.845 161.623C486.856 162.964 487.643 163.711 488.778 164.832C489.912 165.953 490.889 166.856 491.582 167.604C492.276 168.351 492.434 168.476 493.598 169.346C494.762 170.216 495.329 170.714 496.399 171.491C497.469 172.268 499.701 173.57 500.486 174.004C501.272 174.438 502.422 175.555 503.13 176.056C503.838 176.556 504.659 177.186 505.437 177.786C506.214 178.387 507.1 178.713 507.817 179.223C508.533 179.733 509.768 180.621 510.678 180.897C511.588 181.174 512.166 181.291 512.958 181.241C513.749 181.192 514.596 180.655 514.952 180.23C515.308 179.805 515.237 178.427 514.937 177.73C514.637 177.033 513.309 175.619 512.922 175.242C512.535 174.865 511.073 173.658 510.41 173.257C509.747 172.855 508.182 172.235 507.401 171.775C506.619 171.314 504.386 169.293 504.386 169.293C504.386 169.293 502.233 167.446 501.371 166.811C500.509 166.175 499.716 165.644 498.771 164.898C497.827 164.152 496.726 163.344 495.56 162.16C494.394 160.977 493.417 160.012 492.323 158.865C491.23 157.718 490.042 156.179 489.977 155.772C489.911 155.365 489.839 153.736 489.96 152.921C490.08 152.106 491.242 150.871 491.73 150.436C492.219 150 493.286 148.735 493.909 148.042C494.531 147.349 496.803 145.658 497.242 145.335C497.681 145.012 498.896 143.814 499.333 143.529C499.77 143.245 500.896 142.299 501.721 141.808C502.546 141.317 503.6 140.63 504.212 140.293C504.825 139.957 504.935 139.875 505.706 139.284C506.478 138.694 506.634 138.386 507.194 137.275C507.755 136.164 507.481 135.714 507.179 134.775C506.878 133.837 506.289 133.009 505.164 132.287C504.04 131.566 503.296 131.49 502.122 131.677C500.948 131.865 500.225 131.87 499.164 132.323C498.104 132.777 497.88 132.878 497.161 133.606C496.442 134.333 495.998 134.729 494.823 135.79C493.649 136.851 493.023 137.066 492.197 137.865C491.372 138.664 490.414 139.342 488.716 140.886C487.017 142.43 486.369 143.254 485.734 143.904C485.098 144.554 483.943 145.8 483.249 146.419C482.554 147.037 481.333 147.715 480.524 148.533C479.715 149.352 478.546 150.353 477.776 150.952C477.005 151.55 476.209 152.718 475.288 152.967C474.366 153.215 473.14 153.55 472.142 152.923C471.144 152.296 471.045 150.941 470.77 149.994C470.494 149.047 470.306 148.323 470.385 146.424C470.464 144.525 470.377 145.068 470.459 143.711C470.542 142.354 470.537 141.631 470.62 140.365C470.703 139.099 470.793 139.098 470.876 137.741C470.958 136.385 471.032 133.575 471.197 130.959C471.362 128.342 471.79 124.315 471.779 122.456C471.768 120.597 472.263 114.208 472.295 113.184C472.327 112.159 472.164 103.965 472.164 103.965C472.164 103.965 472.134 98.9278 472.126 97.591C472.118 96.2542 472.022 95.7715 471.971 94.2463C471.92 92.7212 472.104 91.9591 471.916 90.9857C471.729 90.0122 471.169 89.3746 470.401 88.4947C469.633 87.6147 469.989 87.6272 468.395 87.5067C466.802 87.3861 466.561 87.1464 465.398 88.0247Z" fill="black"/>
<path fill-rule="evenodd" clip-rule="evenodd" d="M391.437 131.701C391.363 132.163 391.299 134.435 391.265 135.128C391.231 135.821 391.248 138.708 391.205 139.47C391.163 140.232 391.244 145.97 391.244 145.97L391.298 154.97L391.364 159.319C391.364 159.319 391.416 165.737 391.515 166.709C391.615 167.682 391.797 168.957 392.232 170.08C392.667 171.202 393.097 172.084 393.695 172.856C393.695 172.856 394.772 173.814 395.686 174.398C396.6 174.981 397.472 175.058 398.315 175.132C399.157 175.205 400.026 174.639 400.611 173.94C401.196 173.24 401.248 173.025 401.672 172.219C402.095 171.413 402.62 169.535 402.62 169.535L403.141 167.122C403.141 167.122 403.449 164.924 403.496 163.799C403.543 162.674 403.588 161.334 403.583 160.37C403.577 159.406 403.516 158.175 403.403 157.265C403.291 156.355 403.33 156.261 403.226 155.396C403.122 154.531 403.154 154.061 402.988 152.789C402.821 151.518 402.985 152.281 402.812 150.055C402.64 147.83 402.11 145.716 401.842 145.66C400.893 145.068 400.755 144.947 399.486 145.279C398.217 145.612 397.998 147.642 397.998 147.642C397.998 147.642 397.982 144.788 397.92 143.64C397.858 142.493 397.759 139.785 397.759 139.785C397.759 139.785 398.499 140.88 398.886 141.348C399.273 141.816 399.437 142.007 400.047 142.62C400.658 143.233 400.667 143.309 401.326 143.921C401.984 144.533 403.064 145.027 403.953 145.522C404.841 146.017 405.438 146.307 406.81 147.044C408.182 147.781 409.126 148.108 410.475 148.485C411.825 148.862 413.158 148.746 413.762 148.835C414.366 148.924 416.54 148.803 417.262 148.814C417.983 148.825 420.37 148.772 420.37 148.772C420.37 148.772 420.213 151.526 420.286 152.796C420.359 154.066 420.596 156.201 420.946 158.167C421.295 160.133 422.438 163.276 423.288 164.395C424.139 165.515 425.273 167.195 425.896 167.922C426.519 168.65 427.165 169.234 427.887 169.751C428.61 170.268 430.733 171.031 431.896 171.227C433.059 171.422 435.124 171.342 436.396 171.2C437.668 171.057 438.308 170.516 439.387 169.682C440.466 168.847 441.267 167.748 441.872 167.167C442.477 166.586 443.283 165.154 443.857 164.655C444.431 164.156 445.773 162.911 446.345 162.64C446.917 162.369 447.622 161.832 447.836 161.131C448.05 160.431 448.283 159.522 447.824 159.131C447.365 158.74 446.031 159.086 445.324 159.146C444.617 159.207 443.787 159.886 443.33 160.158C442.873 160.43 440.876 162.153 440.345 162.676C439.814 163.199 437.966 164.476 437.357 164.694C436.748 164.912 435.215 165.28 434.36 165.212C433.505 165.144 432.065 165.074 431.357 164.73C430.65 164.386 430.145 163.792 429.748 163.176C429.351 162.56 429.065 161.83 428.836 161.245C428.608 160.66 428.262 159.192 428.145 158.405C428.028 157.619 428.074 155.988 428.067 154.807C428.06 153.626 428.095 152.004 428.047 151.377C427.998 150.75 428.082 147.946 428.082 147.946C428.082 147.946 429.375 147.882 430.947 147.423C432.519 146.964 433.024 146.848 434.425 146.053C435.826 145.257 437.068 144.589 437.788 144.064C438.507 143.539 439.326 142.694 440.249 141.913C441.172 141.131 442.969 139.397 444.108 138.403C445.247 137.409 447 135.328 447.677 134.632C448.355 133.935 449.079 132.806 449.634 131.509C450.188 130.213 450.41 129.705 450.796 128.297C451.181 126.889 451.449 125.779 451.557 124.019C451.666 122.258 451.479 120.308 451.084 119.111C450.69 117.914 449.6 116.439 449.063 115.623C448.527 114.807 447.165 113.698 446.549 113.138C445.932 112.578 444.52 111.841 443.159 111.473C441.799 111.104 440.794 110.868 439.534 110.68C438.273 110.492 437.193 110.496 435.534 110.704C433.875 110.912 433.092 111.252 432.04 111.725C430.987 112.198 429.561 113.129 428.89 113.864C428.22 114.599 426.823 116.069 426.073 117.261C425.323 118.452 424.706 119.456 424.263 120.527C423.819 121.598 423.489 122.837 423.112 123.779C422.734 124.72 422.381 125.487 422.13 126.784C421.879 128.082 421.781 128.64 421.562 129.653C421.343 130.667 421.185 132.411 421.191 133.423C421.197 134.435 421.202 135.279 421.153 136.404C421.103 137.529 421.108 138.428 421.115 139.553C421.122 140.678 421.075 142.309 421.075 142.309C421.075 142.309 418.369 142.433 417.406 142.477C416.444 142.522 415.02 142.453 413.941 142.344C412.863 142.235 411.707 142.088 410.55 141.71C409.393 141.332 408.272 140.453 407.615 140.072C406.959 139.691 405.76 138.89 404.91 138.28C404.059 137.669 403.363 137.134 402.822 136.637C402.28 136.14 401.272 135.03 400.923 134.57C400.574 134.11 400.032 133.536 399.666 132.919C399.301 132.303 398.744 130.695 398.317 130.12C397.891 129.545 397.156 129.049 396.346 128.785C395.536 128.52 394.662 128.486 393.728 128.647C392.795 128.807 392.394 129.271 392.002 129.658C391.61 130.045 391.511 131.239 391.437 131.701ZM429.262 129.045C429.481 127.975 429.701 127.186 429.975 125.891C430.248 124.596 430.747 123.469 431.191 122.51C431.636 121.551 431.97 120.987 432.639 120.139C433.309 119.292 433.925 118.895 434.596 118.272C435.267 117.649 436.492 116.823 438.07 116.689C439.647 116.555 441.073 117.171 441.073 117.171C441.073 117.171 442.58 117.999 442.975 118.222C443.37 118.444 443.881 119.229 444.221 119.733C444.562 120.237 445.017 121.246 445.102 122.147C445.187 123.047 445.318 124.393 445.12 125.147C444.923 125.9 444.545 126.816 444.135 127.653C443.726 128.489 442.764 129.863 442.153 130.665C441.543 131.466 440.699 132.631 440.029 133.366C439.359 134.101 438.072 135.29 437.186 136.194C436.301 137.099 435.836 137.44 435.221 138.006C434.606 138.572 433.431 139.592 432.646 139.99C431.861 140.388 430.739 140.845 429.841 141.075C428.942 141.306 427.874 141.312 427.874 141.312C427.874 141.312 427.92 139.681 427.967 138.05C428.013 136.419 428.121 135.575 428.283 134.449C428.445 133.323 428.611 132.872 428.772 131.691C428.934 130.509 429.044 130.114 429.262 129.045ZM398.313 162.212L397.945 156.836C397.945 156.836 397.407 160.775 397.438 162.463C397.469 164.151 397.859 166.822 397.859 166.822L398.313 162.212Z" fill="black"/>
<path d="M397.945 156.836L398.313 162.212L397.859 166.822C397.859 166.822 397.469 164.151 397.438 162.463C397.407 160.775 397.945 156.836 397.945 156.836Z" fill="black"/>
<path d="M370.847 144.782C370.813 146.254 371.01 145.949 371.278 147.031C372.305 145.285 372.696 144.85 372.84 143.074C371.743 143.026 371.267 143.56 370.847 144.782Z" fill="black"/>
<path fill-rule="evenodd" clip-rule="evenodd" d="M166.336 124.148C166.228 124.748 166.117 126.813 166.216 129.132C166.316 131.45 166.511 134.525 166.674 136.772C166.838 139.019 167.036 142.005 167.223 144.556C167.411 147.108 167.843 151.968 167.942 154.523C168.042 157.079 168.246 160.967 168.255 162.546C168.264 164.124 168.331 166.772 168.341 168.453C168.351 170.133 168.366 172.628 168.366 172.628C168.366 172.628 167.095 172.992 166.393 172.937C165.691 172.881 164.345 172.856 164.345 172.856C164.345 172.856 160.124 169.233 159.367 168.604C158.611 167.974 156.017 166.295 155.244 165.826C154.471 165.356 150.398 163.364 149.242 162.958C148.086 162.553 144.551 161.386 143.822 161.197C143.094 161.007 141.089 160.468 139.39 160.469C137.692 160.471 135.481 160.789 134.323 161.254C133.164 161.719 132.35 162.408 132.338 163.766C132.325 165.124 133.025 166.55 133.625 167.496C134.226 168.441 134.641 168.971 135.417 169.856C136.193 170.74 137.029 171.801 138.042 172.862C139.056 173.922 139.9 174.509 140.906 175.215C141.912 175.92 144.407 177.46 145.924 178.185C147.441 178.909 148.916 179.426 150.433 179.658C151.951 179.889 155.151 180.048 156.337 180.1C157.522 180.152 162.26 179.65 162.26 179.65C162.26 179.65 163.058 182.384 163.457 183.58C163.856 184.775 164.767 187.401 165.356 188.738C165.946 190.076 167.101 193.31 167.523 194.555C167.945 195.801 168.757 198.513 169.053 199.546C169.348 200.58 170.535 203.119 170.798 204.594C171.062 206.069 170.391 208.49 170.61 209.037C170.828 209.585 171.413 209.873 172.115 210.028C172.818 210.184 174.219 209.18 174.609 209.013C175 208.847 176.123 207.835 176.594 206.501C177.066 205.168 176.582 200.893 176.365 198.755C176.149 196.618 175.508 192.008 175.508 192.008C175.508 192.008 175.137 189.291 174.921 187.255C174.705 185.219 174.594 183.591 174.587 182.521C174.581 181.452 174.61 177.836 174.61 177.836L177.912 175.993C177.912 175.993 180.651 174.541 181.514 174.128C182.377 173.716 184.153 172.636 184.966 172.274C185.778 171.913 188.416 170.217 189.178 169.856C189.939 169.494 193.058 167.333 193.858 166.897C194.657 166.462 198.514 164.249 198.514 164.249C198.514 164.249 201.255 162.589 202.066 162.038C202.876 161.487 204.398 160.394 204.815 159.831C205.232 159.269 205.709 158.095 204.8 157.332C203.892 156.568 201.477 157.254 200.8 157.355C200.124 157.456 198.835 158.289 198.226 158.598C197.617 158.907 195.282 160.296 194.622 160.657C193.963 161.017 192.137 162.301 191.528 162.661C190.919 163.021 189.5 164.099 188.84 164.46C188.18 164.82 186.809 165.541 186.302 165.85C185.795 166.158 184.134 166.925 183.357 167.344C182.581 167.763 181.252 168.528 180.334 169.029C179.416 169.53 178.461 170.011 177.469 170.486C176.477 170.961 174.573 171.573 174.573 171.573L174.328 162.014C174.328 162.014 174.22 153.3 174.05 148.417C173.88 143.534 173.746 135.156 173.657 133.518C173.569 131.879 173.602 129.383 173.4 127.478C173.198 125.572 172.769 123.597 172.511 122.912C172.252 122.227 171.976 121.154 171.336 120.671C170.696 120.188 170.133 120.042 169.576 120.042C169.02 120.042 168.447 120.014 167.579 120.554C166.712 121.093 166.445 123.548 166.336 124.148ZM149.37 169.164C148.035 168.504 144.174 167.67 143.94 168.086C143.705 168.502 147.517 171.798 147.517 171.798C147.517 171.798 149.624 173.129 150.728 173.616C151.832 174.102 155.768 174.119 155.768 174.119C155.768 174.119 153.978 172.174 153.385 171.64C152.792 171.106 150.705 169.823 149.37 169.164Z" fill="black"/>
<path d="M84.4146 11.0499C84.4325 14.0499 85.0424 15.9481 86.4446 16.0379C87.8468 16.1276 88.9437 15.9248 91.035 14.9122C93.1263 13.8997 94.8293 13.4876 96.4292 13.478C98.4292 13.466 106.78 14.3879 109.78 14.3699C112.18 14.3555 116.152 14.5942 118.652 14.5792C121.152 14.5642 128.841 15.4839 130.434 14.2744C132.027 13.0648 132.423 12.2624 132.414 10.7624C132.405 9.26247 131.401 8.83833 130.401 8.77446C124.533 8.39982 108.424 7.11267 107.389 6.91226C104.886 6.42724 93.3806 5.49613 90.8806 5.51111C89.5583 5.51903 87.6763 6.36962 86.3936 7.53802C85.2512 8.57859 84.4075 9.84897 84.4146 11.0499Z" fill="black"/>
<path fill-rule="evenodd" clip-rule="evenodd" d="M76.6979 84.8771C76.6979 84.8771 78.5911 69.8961 78.7255 69.0295C78.86 68.163 78.958 65.8722 79.2322 64.0819C79.6736 62.9656 80.1434 62.5589 81.2202 62.07C82.7713 62.2234 82.822 62.4877 83.3538 63.0531C84.7934 64.5763 84.7313 65.5175 85.3287 67.1013C85.6575 69.2761 85.4119 70.9445 85.2004 72.9287L84.1326 81.174L94.3098 76.9919C94.3098 76.9919 99.3116 75.3335 101.471 74.5993C103.63 73.8651 108.39 72.5795 110.021 72.1138C111.652 71.6482 116.234 70.8144 118.576 70.4397C120.918 70.0651 125.517 70.1277 127.862 70.3841C130.208 70.6405 132.571 71.1807 134.455 72.238C136.339 73.2952 137.276 76.5487 137.276 76.5487C137.276 76.5487 137.559 78.7002 137.84 80.5123C138.122 82.3244 138.882 84.8396 140.662 85.0033C142.442 85.1671 145.3 83.4488 146.419 82.805C147.538 82.1613 146.493 82.9364 148.16 81.5866C149.827 80.2369 150.016 79.9008 151.395 78.4092C152.773 76.9177 153.723 75.62 153.723 75.62C153.723 75.62 150.843 73.4237 150.206 72.4358C149.569 71.4478 149.319 70.6386 149.26 69.2485C149.2 67.8584 149.094 67.344 149.856 65.5885C150.618 63.8329 151.044 63.5822 151.745 62.8992C152.446 62.2162 154.23 61.2518 155.182 60.8957C156.134 60.5397 157.709 60.3745 158.682 60.3857C159.655 60.3968 161.447 60.2093 163.323 61.1634C165.199 62.1174 165.988 62.897 166.479 64.2214C166.969 65.5458 167.097 67.0121 166.867 68.6234C166.637 70.2347 164.786 73.7038 164.786 73.7038C164.786 73.7038 167.744 74.048 170.034 73.5517C172.323 73.0553 171.963 73.3591 173.828 72.5033C175.694 71.6475 174.654 71.9691 177.137 70.9148C179.62 69.8606 180.643 69.4581 182.488 68.7045C184.333 67.951 187.795 66.5089 187.795 66.5089L195.724 62.3842L202.7 58.3423C202.7 58.3423 208.655 55.4089 210.182 55.2975C211.709 55.186 212.674 54.4832 213.682 55.2765C214.69 56.0698 214.324 56.3096 214.694 57.2705C215.063 58.2313 215.543 58.4909 216.703 58.7585C217.863 59.026 216.389 58.8465 218.703 58.7465C221.016 58.6465 223.811 58.6297 225.161 58.261C226.511 57.8923 229.514 57.3471 230.694 57.1746C231.873 57.0021 236.861 56.2057 238.187 56.1297C239.514 56.0537 242.915 56.2226 244.187 56.0938C245.46 55.965 246.044 55.5843 247.181 55.0758C248.319 54.5674 249.209 53.5741 250.672 53.5549C252.135 53.5357 253.613 54.5301 254.181 55.0339C254.749 55.5377 255.039 56.0793 255.193 57.0279C255.348 57.9765 254.264 63.3436 254.264 63.3436C254.264 63.3436 256.478 61.5698 258.134 60.3537C259.79 59.1375 262.202 57.0921 262.932 56.5506C263.661 56.0091 268.325 52.8547 269.383 52.105C270.44 51.3553 274.676 48.2296 276.363 47.2846C278.049 46.3395 282.746 43.8416 284.609 42.8515C286.471 41.8613 290.175 40.0889 292.588 39.3036C295 38.5183 301.072 36.7527 301.072 36.7527C301.072 36.7527 304.818 35.7997 305.566 35.7258C306.315 35.6519 307.897 35.4249 309.066 35.7048C310.236 35.9847 311.362 36.9695 311.578 37.6898C311.794 38.4102 311.978 40.6308 311.602 41.6898C311.227 42.7487 310.117 44.1987 310.117 44.1987L303.644 48.7375C303.644 48.7375 301.931 51.1789 301.666 52.7232C301.401 54.2675 301.316 57.6578 301.524 58.7813C301.732 59.9048 303.183 60.9685 304.092 61.2007C305.001 61.4329 306.776 61.7189 307.722 61.7134C308.668 61.7078 313.216 60.6804 313.216 60.6804C313.216 60.6804 320.639 59.2642 322.191 58.8951C323.743 58.5259 328.826 56.9907 330.192 56.5787C331.557 56.1667 335.138 54.9124 335.952 54.5595C336.766 54.2065 339.713 52.9309 341.245 52.1886C342.776 51.4463 344.479 50.0046 344.479 50.0046C344.479 50.0046 341.931 45.7947 341.623 45.01C341.314 44.2253 340.603 41.1067 340.593 40.0161C340.582 38.9255 340.729 37.4141 341.566 35.5102C342.402 33.6062 344.007 32.4622 344.545 31.9923C345.082 31.5223 347.045 30.0629 348.212 29.3064C349.379 28.5498 350.858 27.6891 352.515 26.9444C354.171 26.1998 357.745 25.7962 359.009 25.9055C360.272 26.0149 364.457 26.2202 365.514 26.8666C366.572 27.5129 368.408 29.2981 368.535 30.3486C368.662 31.399 368.821 34.1273 368.565 35.3485C368.309 36.5696 367.133 40.3784 366.601 41.3603C366.07 42.3423 363.982 45.431 362.875 46.3781C361.767 47.3252 359.86 49.0551 358.612 49.7706C358.119 50.0537 355.731 51.7178 355.731 51.7178C355.731 51.7178 357.296 52.8465 358.464 53.3423C359.631 53.8382 361.047 54.4095 362.17 54.9418C363.293 55.4741 366.283 56.2074 366.691 56.3601C367.1 56.5127 370.932 57.5403 373.025 58.2922C375.119 59.0442 379.715 60.2821 379.715 60.2821C379.715 60.2821 385.443 61.7436 387.227 62.2372C389.01 62.7307 393.741 63.7508 395.238 64.1892C396.735 64.6277 399.863 65.2998 400.75 66.1562C401.637 67.0127 403.47 68.6264 403.274 70.1412C403.078 71.656 402.082 72.4864 400.789 72.6561C399.496 72.8259 398.728 72.8009 397.789 72.6741C396.851 72.5473 396.274 70.1831 396.274 70.1831C396.274 70.1831 392.584 69.599 391.269 69.2131C389.953 68.8272 385.04 68.4665 382.26 67.767C379.479 67.0676 372.063 64.7755 372.063 64.7755C372.063 64.7755 363.895 62.4221 362.636 62.0456C361.376 61.6691 358.927 60.776 356.209 59.4229C353.491 58.0698 350.517 55.5894 350.517 55.5894C350.517 55.5894 349.474 56.294 348.848 56.7167C348.222 57.1394 347.456 57.528 346.552 58.0222C345.647 58.5164 344.219 59.0836 343.209 59.5008C342.2 59.918 339.413 61.0675 337.825 61.6519C336.238 62.2364 334.258 63.1233 332.734 63.5636C331.209 64.0039 326.903 65.0876 325.793 65.3465C324.682 65.6054 320.104 66.5946 318.201 66.9953C316.298 67.396 312.022 68.2523 311.142 68.3441C310.262 68.4358 307.083 68.757 305.978 68.7313C304.873 68.7056 302.235 68.3974 301.261 68.2522C300.287 68.1069 299.381 67.7613 298.368 67.2923C297.356 66.8233 296.281 65.7608 296.281 65.7608C296.281 65.7608 294.114 63.9592 293.586 62.0357C293.058 60.1121 292.655 55.3307 292.881 53.3103C293.106 51.2899 293.791 46.6537 293.791 46.6537C293.791 46.6537 293.452 46.0672 292.711 46.3371C291.969 46.607 290.625 47.272 290.055 47.6263C289.486 47.9806 287.925 48.9455 286.994 49.2916C286.062 49.6378 283.555 51.2768 282.179 52.1346C280.804 52.9923 278.575 54.2868 277.681 54.8932C276.787 55.4996 273.199 57.9201 273.199 57.9201L267.223 61.9559C267.223 61.9559 262.054 65.3724 261.287 65.8828C260.52 66.3932 257.684 67.995 256.264 69.0401C254.845 70.0852 252.594 71.6331 252.594 71.6331C252.594 71.6331 249.091 76.9196 247.328 79.5754C245.565 82.2312 244.84 83.2905 243.361 85.0993C241.882 86.908 239.728 89.6796 238.001 91.6453C236.274 93.6111 233.717 97.0272 231.869 98.9864C230.021 100.946 227.679 103.347 225.732 105.437C223.784 107.527 222.013 109.141 220.36 110.873C218.708 112.605 217.527 113.8 216.05 114.996C214.572 116.193 213.753 116.684 213.053 117.281C212.353 117.878 210.401 119.018 209.149 119.207C207.898 119.396 206.681 119.213 206.008 117.846C205.336 116.478 205.979 112.961 206.234 111.154C206.488 109.347 207.486 106.128 207.978 104.812C208.471 103.495 208.98 102.876 210.313 100.829C211.647 98.7822 212.269 97.9218 213.924 95.7758C215.58 93.6297 217.267 91.3814 219.218 89.3072C221.169 87.2329 224.907 83.602 227.081 81.2957C229.255 78.9894 232.725 76.0579 234.298 74.6534C235.872 73.2488 237.225 72.5015 238.656 71.5347C240.088 70.5678 245.215 66.6442 245.215 66.6442L246.071 61.8581C246.071 61.8581 238.61 62.9258 236.729 63.1386C234.849 63.3514 231.146 63.9953 229.235 64.1835C227.325 64.3717 224.661 65.1161 223.22 65.3952C221.779 65.6743 217.726 66.2395 216.748 66.2583C215.77 66.2771 212.679 66.6304 211.593 65.9156C210.507 65.2008 210.136 63.5802 210.136 63.5802L207.73 63.3123C207.73 63.3123 201.674 65.6144 200.248 66.3571C198.822 67.0999 195.024 69.2606 193.269 69.899C191.514 70.5375 188.011 72.4581 186.931 72.8252C185.851 73.1923 180.526 75.3499 179.555 75.6643C178.584 75.9788 173.35 78.4063 171.32 78.5306C169.29 78.655 167.953 78.7527 165.82 78.5636C163.688 78.3744 161.916 78.0649 161.916 78.0649C161.916 78.0649 160.896 79.0363 160.116 79.7047C159.335 80.373 158.132 81.5628 157.342 82.1144C156.551 82.666 154.063 84.4701 152.635 85.7705C151.207 87.071 150.065 87.7561 148.824 88.5686C147.583 89.3811 145.112 90.3862 143.673 90.9358C142.234 91.4853 141.872 91.3072 140.248 91.1366C138.624 90.966 136.44 90.1857 135.457 89.0916C134.475 87.9976 133.506 87.4005 133.096 86.1305C132.686 84.8606 131.996 83.1619 131.987 81.7194C131.979 80.2769 130.616 78.5721 129.815 77.7792C129.014 76.9864 128.533 77.0518 125.809 76.8032C123.085 76.5545 120.895 76.9118 119.336 76.9266C117.777 76.9414 113.491 77.6691 111.229 78.1472C108.967 78.6253 102.951 80.8114 102.951 80.8114C102.951 80.8114 95.3944 83.6516 92.4263 84.8414C89.4582 86.0313 83.8758 88.0545 83.8758 88.0545L83.1987 88.441L82.7976 91.4317L81.4537 101.069L79.6091 112.507C79.6091 112.507 77.6041 123.969 76.8095 126.769C76.0148 129.568 74.5113 134.446 73.1695 137.12C71.8277 139.793 68.416 146.233 66.663 148.738C64.9099 151.243 59.7728 157.435 57.3046 159.715C54.8363 161.995 46.3862 168.108 43.6166 169.522C40.8471 170.937 34.3951 174.582 31.3919 174.37C28.3887 174.159 19.8404 173.812 17.8831 172.951C15.9259 172.091 11.7928 169.893 9.52111 166.932C7.2494 163.97 5.82786 160.051 5.77854 155.524C5.72922 150.996 6.14575 147.4 7.70364 143.012C9.26152 138.623 12.2564 134.967 14.1435 132.395C16.0305 129.823 20.1883 125.125 22.9936 122.539C25.7989 119.953 29.5347 116.823 35.609 111.823C41.3299 107.114 49.1203 101.01 50.9453 99.752C54.708 97.1577 58.8433 94.5632 65.2833 90.8943C71.0019 87.6363 76.6979 84.8771 76.6979 84.8771ZM74.5162 98.3238L73.0078 110.12C73.0078 110.12 71.4685 121.048 71.0073 123.313C70.5461 125.578 69.4143 129.579 68.2978 132.573C67.1814 135.568 64.3737 140.106 62.7027 142.682C61.0316 145.259 57.8819 149.485 55.9556 151.583C54.0293 153.681 48.9614 157.452 46.5767 159.086C44.1919 160.719 39.4356 163.188 38.3289 163.829C37.2221 164.469 31.2482 167.119 30.35 167.377C29.4518 167.634 25.7328 167.781 23.8501 167.415C21.9673 167.05 19.354 166.149 18.4015 165.61C17.449 165.071 15.2054 162.548 14.3113 160.973C13.4172 159.397 13.3659 157.247 13.1363 155.414C12.9067 153.582 13.6321 147.039 14.2155 144.973C14.7989 142.906 16.0964 139.972 17.3331 138.018C18.5697 136.063 21.2658 132.492 22.6254 131.004C23.985 129.515 25.6838 127.465 27.4828 125.975C29.2817 124.486 32.6237 121.672 32.6237 121.672L38.2116 117.365L43.132 113.537L48.6093 109.427C48.6093 109.427 52.0845 106.781 53.2522 105.908C54.42 105.035 54.7373 104.958 56.033 103.881L58.8434 102.16L62.4606 99.9041L66.8022 97.3646L70.4746 94.9966L73.2289 93.2206L75.4554 91.9226L74.5162 98.3238ZM156.261 68.6206C156.501 68.1868 156.624 67.5341 157.252 67.1147C157.88 66.6953 158.574 66.5735 159.311 66.7276C160.048 66.8817 160.276 67.3508 160.258 68.0967C160.239 68.8426 160.293 69.0851 160.056 69.6898C159.818 70.2946 159.608 70.6813 159.092 71.1286C158.577 71.576 158.078 71.8736 158.078 71.8736C158.078 71.8736 156.566 70.9617 156.419 70.4841C156.273 70.0065 156.02 69.0545 156.261 68.6206ZM234.346 82.6532C233.349 83.4204 230.774 85.6021 230.188 86.1099C229.603 86.6178 226.11 89.9684 225.891 90.204C225.672 90.4396 222.889 93.5271 222.582 93.8521C222.275 94.1772 220.498 96.4946 219.901 97.301C219.303 98.1075 218.155 99.589 217.811 100.745C217.466 101.901 217.325 102.752 217.756 102.967C218.187 103.182 219.805 101.491 220.951 100.234C222.098 98.9764 223.155 98.0601 224.343 96.755C225.53 95.45 227.839 93.2989 228.184 92.9685C228.528 92.6381 230.763 90.18 231.262 89.6269C231.761 89.0737 232.977 87.6593 233.87 86.6561C234.764 85.653 241.863 76.9655 241.863 76.9655C241.863 76.9655 235.343 81.886 234.346 82.6532ZM347.102 41.4771C346.978 40.7945 347.036 40.0935 347.09 39.4772C347.143 38.8608 347.614 37.9636 348.078 37.4712C348.541 36.9789 349.199 36.2706 350.022 35.6159C350.845 34.9612 351.816 34.3352 352.463 33.9474C353.11 33.5595 353.964 33.0819 354.7 32.7526C355.437 32.4233 356.982 31.7427 358.209 31.7274C359.436 31.7121 361.247 32.0711 361.547 32.3904C361.848 32.7098 362.049 33.4124 362.056 33.8874C362.064 34.3624 361.955 35.8398 361.752 36.4022C361.548 36.9645 360.759 38.2983 360.173 39.1583C359.588 40.0183 358.708 41.0869 358.179 41.533C357.65 41.9792 356.927 42.7561 356.113 43.4232C355.3 44.0903 354.642 44.8814 353.774 45.6197C352.906 46.3581 351.793 47.1329 350.016 47.7719C349.453 47.0421 349.1 46.346 348.713 45.8944C348.327 45.4429 348.073 44.8587 347.654 43.9457C347.235 43.0326 347.226 42.1598 347.102 41.4771Z" fill="black"/>
</svg>
