<svg width="40" height="190" viewBox="0 0 40 190" fill="none" xmlns="http://www.w3.org/2000/svg">
<path d="M17.6567 72.7362C17.2396 72.9717 16.353 73.0191 15.9104 73C15.4679 72.9809 15.2834 72.9333 15.1045 72.7362C14.9255 72.5392 14.8294 72.4785 14.7015 72.0769C14.5735 71.6753 14.6534 71.3618 14.7015 71.1538C14.7495 70.9459 14.7997 70.8777 14.9701 70.7582C15.1406 70.6387 15.6418 70.3626 15.6418 70.3626L17.1194 69.8351C17.1194 69.8351 18.1942 69.5004 18.4692 69.4172C18.7442 69.3341 19.6718 69.0337 19.8942 68.9509C20.1166 68.8682 20.5349 68.7651 20.5349 68.7651L19 68.3846C19 68.3846 18.0871 68.1603 17.6844 68.069C17.2817 67.9778 16.5795 67.7953 16.3134 67.7252C16.0473 67.6552 15.1236 67.4203 14.8358 67.3296C14.548 67.239 13.6361 66.8828 13.4094 66.7614C13.1827 66.6399 12.5526 66.2244 12.3768 66.0822C12.201 65.94 12.0039 65.7059 11.8806 65.4835C11.7573 65.2611 11.6739 64.8949 11.6746 64.5515C11.6754 64.2081 11.7561 64.0616 11.8806 63.9011C12.0051 63.7405 12.2426 63.4364 12.5627 63.1931C12.8828 62.9499 13.3789 62.7344 13.7295 62.5951C14.0801 62.4557 14.4317 62.3518 14.6795 62.2808C14.9274 62.2099 15.3301 62.0781 15.5263 62.0173C15.7225 61.9564 16.2904 61.8348 16.5382 61.7841C16.7861 61.7334 17.3423 61.6757 17.6567 61.6593C17.9711 61.6429 19.5162 61.6652 19.5162 61.6652C19.5162 61.6652 19.3432 61.2046 19.1343 61C18.9254 60.7953 18.4093 60.4882 18.194 60.3406C17.9787 60.1931 17.3734 59.8461 17.1194 59.6813C16.8653 59.5165 16.2618 59.1445 16.0448 59.0219C15.8277 58.8994 15.1082 58.4161 14.9265 58.2972C14.7447 58.1782 14.1935 57.838 14.0298 57.7033C13.8661 57.5685 13.4677 57.2703 13.2239 57.0439C12.98 56.8176 12.5332 56.3789 12.4423 56.2748C12.3514 56.1707 12.0093 55.7272 11.9273 55.5016C11.8452 55.276 11.8135 54.6519 11.849 54.352C11.8844 54.0521 12.0266 53.752 12.2151 53.5016C12.4036 53.2512 12.7395 53.0916 13.0895 52.956C13.4396 52.8204 14.1462 52.7317 14.4328 52.6923C14.7194 52.6529 15.585 52.6725 15.9104 52.6923C16.2358 52.7121 16.8857 52.7785 17.1294 52.8184C17.3732 52.8583 17.7523 52.9248 18.2126 53.071C18.673 53.2172 19.1695 53.3377 19.5373 53.4835C19.9051 53.6292 21.0149 53.8791 21.0149 53.8791C21.0149 53.8791 22.0107 54.0982 22.2239 54.1428C22.4371 54.1875 23.2565 54.2992 23.356 54.4235C23.4555 54.5478 23.4932 54.891 23.4932 55.0249C23.4932 55.1587 23.4893 55.501 23.3409 55.6206C23.1925 55.7401 22.6668 55.7246 22.3336 55.6726C22.0003 55.6206 21.6292 55.5834 21.4247 55.5388C21.2202 55.4942 20.781 55.4049 20.5462 55.3529C20.3114 55.3008 19.9728 55.1578 19.6749 55.0913C19.3771 55.0249 19.1604 55.0116 18.7542 54.9052C18.348 54.7989 17.82 54.7324 17.82 54.7324C17.82 54.7324 17.2107 54.5862 16.9399 54.5464C16.6691 54.5065 16.5201 54.44 16.0598 54.3869C15.5994 54.3337 15.4234 54.347 15.0443 54.347C14.6652 54.347 14.4342 54.3938 14.2985 54.4066C14.1628 54.4193 13.8434 54.5276 13.7612 54.6703C13.6789 54.813 13.7147 55.0629 13.7612 55.1978C13.8077 55.3326 13.9343 55.5388 14.0555 55.7098C14.1767 55.8808 14.6084 56.2897 14.7015 56.3846C14.7946 56.4795 15.3279 56.9217 15.5074 57.0439C15.687 57.1662 16.1231 57.457 16.2973 57.5537C16.4715 57.6503 16.9789 57.9923 17.1986 58.1262C17.4182 58.26 17.9981 58.5851 18.1983 58.7061C18.3985 58.8271 18.9936 59.2265 19.1299 59.3009C19.2662 59.3752 20.0918 59.8734 20.2089 59.945C20.3261 60.0167 21.0082 60.3938 21.1492 60.4725C21.2903 60.5512 22.0837 61.0332 22.2239 61.1318C22.3641 61.2304 22.7052 61.4853 22.8259 61.5909C22.9465 61.6965 23.3104 62.0452 23.303 62.3046C23.2956 62.564 22.9133 62.8041 22.7577 62.8846C22.6021 62.9651 22.0774 63.094 21.8045 63.1425C21.5317 63.191 20.5344 63.2236 20.2089 63.2417C19.8834 63.2599 19.4502 63.2641 19.1198 63.2945C18.7893 63.3249 18.1044 63.3877 17.8909 63.4162C17.6775 63.4446 17.0029 63.5784 16.7164 63.6373C16.4299 63.6963 15.929 63.7912 15.6399 63.8521C15.3507 63.9129 14.9054 64.0563 14.6692 64.1257C14.433 64.1952 14.2149 64.2575 14.0393 64.3589C13.8638 64.4603 13.585 64.6427 13.5746 64.8657C13.5643 65.0888 13.9154 65.3929 14.0298 65.4835C14.1443 65.5741 14.4845 65.8589 14.7415 65.9707C14.9984 66.0824 15.9104 66.4066 15.9104 66.4066C15.9104 66.4066 17.3127 66.7411 17.5224 66.8022C17.732 66.8633 18.7687 67.0046 19 67.0659C19.2313 67.1272 20.2089 67.3296 20.2089 67.3296C20.2089 67.3296 21.5718 67.6758 21.9174 67.7473C22.2631 67.8187 23.2454 67.908 23.51 67.8936C23.7747 67.8792 25.2504 67.8936 25.4655 67.8936C25.6806 67.8936 26.8539 67.644 27.0597 67.7252C27.2655 67.8064 27.5969 67.9704 27.7313 68.1209C27.8657 68.2713 28.0271 68.5271 28 68.9121C27.9728 69.297 27.8316 69.3141 27.6556 69.5061C27.4796 69.6981 27.5383 69.6213 27.2254 69.8133C26.9125 70.0052 26.7365 70.0244 26.4237 70.1012C26.1108 70.178 25.7197 70.2164 25.3481 70.2164C24.9766 70.2164 24.0771 70.178 23.7642 70.1012C23.4513 70.0244 22.5127 69.8133 22.5127 69.8133C22.5127 69.8133 21.535 70.2548 21.1048 70.4084C20.6746 70.5619 20.303 70.7539 19.8924 70.8883C19.4817 71.0226 19.5208 71.0034 19.208 71.1378C18.8951 71.2722 18.5431 71.4066 18.5431 71.4066L17.7805 71.7137C17.7805 71.7137 18.0738 72.5008 17.6567 72.7362Z" fill="black"/>
<path fill-rule="evenodd" clip-rule="evenodd" d="M14.8442 49.0509C14.45 48.8237 14.0505 48.574 13.4925 48.2088C12.9345 47.8435 12.253 47.2582 11.8806 46.8901C11.5081 46.522 11.409 46.3047 11.2089 45.967C11.0089 45.6293 10.9575 45.3852 10.8484 44.9204C10.7393 44.4556 10.7724 43.9017 10.8059 43.4615C10.8395 43.0213 10.9531 42.692 11.0746 42.2747C11.1961 41.8573 11.4483 41.3511 11.6119 41.0879C11.7756 40.8246 12.0672 40.4834 12.3612 40.1665C12.6552 39.8496 12.8299 39.7241 13.1184 39.5294C13.4068 39.3347 14.182 38.9808 14.182 38.9808C14.182 38.9808 14.164 38.9454 14.1279 38.6268C14.0919 38.3082 14.146 37.7773 14.146 37.7773C14.146 37.7773 14.2669 37.4459 14.4328 37.2637C14.5987 37.0815 14.7593 36.9907 15.2388 37C15.7182 37.0092 15.9627 37.0055 16.2774 37.0752C16.5922 37.145 16.6835 37.1749 17.0084 37.3045C17.3333 37.434 17.5868 37.5371 18.0239 37.7942C18.4611 38.0512 18.8964 38.311 18.8964 38.311C18.8964 38.311 19.5894 38.208 20.0166 38.1791C20.4438 38.1501 20.9283 38.0984 21.1538 38.0956C21.3794 38.0928 22.0713 37.9632 22.4693 37.8851C22.8673 37.8069 23.1592 37.6424 23.3635 37.502C23.5678 37.3617 23.8722 37.0803 24.0968 36.94C24.3215 36.7996 24.541 36.6826 24.7096 36.6994C24.8782 36.7162 25.1794 36.6392 25.3134 36.8681C25.4474 37.097 25.3684 37.5523 25.2982 37.7734C25.228 37.9945 25.0424 38.3566 24.7617 38.6672C24.481 38.9777 24.445 38.9945 24.1439 39.13C23.8428 39.2655 23.6375 39.3364 23.2987 39.4103C22.96 39.4842 22.5181 39.5931 22.157 39.632C21.7959 39.671 20.4624 39.7815 20.4624 39.7815C20.4624 39.7815 20.7308 39.9697 20.8228 40.045C20.9148 40.1202 21.1095 40.2908 21.3391 40.4851C21.5687 40.6793 21.898 40.9806 22.1143 41.1753C22.3307 41.3699 22.7498 41.7555 22.9256 41.954C23.1014 42.1525 23.4809 42.5925 23.7188 42.945C23.9567 43.2976 24.2654 43.879 24.3624 44.1183C24.4593 44.3577 24.7379 45.183 24.7761 45.5714C24.8143 45.9598 24.9073 46.6183 24.7761 47.0219C24.6449 47.4256 24.2194 48.0283 23.9701 48.3406C23.7209 48.6529 23.104 49.3079 22.8917 49.4319C22.6795 49.556 22.0339 49.9733 21.6865 50.0549C21.3392 50.1365 21.0943 50.1738 20.6119 50.1868C20.1295 50.1997 19.6645 50.2139 19.2686 50.1868C18.8727 50.1596 18.3165 50.1137 17.9254 50.0549C17.5342 49.9962 17.0501 49.9332 16.5821 49.7912C16.114 49.6491 15.2383 49.2782 14.8442 49.0509ZM13.4925 45.967C13.7547 46.2244 14.1125 46.5306 14.4328 46.7582C14.7531 46.9858 15.1543 47.2396 15.4039 47.3884C15.6536 47.5372 16.3057 47.8663 16.554 47.9748C16.8022 48.0833 17.4366 48.2461 17.7753 48.3161C18.1141 48.3861 18.7905 48.4626 19.1343 48.4725C19.4781 48.4824 20.1824 48.4736 20.4676 48.4474C20.7529 48.4211 21.3235 48.1936 21.5374 48.106C21.7514 48.0185 22.2061 47.756 22.4378 47.5372C22.6696 47.3184 22.971 46.9057 23.0298 46.6263C23.0886 46.347 23.0513 45.8735 23.0298 45.7033C23.0084 45.533 22.9256 45.1396 22.8715 44.9272C22.8174 44.7148 22.5745 44.3058 22.4569 44.1485C22.3392 43.9912 22.1143 43.653 21.934 43.476C21.7538 43.299 21.4112 42.8743 21.267 42.7504C21.1228 42.6265 20.8343 42.2725 20.6721 42.0956C20.5098 41.9186 20.1853 41.6708 20.0772 41.5292C19.969 41.3876 19.7166 41.2284 19.5544 41.1045C19.3921 40.9806 19.1758 40.7328 18.9414 40.6089C18.707 40.4851 18.707 40.432 18.5268 40.3081C18.3465 40.1842 18.1083 40.0525 18.1083 40.0525C18.1083 40.0525 17.8864 40.0781 17.4804 40.2437C17.0745 40.4093 17.1372 40.3823 16.8127 40.4884C16.4882 40.5946 16.129 40.5736 15.8226 40.5559C15.5161 40.5382 14.9752 40.1665 14.9752 40.1665C14.9752 40.1665 14.1228 40.7141 13.9477 40.8744C13.7725 41.0347 13.6299 41.166 13.4872 41.3235C13.3446 41.481 13.2198 41.6035 13.0326 41.8573C12.8453 42.1111 12.7205 42.3037 12.7205 42.3037C12.7205 42.3037 12.5422 42.5312 12.4709 42.82C12.3996 43.1088 12.3819 43.2719 12.3729 43.6077C12.3638 43.9434 12.3559 44.3138 12.4179 44.5164C12.4798 44.7191 12.5623 44.9045 12.774 45.1917C12.9857 45.479 13.2304 45.7096 13.4925 45.967ZM16.8351 38.8389C16.5439 38.9078 16.6256 38.9602 16.2302 38.9489C15.9026 38.8363 15.7598 38.7098 15.7746 38.4206C16.2513 38.4615 16.3677 38.5652 16.8351 38.8389Z" fill="black"/>
<path d="M1.13431 13.923C1.36837 14.2309 1.47644 14.2069 1.94028 14.3187C2.40411 14.4305 2.88922 14.3454 3.44788 14.2977C4.00654 14.2501 4.3525 14.1545 5.0267 14.1785C5.7009 14.2025 6.17351 14.1326 6.53265 14.1547C6.89179 14.1767 7.61028 14.1547 8.01431 14.1547C8.41834 14.1547 9.66383 14.2519 9.93318 14.2739C10.2025 14.2959 10.9112 14.3864 11.3825 14.3864C11.8539 14.3864 12.7517 14.4084 12.7517 14.4084C12.7517 14.4084 14.5474 14.5847 15.0188 14.5847C15.4902 14.5847 16.2084 14.6508 16.6798 14.6508C17.1512 14.6508 17.4205 14.6728 17.7123 14.6288C18.0041 14.5847 18.3369 14.5367 18.597 14.4505C18.8571 14.3643 19.3132 14.0776 19.5529 13.8135C19.7926 13.5493 20.0569 13.333 20.2089 12.8681C20.361 12.4032 20.2589 12.2367 20.2089 11.8132C20.159 11.3896 20.0467 11.1032 19.8896 10.8608C19.7325 10.6184 19.6691 10.4726 19.4856 10.2218C19.3662 10.0586 19.1713 9.82514 19.1713 9.82514C19.1713 9.82514 19.6267 9.58049 19.9465 9.3822C20.2663 9.18391 20.5777 8.91127 20.9396 8.64689C21.3015 8.38251 21.5035 8.17596 21.8065 7.87852C22.1095 7.58109 22.3535 7.32498 22.5555 7.14321C22.7575 6.96145 22.7912 6.92014 23.0268 6.61445C23.2625 6.30875 23.3971 6.16004 23.6075 5.87913C23.8179 5.59823 24.1714 5.01163 24.2892 4.80508C24.407 4.59853 24.7091 4.297 24.8447 4.11108C24.9803 3.92515 25.1509 3.70953 25.3134 3.50547C25.4759 3.30141 25.5649 3.06823 25.7031 2.88005C25.8413 2.69187 26.0818 2.3678 26.1576 2.12821C26.2333 1.88862 26.2657 1.73635 26.2537 1.52744C26.2418 1.31854 26.0987 1.0945 25.9851 0.999976C25.8714 0.90544 25.5011 0.921965 25.3134 0.999976C25.1257 1.07798 24.7437 1.42595 24.6418 1.52744C24.5398 1.62894 24.2135 2.01254 24.1045 2.18678C23.9954 2.36103 23.8263 2.77264 23.7015 2.978C23.5766 3.18335 23.0298 3.7692 23.0298 3.7692C23.0298 3.7692 22.5303 4.33415 22.3582 4.56041C22.1861 4.78667 22.0421 4.99511 21.8401 5.24296C21.6382 5.49082 21.4193 5.77999 21.0995 6.08568C20.7797 6.39138 20.5188 6.6475 20.2089 6.93404C19.8991 7.22058 19.4836 7.53152 19.3742 7.54805C19.2648 7.56457 18.8272 7.58109 18.6084 7.54805C18.3895 7.515 18.0597 7.20669 17.9435 7.07712C17.8273 6.94755 17.489 6.66402 17.3039 6.49878C17.1187 6.33354 16.6682 5.73163 16.5821 5.61536C16.4959 5.49908 16.1761 5.17687 16.1004 5.0612C16.0246 4.94553 15.7723 4.64687 15.6418 4.42854C15.5112 4.21022 15.3282 3.9313 15.2388 3.7692C15.1494 3.6071 15.1275 3.57798 14.9701 3.3736C14.8127 3.16922 14.7303 3.12753 14.4328 2.978C14.1353 2.82845 14.0138 2.89999 13.7612 2.978C13.5085 3.056 13.2851 3.20997 13.0895 3.50547C12.8939 3.80096 12.8722 3.99684 12.9208 4.30682C12.9694 4.61681 12.9694 4.80756 13.0895 5.08788C13.2097 5.36821 13.2366 5.42752 13.4309 5.61828C13.6252 5.80904 13.7306 5.92685 14.0138 6.23824C14.297 6.54964 14.3539 6.71513 14.5671 6.93404C14.7804 7.15295 14.9611 7.40663 15.3731 7.85712C15.7851 8.3076 16.0056 8.47964 16.1791 8.64832C16.3526 8.81701 16.6857 9.12345 16.8507 9.30767C17.0158 9.49189 17.1958 9.81494 17.4144 10.0295C17.633 10.2441 17.9001 10.5541 18.0597 10.7582C18.2192 10.9623 18.5317 11.1741 18.597 11.4176C18.6623 11.661 18.7503 11.9848 18.5803 12.2471C18.4102 12.5094 18.0459 12.5332 17.791 12.6044C17.5362 12.6755 17.3415 12.724 16.8314 12.7001C16.3213 12.6763 16.4671 12.7001 16.1027 12.6763C15.7384 12.6525 15.5441 12.6525 15.204 12.6286C14.864 12.6048 14.864 12.5809 14.4996 12.5571C14.1353 12.5332 13.3806 12.5094 12.6779 12.4617C11.9752 12.414 10.8941 12.2948 10.3947 12.2948C9.89524 12.2948 8.17959 12.1539 7.90438 12.1439C7.62918 12.1339 5.42753 12.1639 5.42753 12.1639C5.42753 12.1639 4.07428 12.1639 3.71515 12.1639C3.35601 12.1639 3.22617 12.1884 2.81635 12.1994C2.40654 12.2105 2.2021 12.1609 1.94028 12.2088C1.67845 12.2567 1.50627 12.4032 1.26863 12.6044C1.031 12.8055 1.03493 12.7117 0.999977 13.1318C0.965026 13.552 0.900245 13.6152 1.13431 13.923Z" fill="black"/>
<path fill-rule="evenodd" clip-rule="evenodd" d="M12.7491 33.4981C12.8732 33.5184 13.4833 33.5387 13.6694 33.5488C13.8555 33.559 14.6311 33.559 14.8358 33.5714C15.0405 33.5838 16.5821 33.5714 16.5821 33.5714L19 33.5714L20.1685 33.5609C20.1685 33.5609 21.8928 33.5573 22.1543 33.5326C22.4157 33.508 22.7586 33.462 23.0608 33.349C23.363 33.236 23.6007 33.124 23.8091 32.9676C23.8091 32.9676 24.0681 32.685 24.2264 32.4449C24.3846 32.2048 24.4067 31.9748 24.4278 31.7527C24.4489 31.5307 24.2983 31.3007 24.1112 31.1453C23.9242 30.9899 23.8666 30.9758 23.6508 30.8628C23.4349 30.7498 22.9313 30.6085 22.9313 30.6085L22.2838 30.4673C22.2838 30.4673 21.6938 30.3825 21.3916 30.3684C21.0894 30.3542 20.7297 30.3401 20.4707 30.3401C20.2116 30.3401 19.8807 30.3542 19.6361 30.3825C19.3914 30.4108 19.3663 30.4001 19.1337 30.4263C18.9012 30.4525 18.7748 30.4431 18.4331 30.485C18.0913 30.527 18.2963 30.485 17.6982 30.527C17.1001 30.5689 16.5314 30.7053 16.5158 30.7758C16.3554 31.0252 16.3225 31.0614 16.4098 31.3967C16.4971 31.732 17.0421 31.7929 17.0421 31.7929C17.0421 31.7929 16.2753 31.7926 15.9669 31.8072C15.6585 31.8217 14.931 31.8434 14.931 31.8434C14.931 31.8434 15.2263 31.6499 15.3527 31.5487C15.4791 31.4474 15.5305 31.4046 15.6962 31.2444C15.8619 31.0843 15.8824 31.082 16.0478 30.9094C16.2133 30.7368 16.3477 30.4526 16.4821 30.2191C16.6166 29.9856 16.6956 29.8285 16.8958 29.4679C17.096 29.1072 17.1853 28.8588 17.2887 28.5035C17.3921 28.1482 17.3632 27.7965 17.388 27.6373C17.4128 27.4782 17.3839 26.9046 17.388 26.7143C17.3921 26.5239 17.3818 25.8945 17.3818 25.8945C17.3818 25.8945 18.1214 25.9403 18.4627 25.923C18.8039 25.9058 19.378 25.8465 19.9068 25.7575C20.4355 25.6685 21.2815 25.3719 21.5837 25.1494C21.8858 24.927 22.339 24.6304 22.5354 24.4672C22.7318 24.3041 22.8897 24.1347 23.0298 23.945C23.1699 23.7554 23.3784 23.1964 23.4328 22.8901C23.4872 22.5837 23.4691 22.0389 23.4328 21.7033C23.3966 21.3676 23.2523 21.198 23.0298 20.9121C22.8074 20.6261 22.5133 20.4133 22.3582 20.2527C22.2031 20.0922 21.8196 19.8774 21.6865 19.7252C21.5535 19.5731 21.2211 19.2172 21.1492 19.0659C21.0774 18.9147 20.9341 18.7278 20.7462 18.6703C20.5584 18.6129 20.3147 18.5498 20.2089 18.6703C20.1032 18.7908 20.1938 19.143 20.2089 19.3296C20.2241 19.5163 20.4053 19.7362 20.4776 19.8571C20.5499 19.978 21.0096 20.5074 21.1492 20.6483C21.2889 20.7892 21.629 21.2786 21.6865 21.4395C21.7441 21.6004 21.8405 22.0053 21.8209 22.2307C21.8013 22.4562 21.7801 22.8358 21.6865 23.022C21.593 23.2081 21.4326 23.3401 21.2664 23.4439C21.1002 23.5477 20.9038 23.6219 20.7462 23.6813C20.5887 23.7407 20.1938 23.8295 19.9823 23.8592C19.7708 23.8888 19.3327 23.874 19.0154 23.874C18.6982 23.874 18.2624 23.8623 18.0939 23.874C17.9253 23.8857 17.1723 23.8592 17.1723 23.8592C17.1723 23.8592 17.1572 23.5181 17.0363 23.1028C16.9155 22.6875 16.8853 22.5541 16.6738 22.1833C16.4623 21.8125 16.2848 21.484 16.145 21.2935C16.0052 21.1029 15.7794 20.8856 15.5709 20.6409C15.3625 20.3962 14.8995 19.9197 14.6343 19.6176C14.3691 19.3155 13.8129 18.8501 13.6268 18.6703C13.4408 18.4905 13.1386 18.2977 12.7912 18.1494C12.4437 18.001 12.3077 17.9417 11.9301 17.8379C11.5524 17.7341 11.2548 17.6616 10.7819 17.6303C10.309 17.5989 9.78481 17.6451 9.46266 17.7472C9.14051 17.8493 8.7424 18.1345 8.52237 18.2747C8.30233 18.4149 8.00214 18.7722 7.85072 18.934C7.6993 19.0958 7.49903 19.467 7.39785 19.8252C7.29666 20.1834 7.23167 20.4481 7.17908 20.7802C7.1265 21.1123 7.12591 21.3973 7.17908 21.8351C7.23225 22.273 7.32231 22.4799 7.44774 22.7582C7.57317 23.0365 7.82085 23.4142 8.01725 23.5922C8.21365 23.7702 8.60644 24.1409 8.92535 24.3406C9.24426 24.5403 9.51288 24.7045 9.79992 24.8232C10.087 24.9418 10.4193 25.0308 10.6716 25.1318C10.9239 25.2329 11.1294 25.3274 11.4776 25.3956C11.8258 25.4638 11.9754 25.4905 12.2473 25.5499C12.5192 25.6092 12.9876 25.6537 13.2595 25.6537C13.5314 25.6537 13.758 25.6537 14.0602 25.6685C14.3623 25.6833 14.6041 25.6833 14.9062 25.6833C15.2084 25.6833 15.6465 25.6982 15.6465 25.6982C15.6465 25.6982 15.6755 26.4123 15.6859 26.6661C15.6962 26.9199 15.6755 27.2955 15.6445 27.5797C15.6135 27.8639 15.5721 28.1685 15.4687 28.473C15.3653 28.7776 15.1275 29.072 15.0241 29.2446C14.9207 29.4171 14.7035 29.7318 14.538 29.9552C14.3726 30.1785 14.2278 30.3612 14.0934 30.5033C13.959 30.6455 13.6591 30.9094 13.535 31.0008C13.4109 31.0921 13.2558 31.2343 13.0895 31.3296C12.9233 31.425 12.4905 31.5693 12.3354 31.6809C12.1803 31.7926 12.0459 31.9855 11.9735 32.1987C11.9011 32.4118 11.8906 32.6425 11.9321 32.889C11.9736 33.1354 12.0976 33.2419 12.201 33.3458C12.3043 33.4497 12.625 33.4778 12.7491 33.4981ZM12.0962 23.5181C11.8092 23.4587 11.5977 23.3994 11.2502 23.3253C10.9028 23.2511 10.6006 23.1176 10.3438 22.999C10.087 22.8803 9.93588 22.7914 9.70927 22.6134C9.48266 22.4354 9.37691 22.2723 9.21073 22.0943C9.04455 21.9163 8.82453 21.592 8.79102 21.1758C8.75751 20.7596 8.92535 20.3846 8.92535 20.3846C8.92535 20.3846 9.1503 19.9884 9.21073 19.8845C9.27116 19.7807 9.48266 19.6473 9.61863 19.5583C9.7546 19.4693 10.0265 19.3506 10.2686 19.3296C10.5107 19.3087 10.8725 19.2765 11.0746 19.3296C11.2767 19.3828 11.5222 19.4841 11.7462 19.5934C11.9703 19.7026 12.338 19.9587 12.5522 20.1209C12.7665 20.283 13.0782 20.5074 13.2746 20.6854C13.471 20.8634 13.7883 21.2045 14.0298 21.4395C14.2714 21.6746 14.3623 21.7977 14.5134 21.9608C14.6645 22.124 14.9364 22.4354 15.0422 22.643C15.1479 22.8507 15.2688 23.1473 15.3292 23.3846C15.3896 23.6219 15.3896 23.9037 15.3896 23.9037C15.3896 23.9037 14.9515 23.8888 14.5134 23.874C14.0753 23.8592 13.8487 23.8295 13.5465 23.785C13.2444 23.7405 13.1235 23.696 12.8063 23.6515C12.489 23.607 12.3833 23.5774 12.0962 23.5181ZM20.957 31.7328L19.5119 31.8214C19.5119 31.8214 20.5694 31.9696 21.0229 31.964C21.4765 31.9585 22.1946 31.8599 22.1946 31.8599L20.957 31.7328Z" fill="black"/>
<path d="M19.5119 31.8214L20.957 31.7328L22.1946 31.8599C22.1946 31.8599 21.4765 31.9585 21.0229 31.964C20.5694 31.9696 19.5119 31.8214 19.5119 31.8214Z" fill="black"/>
<path d="M16.2302 38.9489C16.6256 38.9602 16.5439 38.9078 16.8351 38.8389C16.3677 38.5652 16.2513 38.4615 15.7746 38.4206C15.7598 38.7098 15.9026 38.8363 16.2302 38.9489Z" fill="black"/>
<path fill-rule="evenodd" clip-rule="evenodd" d="M9.77192 91.389C9.88515 91.4107 10.2751 91.4345 10.7131 91.4179C11.1511 91.4014 11.7322 91.3673 12.1568 91.3383C12.5814 91.3094 13.1456 91.2746 13.6278 91.2414C14.11 91.2081 15.0284 91.1303 15.5112 91.1141C15.994 91.0978 16.7287 91.0629 17.0269 91.0629C17.3251 91.0629 17.8253 91.0531 18.1427 91.0531C18.4601 91.0531 18.9314 91.0531 18.9314 91.0531C18.9314 91.0531 18.9988 91.2989 18.9875 91.4344C18.9762 91.57 18.9699 91.8299 18.9699 91.8299C18.9699 91.8299 18.2809 92.6408 18.1611 92.7862C18.0413 92.9315 17.7213 93.4304 17.6317 93.5791C17.5422 93.7279 17.1612 94.5121 17.0833 94.7348C17.0054 94.9575 16.7811 95.6388 16.7445 95.7793C16.7078 95.9198 16.6036 96.3064 16.602 96.6343C16.6003 96.9622 16.658 97.3895 16.7445 97.6138C16.8309 97.838 16.9602 97.996 17.2167 98C17.4732 98.004 17.7435 97.8705 17.9227 97.7557C18.102 97.6408 18.2026 97.5611 18.3705 97.4124C18.5383 97.2636 18.7398 97.1034 18.9413 96.9089C19.1428 96.7144 19.2545 96.552 19.3889 96.3586C19.5233 96.1651 19.817 95.6852 19.9556 95.3931C20.0941 95.101 20.1934 94.8169 20.2389 94.5241C20.2844 94.2314 20.318 93.6135 20.3292 93.3846C20.3404 93.1558 20.2508 92.2403 20.2508 92.2403C20.2508 92.2403 20.7682 92.0894 20.9945 92.0138C21.2207 91.9381 21.7177 91.7652 21.971 91.6529C22.2244 91.5407 22.8364 91.3214 23.0722 91.2414C23.308 91.1613 23.8211 91.0076 24.0167 90.9517C24.2122 90.8958 24.6932 90.6696 24.9721 90.6204C25.251 90.5713 25.7075 90.7037 25.8111 90.662C25.9147 90.6204 25.9698 90.5079 26 90.3724C26.0302 90.2369 25.8421 89.9652 25.8111 89.8896C25.7801 89.8141 25.5903 89.5959 25.3389 89.5034C25.0875 89.4109 24.2795 89.4994 23.8755 89.5387C23.4716 89.5781 22.6 89.6965 22.6 89.6965C22.6 89.6965 22.0864 89.7649 21.7017 89.8042C21.3169 89.8436 21.0091 89.8632 20.8071 89.8632C20.6051 89.8632 19.9222 89.8534 19.9222 89.8534L19.5778 89.2138C19.5778 89.2138 19.3066 88.6832 19.2296 88.5161C19.1527 88.3489 18.9507 88.0047 18.8834 87.8474C18.816 87.69 18.4986 87.1787 18.4313 87.0312C18.3639 86.8837 17.9591 86.279 17.8778 86.1241C17.7964 85.9692 17.3828 85.2218 17.3828 85.2218C17.3828 85.2218 17.0724 84.6906 16.9692 84.5335C16.866 84.3763 16.6614 84.0812 16.5556 84C16.4497 83.9188 16.2285 83.8255 16.0833 84C15.9381 84.1745 16.065 84.6417 16.0833 84.7724C16.1017 84.9031 16.2574 85.153 16.3151 85.271C16.3728 85.389 16.6325 85.8413 16.6999 85.9692C16.7672 86.097 17.0077 86.451 17.075 86.569C17.1423 86.687 17.3443 86.9624 17.4117 87.0902C17.479 87.218 17.6137 87.4835 17.6714 87.5819C17.7291 87.6802 17.8721 88.0018 17.9503 88.1522C18.0286 88.3026 18.1716 88.5601 18.2651 88.738C18.3587 88.9158 18.4485 89.1008 18.5371 89.2929C18.6257 89.4851 18.7391 89.8534 18.7391 89.8534L16.9333 89.8896C16.9333 89.8896 15.2873 89.9004 14.3647 89.9276C13.4421 89.9547 11.8596 89.971 11.55 89.9862C11.2404 90.0014 10.769 89.992 10.4088 90.0289C10.0487 90.0658 9.67505 90.1461 9.54547 90.1953C9.41588 90.2444 9.21286 90.2966 9.12086 90.4195C9.02886 90.5425 9.00058 90.6511 9.00001 90.7586C8.99943 90.8661 8.9935 90.9766 9.09445 91.1448C9.1954 91.313 9.65869 91.3673 9.77192 91.389ZM18.2556 94.7172C18.1295 94.9742 17.9675 95.7189 18.0459 95.7647C18.1242 95.8104 18.751 95.0781 18.751 95.0781C18.751 95.0781 19.0048 94.6729 19.098 94.4602C19.1911 94.2475 19.1987 93.4876 19.1987 93.4876C19.1987 93.4876 18.8294 93.8309 18.7278 93.9448C18.6262 94.0587 18.3816 94.4602 18.2556 94.7172Z" fill="black"/>
<path d="M6.12175 173.785C6.73362 173.785 7.12152 173.663 7.14153 173.377C7.16154 173.092 7.12152 172.868 6.91756 172.44C6.71361 172.012 6.63164 171.664 6.63164 171.338C6.63164 170.93 6.82986 169.228 6.82986 168.616C6.82986 168.127 6.88338 167.317 6.88338 166.807C6.88338 166.297 7.08034 164.73 6.8356 164.404C6.59085 164.077 6.42769 163.996 6.12175 163.996C5.81582 163.996 5.72809 164.2 5.71384 164.404C5.63026 165.6 5.34807 168.884 5.30593 169.095C5.20395 169.604 5 171.95 5 172.46C5 172.73 5.17118 173.114 5.40791 173.377C5.61874 173.612 5.8768 173.785 6.12175 173.785Z" fill="black"/>
<path fill-rule="evenodd" clip-rule="evenodd" d="M21.1695 175.449C21.1695 175.449 18.1164 175.045 17.9398 175.017C17.7633 174.988 17.2962 174.965 16.9314 174.907C16.7043 174.816 16.6219 174.719 16.5235 174.499C16.5567 174.183 16.6106 174.173 16.7266 174.065C17.039 173.774 17.2309 173.787 17.5546 173.667C17.9986 173.603 18.3386 173.655 18.743 173.701L20.4233 173.929L19.5828 171.848C19.5828 171.848 19.2507 170.826 19.1036 170.384C18.9565 169.943 18.7001 168.971 18.6071 168.637C18.5141 168.304 18.3497 167.369 18.2761 166.891C18.2026 166.413 18.221 165.475 18.2761 164.997C18.3313 164.519 18.4443 164.037 18.6623 163.654C18.8802 163.271 19.5449 163.084 19.5449 163.084C19.5449 163.084 19.984 163.029 20.354 162.974C20.7239 162.919 21.2378 162.767 21.2734 162.404C21.3089 162.041 20.962 161.456 20.8321 161.227C20.7021 160.998 20.8589 161.212 20.5857 160.871C20.3124 160.529 20.2441 160.49 19.9416 160.207C19.6391 159.924 19.3756 159.729 19.3756 159.729C19.3756 159.729 18.9241 160.313 18.7219 160.442C18.5196 160.571 18.3542 160.621 18.0707 160.631C17.7871 160.642 17.682 160.663 17.3249 160.505C16.9678 160.348 16.9172 160.26 16.7787 160.117C16.6403 159.973 16.4458 159.608 16.3743 159.413C16.3029 159.219 16.2711 158.897 16.2746 158.699C16.278 158.5 16.242 158.135 16.4389 157.753C16.6357 157.372 16.7957 157.212 17.0664 157.113C17.3371 157.015 17.6363 156.991 17.9647 157.039C18.293 157.088 18.9983 157.47 18.9983 157.47C18.9983 157.47 19.0721 156.867 18.9737 156.4C18.8752 155.932 18.9368 156.006 18.7645 155.624C18.5922 155.243 18.6565 155.455 18.4446 154.948C18.2326 154.44 18.1517 154.231 18.0003 153.854C17.8489 153.476 17.559 152.769 17.559 152.769L16.7274 151.146L15.9116 149.719C15.9116 149.719 15.3206 148.501 15.2997 148.189C15.2789 147.877 15.1367 147.68 15.2997 147.475C15.4628 147.271 15.5112 147.345 15.7077 147.271C15.9041 147.197 15.9576 147.1 16.0136 146.863C16.0696 146.627 16.0312 146.927 16.0136 146.455C15.996 145.983 15.996 145.413 15.9225 145.138C15.8489 144.862 15.7414 144.249 15.7077 144.008C15.6739 143.767 15.5176 142.749 15.5037 142.478C15.4898 142.208 15.5284 141.514 15.5037 141.255C15.479 140.995 15.402 140.875 15.2997 140.643C15.1974 140.41 14.9959 140.227 14.9938 139.929C14.9917 139.63 15.1963 139.33 15.2997 139.215C15.4032 139.1 15.514 139.041 15.7077 139.011C15.9013 138.981 16.9946 139.208 16.9946 139.208C16.9946 139.208 16.6356 138.755 16.3895 138.415C16.1435 138.076 15.7293 137.582 15.6198 137.432C15.5102 137.283 14.8726 136.328 14.721 136.111C14.5693 135.894 13.937 135.027 13.7463 134.682C13.5557 134.336 13.0519 133.375 12.8523 132.994C12.6526 132.613 12.2956 131.856 12.1384 131.363C11.9812 130.87 11.6285 129.629 11.6285 129.629C11.6285 129.629 11.4387 128.864 11.4246 128.711C11.4104 128.559 11.3661 128.236 11.4246 127.997C11.4831 127.759 11.6853 127.531 11.8325 127.488C11.9797 127.444 12.4328 127.41 12.6483 127.488C12.8638 127.565 13.1582 127.793 13.1582 127.793L14.076 129.119C14.076 129.119 14.5718 129.472 14.8865 129.528C15.2011 129.583 15.8925 129.605 16.1219 129.564C16.3513 129.523 16.57 129.228 16.6184 129.043C16.6669 128.858 16.7274 128.496 16.7274 128.303C16.7274 128.11 16.5235 127.182 16.5235 127.182C16.5235 127.182 16.2437 125.666 16.1703 125.349C16.0969 125.032 15.79 123.993 15.7077 123.714C15.6253 123.435 15.3739 122.703 15.3029 122.537C15.2319 122.371 14.9753 121.768 14.8258 121.455C14.6763 121.141 14.3843 120.793 14.3843 120.793C14.3843 120.793 13.5226 121.307 13.3622 121.369C13.2017 121.431 12.5648 121.572 12.3424 121.573C12.1199 121.574 11.8119 121.542 11.4246 121.369C11.0373 121.196 10.8059 120.867 10.7107 120.757C10.6156 120.647 10.3203 120.245 10.1674 120.006C10.0145 119.767 9.84083 119.464 9.69097 119.125C9.54111 118.787 9.46317 118.057 9.48701 117.8C9.51085 117.542 9.55786 116.689 9.69097 116.474C9.82408 116.259 10.1904 115.887 10.4048 115.862C10.6192 115.837 11.1758 115.808 11.4246 115.862C11.6733 115.916 12.4487 116.16 12.6483 116.27C12.8479 116.38 13.4753 116.809 13.6672 117.036C13.859 117.263 14.2095 117.654 14.3538 117.91C14.411 118.011 14.7475 118.5 14.7475 118.5C14.7475 118.5 14.9796 118.182 15.0821 117.944C15.1847 117.707 15.3029 117.419 15.4129 117.19C15.5228 116.962 15.676 116.353 15.7076 116.27C15.7393 116.187 15.9535 115.407 16.1095 114.98C16.2654 114.554 16.5235 113.619 16.5235 113.619C16.5235 113.619 16.8285 112.452 16.9314 112.089C17.0342 111.726 17.248 110.762 17.3393 110.457C17.4305 110.152 17.5715 109.515 17.7472 109.336C17.923 109.156 18.2543 108.784 18.563 108.826C18.8717 108.867 19.0399 109.072 19.0729 109.336C19.1059 109.599 19.0999 109.756 19.0729 109.947C19.0459 110.139 18.563 110.253 18.563 110.253C18.563 110.253 18.4394 111.005 18.3591 111.273C18.2788 111.541 18.1992 112.542 18.0531 113.109C17.9071 113.675 17.4305 115.185 17.4305 115.185C17.4305 115.185 16.9406 116.848 16.8623 117.104C16.7839 117.36 16.5988 117.859 16.3195 118.412C16.0402 118.964 15.5307 119.568 15.5307 119.568C15.5307 119.568 15.6731 119.781 15.7586 119.91C15.844 120.038 15.9224 120.194 16.022 120.38C16.1217 120.565 16.2357 120.857 16.3195 121.063C16.4034 121.269 16.6344 121.839 16.7517 122.164C16.8689 122.488 17.0474 122.893 17.1353 123.204C17.2233 123.516 17.439 124.396 17.4905 124.622C17.5419 124.849 17.7381 125.784 17.8175 126.173C17.8969 126.561 18.0663 127.434 18.0839 127.614C18.1016 127.793 18.1632 128.442 18.1566 128.668C18.15 128.893 18.0839 129.431 18.0531 129.629C18.0223 129.828 17.9507 130.012 17.8538 130.218C17.7569 130.424 17.5389 130.642 17.5389 130.642C17.5389 130.642 17.1688 131.081 16.7759 131.187C16.3829 131.292 15.4073 131.368 14.9955 131.32C14.5837 131.272 13.639 131.126 13.639 131.126C13.639 131.126 13.5189 131.195 13.5731 131.346C13.6272 131.498 13.7612 131.773 13.8328 131.889C13.9043 132.006 14.0992 132.325 14.1687 132.516C14.2381 132.706 14.5693 133.22 14.7426 133.501C14.9159 133.783 15.1772 134.239 15.2997 134.422C15.4223 134.605 15.9116 135.34 15.9116 135.34L16.7274 136.564C16.7274 136.564 17.4179 137.622 17.5211 137.779C17.6242 137.936 17.9475 138.516 18.1589 138.807C18.3703 139.098 18.6832 139.559 18.6832 139.559C18.6832 139.559 19.7571 140.28 20.2966 140.643C20.8362 141.006 21.0513 141.155 21.4184 141.458C21.7855 141.762 22.3481 142.205 22.7469 142.56C23.1457 142.914 23.8393 143.44 24.2367 143.819C24.634 144.199 25.1208 144.679 25.5447 145.079C25.9686 145.479 26.2956 145.842 26.6469 146.181C26.9981 146.52 27.2404 146.762 27.4826 147.065C27.7248 147.368 27.824 147.536 27.945 147.679C28.0659 147.823 28.296 148.222 28.333 148.478C28.37 148.733 28.3312 148.981 28.0515 149.117C27.7717 149.252 27.0552 149.117 26.687 149.062C26.3188 149.008 25.6634 148.801 25.3955 148.699C25.1276 148.597 25.002 148.492 24.5862 148.218C24.1703 147.943 23.9956 147.815 23.5599 147.475C23.1243 147.135 22.6678 146.788 22.2471 146.388C21.8264 145.987 21.0905 145.22 20.6228 144.774C20.155 144.328 19.5614 143.617 19.2769 143.294C18.9923 142.971 18.8416 142.695 18.6461 142.401C18.4507 142.108 17.6567 141.058 17.6567 141.058L16.6816 140.877C16.6816 140.877 16.8903 142.4 16.9314 142.784C16.9725 143.168 17.0993 143.924 17.1353 144.314C17.1714 144.704 17.32 145.248 17.3751 145.542C17.4303 145.836 17.5406 146.664 17.5432 146.863C17.5459 147.063 17.6142 147.694 17.4671 147.914C17.32 148.135 16.989 148.208 16.989 148.208L16.9314 148.699C16.9314 148.699 17.3935 149.937 17.5432 150.229C17.693 150.52 18.129 151.298 18.2571 151.656C18.3852 152.015 18.7726 152.732 18.8462 152.953C18.9197 153.173 19.3532 154.262 19.4162 154.46C19.4791 154.659 19.9678 155.729 19.9907 156.143C20.0136 156.557 20.0319 156.83 19.9907 157.265C19.9495 157.7 19.8842 158.061 19.8842 158.061C19.8842 158.061 20.0811 158.27 20.2165 158.43C20.3518 158.59 20.593 158.837 20.7046 158.999C20.8161 159.161 21.181 159.67 21.4445 159.963C21.708 160.256 21.8463 160.49 22.0105 160.744C22.1747 160.998 22.3767 161.503 22.487 161.797C22.5973 162.091 22.5605 162.165 22.5238 162.496C22.487 162.827 22.3252 163.271 22.1008 163.47C21.8765 163.67 21.7535 163.866 21.494 163.949C21.2345 164.031 20.8872 164.169 20.593 164.169C20.2988 164.169 19.9494 164.445 19.7868 164.607C19.6241 164.77 19.6368 164.868 19.5828 165.423C19.5288 165.979 19.5989 166.426 19.6001 166.744C19.6012 167.062 19.7444 167.937 19.8391 168.398C19.9339 168.86 20.3724 170.09 20.3724 170.09C20.3724 170.09 20.9424 171.635 21.1814 172.242C21.4205 172.848 21.8263 173.989 21.8263 173.989L21.9043 174.128L22.5138 174.213L24.4777 174.499L26.8082 174.889C26.8082 174.889 29.1435 175.312 29.7135 175.478C30.2835 175.643 31.2765 175.956 31.8201 176.233C32.3638 176.51 33.673 177.213 34.1818 177.574C34.6905 177.935 35.947 178.99 36.4091 179.496C36.8712 180.002 38.1076 181.733 38.3926 182.3C38.6777 182.866 39.4132 184.187 39.3665 184.799C39.3197 185.411 39.2385 187.154 39.0605 187.552C38.8826 187.951 38.4294 188.791 37.8226 189.25C37.2158 189.71 36.4147 189.995 35.4913 190C34.5679 190.004 33.835 189.915 32.9419 189.592C32.0488 189.269 31.3067 188.654 30.7844 188.266C30.2622 187.878 29.3092 187.024 28.7851 186.449C28.2611 185.873 27.6273 185.107 26.6149 183.862C25.6615 182.69 24.4262 181.094 24.1718 180.72C23.6473 179.949 23.1232 179.103 22.3828 177.785C21.7253 176.615 21.1695 175.449 21.1695 175.449ZM23.9093 175.911L26.3133 176.233C26.3133 176.233 28.5402 176.56 29.0016 176.657C29.463 176.754 30.2777 176.99 30.887 177.221C31.4963 177.452 32.4184 178.03 32.9419 178.374C33.4654 178.718 34.3234 179.366 34.7489 179.761C35.1744 180.157 35.9374 181.195 36.2677 181.683C36.5979 182.172 37.0957 183.145 37.2249 183.371C37.3542 183.598 37.8874 184.819 37.9388 185.003C37.9901 185.186 38.0156 185.945 37.9388 186.329C37.862 186.712 37.675 187.244 37.5639 187.438C37.4528 187.631 36.9354 188.086 36.6131 188.266C36.2907 188.447 35.852 188.454 35.478 188.499C35.104 188.544 33.7706 188.388 33.3498 188.266C32.929 188.145 32.3322 187.876 31.9351 187.622C31.5379 187.367 30.8129 186.813 30.511 186.534C30.2091 186.255 29.7931 185.906 29.4914 185.537C29.1898 185.168 28.6199 184.483 28.6199 184.483L27.7484 183.338L26.9738 182.33L26.1422 181.208C26.1422 181.208 25.6067 180.496 25.4302 180.257C25.2536 180.018 25.2383 179.953 25.02 179.687L24.6726 179.112L24.2169 178.371L23.7042 177.483L23.2258 176.731L22.8669 176.167L22.6049 175.711L23.9093 175.911ZM17.9512 159.203C17.863 159.153 17.73 159.127 17.6452 158.999C17.5605 158.87 17.5365 158.728 17.5688 158.578C17.6011 158.428 17.6971 158.382 17.8492 158.387C18.0013 158.391 18.0508 158.381 18.1739 158.43C18.2969 158.479 18.3755 158.522 18.4661 158.628C18.5567 158.734 18.6168 158.836 18.6168 158.836C18.6168 158.836 18.429 159.143 18.3314 159.173C18.2338 159.202 18.0393 159.252 17.9512 159.203ZM20.9085 143.294C21.0638 143.498 21.5056 144.026 21.6084 144.146C21.7113 144.266 22.3904 144.983 22.4382 145.028C22.486 145.073 23.1123 145.644 23.1782 145.707C23.2441 145.77 23.7146 146.135 23.8783 146.258C24.0421 146.381 24.3428 146.617 24.5782 146.689C24.8136 146.76 24.9868 146.79 25.0312 146.702C25.0756 146.615 24.7328 146.283 24.4777 146.047C24.2227 145.812 24.0371 145.595 23.7724 145.352C23.5077 145.108 23.0718 144.634 23.0048 144.564C22.9378 144.493 22.4392 144.034 22.327 143.932C22.2148 143.829 21.9278 143.58 21.7243 143.396C21.5208 143.213 19.7577 141.754 19.7577 141.754C19.7577 141.754 20.7533 143.09 20.9085 143.294ZM12.6483 120.247C12.5089 120.272 12.3661 120.259 12.2404 120.247C12.1148 120.235 11.9324 120.138 11.8325 120.043C11.7326 119.948 11.589 119.813 11.4565 119.644C11.324 119.476 11.1975 119.277 11.1192 119.144C11.0409 119.012 10.9445 118.837 10.8782 118.687C10.812 118.536 10.675 118.22 10.6734 117.97C10.6718 117.72 10.7472 117.351 10.8127 117.29C10.8782 117.229 11.0218 117.189 11.1187 117.188C11.2155 117.187 11.5167 117.211 11.6312 117.253C11.7456 117.295 12.0167 117.458 12.1914 117.578C12.3661 117.699 12.5829 117.879 12.6733 117.988C12.7636 118.096 12.9212 118.245 13.0562 118.412C13.1913 118.578 13.3518 118.713 13.5014 118.891C13.6509 119.069 13.8075 119.297 13.9357 119.66C13.7862 119.774 13.6438 119.845 13.5512 119.924C13.4586 120.002 13.3392 120.053 13.1525 120.137C12.9657 120.222 12.7877 120.223 12.6483 120.247Z" fill="black"/>
</svg>
