<svg width="472" height="161" viewBox="0 0 472 161" fill="none" xmlns="http://www.w3.org/2000/svg">
<path d="M271.832 132.6C271.176 131.46 271.044 129.036 271.097 127.826C271.151 126.615 271.283 126.111 271.832 125.622C272.38 125.132 272.549 124.87 273.667 124.52C274.784 124.17 275.657 124.388 276.236 124.52C276.815 124.651 277.005 124.788 277.337 125.254C277.67 125.721 278.438 127.091 278.438 127.091L279.906 131.131C279.906 131.131 280.838 134.07 281.07 134.822C281.301 135.574 282.137 138.111 282.368 138.719C282.598 139.327 282.885 140.471 282.885 140.471L283.944 136.274C283.944 136.274 284.568 133.777 284.822 132.676C285.076 131.575 285.584 129.655 285.779 128.927C285.974 128.2 286.628 125.674 286.88 124.887C287.133 124.1 288.124 121.607 288.462 120.987C288.8 120.367 289.957 118.644 290.353 118.163C290.748 117.683 291.4 117.144 292.019 116.806C292.638 116.469 293.657 116.241 294.613 116.243C295.569 116.245 295.977 116.466 296.423 116.806C296.87 117.147 297.717 117.796 298.394 118.672C299.071 119.547 299.671 120.904 300.059 121.862C300.447 122.821 300.736 123.782 300.933 124.46C301.131 125.137 301.498 126.239 301.667 126.775C301.836 127.312 302.175 128.865 302.316 129.542C302.457 130.22 302.618 131.741 302.663 132.6C302.709 133.46 302.647 137.685 302.647 137.685C302.647 137.685 303.929 137.212 304.498 136.641C305.068 136.07 305.923 134.658 306.334 134.07C306.744 133.481 307.71 131.826 308.169 131.131C308.628 130.437 309.663 128.786 310.004 128.193C310.345 127.599 311.69 125.632 312.022 125.135C312.353 124.638 313.3 123.131 313.675 122.683C314.05 122.236 314.88 121.146 315.51 120.479C316.14 119.813 317.361 118.591 317.651 118.342C317.94 118.094 319.175 117.159 319.803 116.934C320.431 116.71 322.168 116.623 323.003 116.72C323.837 116.817 324.673 117.206 325.37 117.721C326.067 118.236 326.511 119.155 326.888 120.112C327.266 121.069 327.513 123.002 327.622 123.785C327.732 124.569 327.677 126.936 327.622 127.826C327.567 128.715 327.382 130.492 327.271 131.159C327.16 131.825 326.975 132.862 326.568 134.121C326.161 135.379 325.826 136.737 325.42 137.743C325.014 138.748 324.319 141.783 324.319 141.783C324.319 141.783 323.709 144.506 323.585 145.089C323.461 145.672 323.15 147.912 322.804 148.185C322.458 148.457 321.502 148.559 321.13 148.559C320.757 148.559 319.804 148.549 319.472 148.143C319.139 147.737 319.182 146.3 319.327 145.389C319.472 144.478 319.575 143.463 319.699 142.904C319.823 142.344 320.072 141.143 320.217 140.501C320.362 139.859 320.76 138.934 320.945 138.119C321.13 137.305 321.167 136.712 321.463 135.602C321.759 134.491 321.944 133.047 321.944 133.047C321.944 133.047 322.351 131.381 322.462 130.64C322.573 129.9 322.758 129.493 322.906 128.234C323.054 126.975 323.017 126.494 323.017 125.457C323.017 124.421 322.886 123.789 322.851 123.418C322.815 123.047 322.514 122.174 322.117 121.949C321.719 121.724 321.024 121.822 320.648 121.949C320.273 122.076 319.699 122.422 319.223 122.753C318.747 123.085 317.609 124.265 317.345 124.52C317.081 124.774 315.85 126.233 315.51 126.724C315.17 127.215 314.36 128.407 314.091 128.883C313.822 129.36 312.87 130.747 312.498 131.348C312.125 131.948 311.22 133.534 310.883 134.081C310.547 134.629 309.435 136.256 309.228 136.629C309.021 137.001 307.634 139.259 307.435 139.579C307.235 139.9 306.186 141.765 305.967 142.15C305.748 142.536 304.406 144.705 304.131 145.089C303.857 145.472 303.148 146.405 302.854 146.735C302.56 147.065 301.589 148.06 300.867 148.04C300.145 148.019 299.477 146.974 299.253 146.548C299.029 146.123 298.67 144.688 298.535 143.942C298.4 143.196 298.309 140.469 298.259 139.579C298.208 138.689 298.196 137.505 298.112 136.601C298.027 135.697 297.852 133.825 297.773 133.241C297.694 132.657 297.322 130.813 297.158 130.029C296.993 129.246 296.729 127.876 296.56 127.086C296.391 126.295 295.991 125.077 295.798 124.432C295.605 123.786 295.431 123.189 295.149 122.709C294.867 122.229 294.359 121.467 293.738 121.439C293.118 121.41 292.271 122.37 292.019 122.683C291.767 122.996 290.974 123.927 290.663 124.629C290.352 125.332 289.45 127.826 289.45 127.826C289.45 127.826 288.519 131.66 288.349 132.233C288.178 132.807 287.785 135.641 287.614 136.274C287.444 136.906 286.88 139.579 286.88 139.579C286.88 139.579 285.917 143.306 285.718 144.251C285.519 145.196 285.271 147.882 285.311 148.606C285.351 149.329 285.311 153.364 285.311 153.952C285.311 154.541 286.005 157.749 285.779 158.312C285.553 158.874 285.097 159.781 284.678 160.148C284.259 160.516 283.547 160.957 282.476 160.883C281.404 160.808 281.357 160.422 280.822 159.941C280.288 159.46 280.502 159.62 279.967 158.765C279.433 157.909 279.38 157.428 279.166 156.573C278.952 155.717 278.845 154.648 278.845 153.632C278.845 152.616 278.952 150.156 279.166 149.301C279.38 148.445 279.967 145.879 279.967 145.879C279.967 145.879 278.738 143.205 278.311 142.029C277.884 140.852 277.349 139.837 276.975 138.714C276.601 137.591 276.655 137.698 276.281 136.842C275.907 135.987 275.533 135.024 275.533 135.024L274.678 132.939C274.678 132.939 272.487 133.741 271.832 132.6Z" fill="black"/>
<path fill-rule="evenodd" clip-rule="evenodd" d="M337.758 124.91C338.39 123.832 339.085 122.74 340.102 121.214C341.119 119.688 342.748 117.825 343.772 116.806C344.797 115.788 345.402 115.517 346.342 114.97C347.282 114.423 347.961 114.282 349.255 113.984C350.548 113.686 352.09 113.776 353.315 113.868C354.541 113.96 355.457 114.271 356.619 114.603C357.781 114.935 359.19 115.624 359.922 116.072C360.655 116.519 361.605 117.317 362.487 118.121C363.369 118.924 363.718 119.402 364.26 120.191C364.802 120.98 365.787 123.099 365.787 123.099C365.787 123.099 365.886 123.05 366.773 122.952C367.659 122.853 369.137 123.001 369.137 123.001C369.137 123.001 370.059 123.332 370.567 123.785C371.074 124.239 371.326 124.678 371.301 125.989C371.275 127.3 371.285 127.968 371.091 128.829C370.897 129.69 370.814 129.94 370.453 130.828C370.092 131.716 369.805 132.409 369.09 133.605C368.375 134.8 367.651 135.99 367.651 135.99C367.651 135.99 367.938 137.885 368.019 139.053C368.099 140.221 368.243 141.546 368.251 142.163C368.259 142.78 368.619 144.672 368.837 145.76C369.055 146.848 369.512 147.646 369.903 148.205C370.294 148.763 371.077 149.596 371.468 150.21C371.858 150.825 372.184 151.425 372.137 151.886C372.091 152.347 372.305 153.17 371.668 153.537C371.031 153.903 369.763 153.687 369.148 153.495C368.533 153.303 367.525 152.796 366.66 152.028C365.796 151.261 365.749 151.162 365.372 150.339C364.995 149.515 364.797 148.954 364.592 148.028C364.386 147.102 364.083 145.893 363.975 144.906C363.866 143.919 363.559 140.272 363.559 140.272C363.559 140.272 363.035 141.006 362.825 141.258C362.616 141.509 362.141 142.042 361.6 142.67C361.059 143.297 360.221 144.198 359.679 144.789C359.137 145.381 358.064 146.527 357.512 147.008C356.959 147.488 355.734 148.526 354.753 149.176C353.772 149.827 352.153 150.671 351.487 150.936C350.821 151.201 348.524 151.963 347.443 152.068C346.362 152.172 344.529 152.426 343.405 152.068C342.282 151.709 340.604 150.545 339.735 149.864C338.866 149.182 337.043 147.495 336.697 146.915C336.352 146.335 335.19 144.569 334.963 143.62C334.736 142.67 334.632 142 334.596 140.681C334.56 139.362 334.521 138.091 334.596 137.008C334.672 135.926 334.8 134.405 334.963 133.335C335.127 132.266 335.302 130.942 335.697 129.662C336.093 128.382 337.125 125.988 337.758 124.91ZM346.342 121.214C345.625 121.931 344.773 122.909 344.139 123.785C343.506 124.661 342.799 125.758 342.385 126.441C341.971 127.123 341.055 128.906 340.753 129.585C340.451 130.264 339.998 131.999 339.803 132.925C339.608 133.851 339.395 135.701 339.368 136.641C339.34 137.581 339.365 139.507 339.438 140.287C339.511 141.067 340.144 142.627 340.388 143.212C340.631 143.797 341.362 145.04 341.971 145.674C342.58 146.308 343.729 147.132 344.506 147.293C345.284 147.453 346.602 147.351 347.076 147.293C347.549 147.234 348.645 147.008 349.236 146.86C349.827 146.712 350.965 146.048 351.403 145.726C351.841 145.404 352.783 144.789 353.275 144.296C353.768 143.803 354.95 142.867 355.295 142.472C355.64 142.078 356.625 141.289 357.117 140.846C357.61 140.402 358.3 139.515 358.694 139.219C359.088 138.923 359.531 138.233 359.876 137.789C360.221 137.346 360.911 136.754 361.255 136.113C361.6 135.473 361.748 135.472 362.093 134.98C362.438 134.487 362.804 133.835 362.804 133.835C362.804 133.835 362.733 133.229 362.272 132.119C361.811 131.009 361.886 131.18 361.591 130.293C361.295 129.406 361.354 128.423 361.403 127.585C361.452 126.747 362.487 125.268 362.487 125.268C362.487 125.268 360.963 122.938 360.516 122.459C360.07 121.98 359.705 121.59 359.266 121.2C358.828 120.81 358.487 120.468 357.781 119.956C357.074 119.445 356.538 119.103 356.538 119.103C356.538 119.103 355.905 118.616 355.101 118.421C354.297 118.226 353.843 118.177 352.909 118.153C351.974 118.128 350.943 118.106 350.379 118.276C349.815 118.445 349.299 118.671 348.499 119.25C347.7 119.828 347.058 120.497 346.342 121.214ZM366.182 130.354C365.99 129.558 365.844 129.781 365.876 128.7C366.189 127.804 366.541 127.414 367.346 127.454C367.233 128.758 366.944 129.076 366.182 130.354Z" fill="black"/>
<path d="M435.533 87.4223C434.676 88.0623 434.743 88.3578 434.432 89.6261C434.121 90.8944 434.358 92.2209 434.491 93.7485C434.623 95.276 434.889 96.222 434.822 98.0655C434.756 99.909 434.95 101.201 434.889 102.183C434.827 103.165 434.889 105.13 434.889 106.235C434.889 107.339 434.618 110.745 434.557 111.482C434.496 112.218 434.244 114.156 434.244 115.445C434.244 116.734 434.182 119.189 434.182 119.189C434.182 119.189 433.692 124.099 433.692 125.388C433.692 126.676 433.508 128.64 433.508 129.929C433.508 131.218 433.447 131.955 433.569 132.753C433.692 133.55 433.825 134.46 434.065 135.172C434.305 135.883 435.103 137.13 435.838 137.785C436.574 138.441 437.176 139.164 438.47 139.579C439.764 139.995 440.227 139.716 441.406 139.579C442.585 139.443 443.382 139.136 444.057 138.706C444.732 138.276 445.138 138.103 445.836 137.601C446.29 137.275 446.94 136.742 446.94 136.742C446.94 136.742 447.621 137.987 448.173 138.862C448.725 139.736 449.483 140.588 450.219 141.577C450.955 142.567 451.53 143.119 452.358 143.947C453.186 144.776 453.899 145.443 454.405 145.996C454.911 146.548 455.026 146.64 455.876 147.284C456.727 147.929 457.141 148.297 457.923 148.872C458.705 149.448 460.338 150.414 460.913 150.736C461.488 151.058 462.327 151.884 462.844 152.255C463.362 152.626 463.962 153.092 464.53 153.537C465.098 153.981 465.747 154.224 466.271 154.602C466.795 154.98 467.697 155.638 468.363 155.845C469.03 156.052 469.454 156.141 470.036 156.108C470.617 156.075 471.241 155.684 471.504 155.373C471.767 155.063 471.721 154.05 471.504 153.537C471.287 153.023 470.318 151.979 470.036 151.7C469.753 151.422 468.685 150.529 468.2 150.231C467.715 149.933 466.57 149.471 465.998 149.129C465.427 148.788 463.796 147.293 463.796 147.293C463.796 147.293 462.223 145.927 461.594 145.456C460.964 144.986 460.384 144.592 459.694 144.04C459.004 143.487 458.199 142.889 457.348 142.014C456.497 141.14 455.784 140.427 454.987 139.579C454.189 138.732 453.324 137.596 453.278 137.297C453.232 136.998 453.186 135.801 453.278 135.203C453.37 134.604 454.228 133.702 454.589 133.385C454.949 133.067 455.738 132.142 456.198 131.636C456.658 131.129 458.334 129.898 458.657 129.662C458.981 129.427 459.878 128.552 460.2 128.345C460.522 128.138 461.353 127.448 461.961 127.091C462.568 126.734 463.345 126.234 463.796 125.989C464.247 125.745 464.328 125.685 464.897 125.254C465.466 124.824 465.582 124.599 465.998 123.785C466.414 122.972 466.215 122.64 465.998 121.949C465.781 121.258 465.353 120.647 464.53 120.112C463.708 119.577 463.162 119.518 462.299 119.651C461.437 119.784 460.906 119.784 460.125 120.112C459.345 120.441 459.18 120.514 458.649 121.046C458.118 121.577 457.79 121.865 456.924 122.64C456.057 123.414 455.596 123.569 454.987 124.153C454.378 124.736 453.671 125.23 452.418 126.356C451.164 127.483 450.685 128.086 450.215 128.56C449.746 129.035 448.893 129.945 448.38 130.397C447.867 130.848 446.968 131.34 446.371 131.938C445.773 132.536 444.911 133.266 444.343 133.702C443.774 134.139 443.185 134.993 442.507 135.172C441.83 135.35 440.928 135.591 440.198 135.126C439.468 134.661 439.402 133.665 439.204 132.968C439.006 132.271 438.871 131.739 438.937 130.344C439.004 128.949 438.937 129.348 439.004 128.351C439.07 127.355 439.07 126.824 439.136 125.894C439.203 124.964 439.269 124.964 439.336 123.968C439.402 122.972 439.468 120.908 439.601 118.987C439.734 117.065 440.066 114.109 440.066 112.744C440.066 111.378 440.458 106.687 440.486 105.934C440.513 105.182 440.43 99.1615 440.43 99.1615C440.43 99.1615 440.43 95.4613 440.43 94.4793C440.43 93.4972 440.362 93.1422 440.331 92.0216C440.3 90.901 440.438 90.342 440.305 89.6261C440.172 88.9102 439.764 88.4394 439.204 87.7896C438.644 87.1398 438.905 87.1506 437.736 87.055C436.566 86.9594 436.39 86.7823 435.533 87.4223Z" fill="black"/>
<path fill-rule="evenodd" clip-rule="evenodd" d="M381.048 119.181C380.991 119.521 380.935 121.189 380.907 121.698C380.878 122.207 380.878 124.327 380.844 124.887C380.809 125.447 380.844 129.662 380.844 129.662V136.274L380.873 139.469C380.873 139.469 380.883 144.184 380.952 144.898C381.02 145.613 381.148 146.551 381.463 147.377C381.777 148.204 382.089 148.854 382.525 149.423C382.525 149.423 383.311 150.132 383.979 150.564C384.648 150.997 385.288 151.057 385.906 151.115C386.524 151.173 387.164 150.761 387.597 150.25C388.029 149.738 388.068 149.581 388.383 148.99C388.698 148.4 389.091 147.023 389.091 147.023L389.484 145.253C389.484 145.253 389.72 143.639 389.759 142.813C389.799 141.987 389.838 141.003 389.838 140.295C389.838 139.587 389.799 138.682 389.72 138.013C389.641 137.344 389.671 137.275 389.598 136.639C389.525 136.003 389.551 135.658 389.435 134.723C389.318 133.789 389.435 134.35 389.318 132.714C389.201 131.079 388.821 129.524 388.625 129.481C387.931 129.042 387.83 128.952 386.897 129.191C385.964 129.43 385.794 130.92 385.794 130.92C385.794 130.92 385.795 128.823 385.754 127.98C385.714 127.137 385.654 125.147 385.654 125.147C385.654 125.147 386.192 125.955 386.474 126.301C386.756 126.646 386.875 126.787 387.321 127.24C387.767 127.693 387.773 127.749 388.253 128.201C388.734 128.654 389.525 129.021 390.175 129.389C390.825 129.756 391.262 129.973 392.266 130.52C393.269 131.067 393.961 131.312 394.95 131.594C395.939 131.877 396.918 131.798 397.361 131.866C397.804 131.934 399.4 131.855 399.93 131.866C400.46 131.877 402.212 131.849 402.212 131.849C402.212 131.849 402.084 133.871 402.132 134.804C402.18 135.737 402.346 137.307 402.593 138.753C402.841 140.199 403.666 142.512 404.286 143.338C404.905 144.164 405.73 145.404 406.185 145.941C406.639 146.478 407.11 146.909 407.638 147.293C408.166 147.676 409.722 148.246 410.574 148.394C411.427 148.543 412.944 148.494 413.878 148.394C414.812 148.295 415.284 147.901 416.08 147.293C416.876 146.684 417.468 145.88 417.915 145.456C418.362 145.032 418.96 143.983 419.383 143.62C419.807 143.256 420.798 142.347 421.219 142.15C421.64 141.954 422.16 141.562 422.32 141.048C422.48 140.535 422.655 139.868 422.32 139.579C421.984 139.29 421.004 139.538 420.485 139.579C419.965 139.621 419.353 140.116 419.016 140.314C418.68 140.512 417.206 141.769 416.814 142.15C416.422 142.532 415.06 143.462 414.612 143.62C414.164 143.777 413.037 144.04 412.41 143.987C411.782 143.933 410.725 143.875 410.207 143.62C409.689 143.364 409.322 142.925 409.033 142.471C408.744 142.016 408.538 141.479 408.372 141.048C408.207 140.618 407.96 139.538 407.877 138.959C407.795 138.381 407.836 137.183 407.836 136.316C407.836 135.448 407.868 134.257 407.836 133.796C407.803 133.335 407.877 131.276 407.877 131.276C407.877 131.276 408.827 131.235 409.982 130.904C411.138 130.574 411.51 130.491 412.542 129.913C413.574 129.334 414.488 128.849 415.019 128.467C415.549 128.085 416.154 127.467 416.835 126.897C417.516 126.327 418.842 125.061 419.683 124.336C420.524 123.611 421.819 122.09 422.32 121.581C422.82 121.073 423.357 120.247 423.77 119.296C424.183 118.346 424.348 117.975 424.637 116.942C424.926 115.909 425.127 115.095 425.215 113.802C425.302 112.509 425.173 111.076 424.889 110.195C424.605 109.314 423.811 108.226 423.421 107.624C423.031 107.022 422.036 106.201 421.586 105.787C421.135 105.373 420.102 104.826 419.105 104.549C418.108 104.272 417.371 104.095 416.447 103.951C415.523 103.807 414.73 103.806 413.511 103.951C412.292 104.096 411.716 104.343 410.941 104.686C410.167 105.028 409.115 105.706 408.62 106.243C408.125 106.78 407.093 107.854 406.537 108.726C405.981 109.598 405.524 110.332 405.194 111.117C404.864 111.902 404.616 112.811 404.335 113.501C404.053 114.191 403.79 114.752 403.601 115.705C403.411 116.657 403.336 117.066 403.171 117.809C403.006 118.553 402.882 119.833 402.882 120.577C402.882 121.321 402.882 121.94 402.841 122.766C402.8 123.593 402.8 124.253 402.8 125.08C402.8 125.906 402.758 127.104 402.758 127.104C402.758 127.104 400.771 127.183 400.064 127.212C399.358 127.24 398.312 127.183 397.521 127.098C396.73 127.014 395.882 126.901 395.035 126.618C394.187 126.335 393.368 125.685 392.887 125.402C392.407 125.119 391.531 124.525 390.909 124.073C390.288 123.621 389.779 123.225 389.383 122.857C388.988 122.49 388.253 121.67 387.999 121.33C387.745 120.991 387.349 120.567 387.084 120.112C386.818 119.658 386.417 118.474 386.106 118.05C385.795 117.626 385.258 117.258 384.665 117.061C384.071 116.863 383.429 116.834 382.743 116.947C382.057 117.061 381.761 117.4 381.472 117.683C381.183 117.965 381.104 118.842 381.048 119.181ZM408.827 117.396C408.992 116.611 409.157 116.033 409.363 115.083C409.57 114.133 409.941 113.307 410.271 112.604C410.602 111.902 410.849 111.489 411.345 110.869C411.84 110.25 412.294 109.961 412.789 109.506C413.285 109.052 414.187 108.45 415.346 108.359C416.505 108.267 417.548 108.726 417.548 108.726C417.548 108.726 418.651 109.341 418.94 109.506C419.229 109.671 419.601 110.25 419.848 110.622C420.096 110.993 420.426 111.737 420.485 112.399C420.543 113.061 420.633 114.05 420.485 114.603C420.337 115.155 420.055 115.826 419.751 116.439C419.446 117.052 418.734 118.057 418.282 118.643C417.831 119.229 417.206 120.081 416.711 120.618C416.216 121.155 415.266 122.023 414.612 122.683C413.958 123.344 413.615 123.593 413.161 124.006C412.707 124.419 411.84 125.162 411.262 125.451C410.684 125.741 409.858 126.071 409.198 126.236C408.538 126.402 407.753 126.402 407.753 126.402C407.753 126.402 407.795 125.204 407.836 124.006C407.877 122.808 407.96 122.188 408.083 121.362C408.207 120.536 408.331 120.205 408.455 119.338C408.579 118.47 408.661 118.181 408.827 117.396ZM385.961 141.625L385.715 137.673C385.715 137.673 385.302 140.565 385.318 141.805C385.333 143.045 385.608 145.009 385.608 145.009L385.961 141.625Z" fill="black"/>
<path d="M385.715 137.673L385.961 141.625L385.608 145.009C385.608 145.009 385.333 143.045 385.318 141.805C385.302 140.565 385.715 137.673 385.715 137.673Z" fill="black"/>
<path d="M365.876 128.7C365.844 129.781 365.99 129.558 366.182 130.354C366.944 129.076 367.233 128.758 367.346 127.454C366.541 127.414 366.189 127.804 365.876 128.7Z" fill="black"/>
<path fill-rule="evenodd" clip-rule="evenodd" d="M217.372 101.5C217.309 101.838 217.241 102.999 217.289 104.303C217.336 105.607 217.435 107.337 217.519 108.601C217.602 109.865 217.703 111.545 217.799 112.98C217.895 114.416 218.12 117.15 218.167 118.588C218.214 120.025 218.315 122.213 218.315 123.1C218.315 123.988 218.343 125.477 218.343 126.422C218.343 127.367 218.343 128.771 218.343 128.771C218.343 128.771 217.632 128.971 217.241 128.938C216.849 128.904 216.098 128.885 216.098 128.885C216.098 128.885 213.754 126.834 213.334 126.477C212.914 126.121 211.472 125.168 211.042 124.901C210.612 124.634 208.346 123.5 207.702 123.268C207.059 123.036 205.09 122.368 204.683 122.259C204.277 122.15 203.16 121.84 202.212 121.835C201.265 121.83 200.03 122.002 199.382 122.259C198.733 122.517 198.277 122.902 198.265 123.665C198.254 124.429 198.639 125.234 198.971 125.767C199.303 126.301 199.534 126.601 199.964 127.1C200.393 127.6 200.856 128.2 201.419 128.8C201.981 129.4 202.45 129.732 203.009 130.133C203.568 130.533 204.955 131.407 205.8 131.82C206.644 132.232 207.465 132.528 208.311 132.663C209.157 132.799 210.943 132.899 211.605 132.932C212.266 132.965 214.912 132.699 214.912 132.699C214.912 132.699 215.348 134.239 215.566 134.913C215.785 135.586 216.285 137.066 216.609 137.82C216.934 138.575 217.567 140.397 217.799 141.099C218.03 141.801 218.474 143.329 218.636 143.911C218.798 144.493 219.451 145.925 219.593 146.755C219.736 147.586 219.353 148.945 219.473 149.253C219.593 149.562 219.919 149.726 220.31 149.816C220.702 149.905 221.487 149.346 221.706 149.253C221.924 149.161 222.554 148.596 222.822 147.847C223.089 147.099 222.833 144.693 222.72 143.491C222.606 142.288 222.264 139.693 222.264 139.693C222.264 139.693 222.066 138.164 221.952 137.018C221.839 135.873 221.782 134.956 221.782 134.355C221.782 133.754 221.81 131.72 221.81 131.72L223.659 130.695C223.659 130.695 225.192 129.888 225.675 129.658C226.159 129.429 227.153 128.828 227.608 128.627C228.063 128.427 229.541 127.482 229.967 127.282C230.393 127.081 232.141 125.876 232.589 125.634C233.036 125.391 235.196 124.16 235.196 124.16C235.196 124.16 236.732 123.236 237.186 122.929C237.64 122.621 238.493 122.012 238.728 121.697C238.962 121.382 239.232 120.723 238.728 120.291C238.223 119.859 236.873 120.237 236.495 120.291C236.117 120.346 235.395 120.809 235.054 120.981C234.713 121.153 233.406 121.926 233.036 122.127C232.667 122.327 231.644 123.043 231.303 123.244C230.962 123.444 230.166 124.045 229.796 124.246C229.427 124.446 228.66 124.847 228.375 125.019C228.091 125.191 227.162 125.617 226.727 125.85C226.292 126.083 225.548 126.508 225.034 126.787C224.52 127.065 223.986 127.333 223.43 127.597C222.875 127.86 221.81 128.198 221.81 128.198L221.706 122.822C221.706 122.822 221.674 117.921 221.596 115.174C221.517 112.428 221.47 107.716 221.427 106.794C221.383 105.873 221.41 104.469 221.303 103.397C221.197 102.324 220.964 101.212 220.822 100.826C220.68 100.44 220.529 99.8359 220.174 99.562C219.819 99.2881 219.505 99.2039 219.194 99.2022C218.883 99.2005 218.564 99.1828 218.078 99.4834C217.592 99.784 217.435 101.163 217.372 101.5ZM207.753 126.758C207.01 126.383 204.858 125.901 204.726 126.134C204.593 126.367 206.71 128.233 206.71 128.233C206.71 128.233 207.881 128.989 208.496 129.266C209.11 129.544 211.307 129.566 211.307 129.566C211.307 129.566 210.315 128.467 209.985 128.164C209.656 127.862 208.496 127.134 207.753 126.758Z" fill="black"/>
<path d="M58.3607 4.04032C58.3607 6.24414 58.8 7.64126 59.8289 7.71335C60.8578 7.78543 61.664 7.64126 63.2036 6.90666C64.7432 6.17206 65.9951 5.87683 67.1697 5.87683C68.6378 5.87683 74.7642 6.59076 76.9665 6.59076C78.7283 6.59076 81.6425 6.78354 83.4777 6.78354C85.313 6.78354 90.9536 7.49296 92.1282 6.61144C93.3027 5.72991 93.5969 5.14223 93.5969 4.04032C93.5969 2.93842 92.8622 2.62244 92.1282 2.57112C87.8222 2.27009 76.0024 1.25368 75.2441 1.10191C73.4089 0.734604 64.9668 0 63.1316 0C62.1609 0 60.7756 0.61656 59.8289 1.46921C58.9857 2.22858 58.3607 3.15807 58.3607 4.04032Z" fill="black"/>
<path fill-rule="evenodd" clip-rule="evenodd" d="M52.3714 58.2392C52.3714 58.2392 53.827 47.2426 53.9296 46.6066C54.0321 45.9706 54.1141 44.2883 54.3232 42.9744C54.6522 42.1563 54.9988 41.8595 55.7914 41.5051C56.9294 41.6247 56.9654 41.8191 57.3533 42.2367C58.4034 43.362 58.3537 44.0531 58.7853 45.2192C59.017 46.8182 58.8294 48.0427 58.6654 49.4994L57.8454 55.5516L65.3345 52.5242C65.3345 52.5242 69.0135 51.328 70.602 50.7982C72.1904 50.2684 75.6901 49.3449 76.8894 49.01C78.0886 48.6751 81.456 48.0828 83.1768 47.8179C84.8976 47.5529 88.2729 47.6192 89.9937 47.8179C91.7145 48.0165 93.4467 48.4237 94.8251 49.2087C96.2034 49.9936 96.8768 52.3877 96.8768 52.3877C96.8768 52.3877 97.075 53.9694 97.2739 55.3018C97.4728 56.6342 98.0198 58.4852 99.3256 58.6133C100.631 58.7414 102.737 57.4918 103.561 57.0238C104.386 56.5558 103.615 57.1206 104.845 56.1364C106.074 55.1523 106.214 54.9062 107.233 53.8166C108.252 52.7269 108.954 51.7779 108.954 51.7779C108.954 51.7779 106.85 50.1518 106.386 49.4233C105.923 48.6948 105.744 48.0992 105.706 47.0778C105.668 46.0563 105.593 45.678 106.16 44.3918C106.727 43.1055 107.041 42.9232 107.558 42.4246C108.076 41.9259 109.39 41.2253 110.09 40.968C110.79 40.7106 111.948 40.5962 112.662 40.6087C113.376 40.6212 114.692 40.4913 116.065 41.2004C117.438 41.9095 118.014 42.4857 118.368 43.4607C118.722 44.4357 118.81 45.5134 118.634 46.696C118.458 47.8787 117.084 50.4189 117.084 50.4189C117.084 50.4189 119.254 50.6848 120.937 50.3303C122.62 49.9757 122.354 50.1973 123.727 49.5768C125.1 48.9564 124.335 49.188 126.163 48.4245C127.99 47.661 128.743 47.3698 130.101 46.8244C131.459 46.279 134.006 45.2349 134.006 45.2349L139.845 42.2398L144.983 39.3013C144.983 39.3013 149.367 37.1727 150.489 37.0975C151.61 37.0224 152.322 36.5104 153.058 37.0975C153.795 37.6847 153.525 37.8593 153.792 38.5667C154.059 39.2742 154.41 39.467 155.261 39.6686C156.111 39.8703 155.03 39.7319 156.729 39.6686C158.427 39.6054 160.479 39.6054 161.472 39.3404C162.465 39.0755 164.671 38.6883 165.538 38.5667C166.405 38.4452 170.07 37.8821 171.043 37.8321C172.017 37.7821 174.513 37.9211 175.448 37.8321C176.383 37.7431 176.813 37.466 177.65 37.0975C178.487 36.729 179.145 36.0033 180.22 35.9956C181.294 35.9879 182.374 36.7249 182.789 37.0975C183.204 37.4701 183.414 37.8692 183.523 38.5667C183.632 39.2643 182.813 43.2021 182.813 43.2021C182.813 43.2021 184.446 41.9089 185.667 41.0228C186.888 40.1367 188.668 38.6447 189.206 38.2502C189.744 37.8556 193.181 35.5589 193.961 35.0129C194.741 34.4668 197.864 32.1893 199.106 31.5025C200.348 30.8157 203.807 29.0014 205.179 28.2823C206.55 27.5631 209.277 26.2774 211.051 25.7112C212.826 25.1449 217.291 23.8746 217.291 23.8746C217.291 23.8746 220.045 23.191 220.594 23.14C221.144 23.0891 222.306 22.9293 223.164 23.14C224.021 23.3508 224.843 24.0791 224.999 24.6092C225.155 25.1394 225.279 26.7714 224.999 27.5477C224.719 28.3239 223.898 29.3842 223.898 29.3842L219.126 32.6899C219.126 32.6899 217.858 34.4758 217.657 35.609C217.455 36.7423 217.378 39.2324 217.526 40.0586C217.673 40.8849 218.734 41.6726 219.4 41.8472C220.067 42.0218 221.368 42.2397 222.063 42.2398C222.757 42.2398 226.1 41.5051 226.1 41.5051C226.1 41.5051 231.555 40.4975 232.696 40.2331C233.837 39.9688 237.576 38.8634 238.58 38.5667C239.584 38.2701 242.218 37.3645 242.817 37.1088C243.416 36.8531 245.585 35.929 246.713 35.3904C247.84 34.8519 249.096 33.8004 249.096 33.8004C249.096 33.8004 247.245 30.6966 247.022 30.1188C246.799 29.541 246.291 27.247 246.288 26.4458C246.285 25.6446 246.399 24.535 247.022 23.14C247.644 21.7451 248.827 20.9118 249.224 20.5689C249.621 20.2261 251.068 19.1627 251.928 18.612C252.788 18.0614 253.877 17.4357 255.097 16.8959C256.316 16.3561 258.942 16.0754 259.868 16.1613C260.795 16.2472 263.867 16.4165 264.64 16.8959C265.413 17.3753 266.754 18.6948 266.842 19.467C266.931 20.2392 267.035 22.2441 266.842 23.14C266.649 24.036 265.768 26.8287 265.374 27.5477C264.979 28.2667 263.433 30.5264 262.616 31.2173C261.799 31.9082 260.392 33.1705 259.473 33.6906C259.109 33.8964 257.349 35.1083 257.349 35.1083C257.349 35.1083 258.493 35.9443 259.348 36.3137C260.203 36.6831 261.239 37.1091 262.062 37.505C262.884 37.901 265.075 38.4528 265.374 38.5667C265.673 38.6807 268.482 39.4524 270.015 40.0139C271.549 40.5755 274.917 41.5051 274.917 41.5051C274.917 41.5051 279.116 42.604 280.423 42.9744C281.73 43.3447 285.199 44.1149 286.296 44.4436C287.393 44.7722 289.686 45.2798 290.333 45.9128C290.98 46.5458 292.319 47.7393 292.168 48.8512C292.018 49.9631 291.283 50.5687 290.333 50.6877C289.383 50.8067 288.819 50.785 288.131 50.6877C287.443 50.5904 287.03 48.8512 287.03 48.8512C287.03 48.8512 284.323 48.4059 283.359 48.1166C282.395 47.8273 278.79 47.5407 276.752 47.0147C274.714 46.4887 269.28 44.7722 269.28 44.7722C269.28 44.7722 263.295 43.0075 262.372 42.7254C261.449 42.4433 259.655 41.7765 257.666 40.7705C255.677 39.7646 253.504 37.9295 253.504 37.9295C253.504 37.9295 252.735 38.4424 252.274 38.7502C251.813 39.0579 251.249 39.34 250.583 39.6991C249.916 40.0582 248.866 40.4685 248.123 40.7705C247.38 41.0726 245.329 41.9047 244.161 42.3271C242.994 42.7494 241.536 43.3922 240.415 43.709C239.294 44.0257 236.128 44.8028 235.312 44.9881C234.496 45.1734 231.13 45.88 229.732 46.1659C228.333 46.4519 225.191 47.0622 224.544 47.1257C223.898 47.1892 221.563 47.4111 220.752 47.3874C219.941 47.3637 218.005 47.1257 217.291 47.0147C216.577 46.9037 215.913 46.6458 215.172 46.2968C214.431 45.9478 213.646 45.1626 213.646 45.1626C213.646 45.1626 212.064 43.8296 211.684 42.4143C211.305 40.999 211.03 37.4848 211.205 36.0016C211.379 34.5184 211.902 31.1158 211.902 31.1158C211.902 31.1158 211.656 30.6834 211.111 30.8785C210.565 31.0735 209.576 31.556 209.156 31.8138C208.736 32.0715 207.587 32.7735 206.901 33.0237C206.216 33.2738 204.368 34.4668 203.354 35.0909C202.341 35.7149 200.699 36.656 200.04 37.0975C199.381 37.539 196.737 39.3013 196.737 39.3013L192.332 42.2398C192.332 42.2398 188.523 44.7267 187.958 45.0983C187.392 45.4698 185.303 46.634 184.257 47.3955C183.21 48.157 181.551 49.2842 181.551 49.2842C181.551 49.2842 178.956 53.1521 177.65 55.0953C176.344 57.0385 175.807 57.8134 174.714 59.1357C173.621 60.4579 172.027 62.4843 170.75 63.9208C169.474 65.3572 167.582 67.8554 166.217 69.2865C164.852 70.7175 163.122 72.471 161.683 73.9978C160.245 75.5246 158.937 76.7025 157.716 77.9676C156.496 79.2326 155.624 80.1051 154.534 80.9776C153.444 81.8501 152.841 82.2075 152.324 82.643C151.808 83.0785 150.369 83.9073 149.45 84.0406C148.53 84.1739 147.638 84.0342 147.15 83.0265C146.663 82.0189 147.15 79.4382 147.345 78.1121C147.54 76.7859 148.286 74.4254 148.654 73.4604C149.021 72.4955 149.398 72.0432 150.385 70.5453C151.373 69.0475 151.834 68.4182 153.058 66.849C154.283 65.2798 155.531 63.6357 156.972 62.1205C158.414 60.6054 161.174 57.9546 162.78 56.2699C164.386 54.5853 166.946 52.4472 168.107 51.4223C169.268 50.3974 170.265 49.8544 171.32 49.1505C172.375 48.4466 176.156 45.5869 176.156 45.5869L176.806 42.0748C176.806 42.0748 171.324 42.8263 169.942 42.9744C168.561 43.1224 165.84 43.5791 164.437 43.709C163.033 43.8388 161.075 44.3739 160.016 44.5726C158.957 44.7713 155.979 45.1687 155.261 45.1782C154.542 45.1877 152.272 45.4336 151.478 44.9037C150.684 44.3739 150.419 43.1818 150.419 43.1818L148.654 42.9744C148.654 42.9744 144.198 44.6388 143.148 45.1782C142.098 45.7175 139.3 47.288 138.009 47.7493C136.719 48.2106 134.138 49.6061 133.344 49.871C132.55 50.1359 128.631 51.6974 127.917 51.9241C127.203 52.1508 123.35 53.911 121.859 53.9934C120.369 54.0758 119.387 54.1418 117.822 53.9934C116.257 53.8451 114.958 53.6099 114.958 53.6099C114.958 53.6099 114.205 54.319 113.629 54.8066C113.053 55.2941 112.165 56.1628 111.582 56.5645C110.999 56.9663 109.165 58.2805 108.111 59.2296C107.057 60.1786 106.216 60.6768 105.301 61.2682C104.386 61.8597 102.569 62.5871 101.51 62.9845C100.451 63.3819 100.186 63.2494 98.9946 63.1169C97.8033 62.9845 96.2034 62.4017 95.4869 61.5937C94.7704 60.7856 94.0616 60.3428 93.7661 59.4081C93.4707 58.4734 92.9719 57.2225 92.9719 56.1628C92.9719 55.1031 91.9792 53.8448 91.3947 53.2588C90.8103 52.6729 90.457 52.7189 88.4584 52.5242C86.4598 52.3296 84.8509 52.5823 83.7063 52.5864C82.5617 52.5904 79.4123 53.1061 77.7498 53.4474C76.0872 53.7887 71.6609 55.368 71.6609 55.368C71.6609 55.368 66.1015 57.4212 63.9174 58.2822C61.7334 59.1432 57.6266 60.6049 57.6266 60.6049L57.1278 60.8857L56.8203 63.081L55.7914 70.1547L54.387 78.5485C54.387 78.5485 52.8648 86.9597 52.2691 89.0128C51.6735 91.0659 50.5484 94.6423 49.5516 96.6005C48.5549 98.5586 46.0221 103.274 44.7242 105.107C43.4263 106.939 39.6281 111.465 37.8062 113.129C35.9843 114.793 29.7544 119.247 27.7151 120.273C25.6758 121.3 20.9235 123.949 18.7199 123.781C16.5162 123.612 10.2427 123.32 8.80966 122.679C7.37665 122.038 4.35234 120.406 2.69776 118.22C1.04317 116.035 0.0168842 113.149 0.000582965 109.823C-0.0157182 106.497 0.305859 103.858 1.46876 100.641C2.63166 97.424 4.84623 94.7514 6.24277 92.8702C7.63931 90.989 10.7121 87.5566 12.7828 85.6691C14.8535 83.7816 17.6096 81.4986 22.0905 77.8525C26.3108 74.4184 32.0565 69.9691 33.4017 69.0528C36.1751 67.1636 39.2222 65.2759 43.9658 62.6091C48.178 60.241 52.3714 58.2392 52.3714 58.2392ZM50.7108 68.1074L49.5516 76.7662C49.5516 76.7662 48.3736 84.7869 48.0251 86.4487C47.6766 88.1105 46.8282 91.0449 45.9954 93.2395C45.1627 95.4341 43.0817 98.7553 41.8437 100.641C40.6057 102.526 38.275 105.617 36.8517 107.149C35.4284 108.682 31.6916 111.43 29.9339 112.62C28.1761 113.809 24.6737 115.602 23.8585 116.067C23.0433 116.533 18.6463 118.454 17.9858 118.639C17.3253 118.824 14.5947 118.915 13.2142 118.639C11.8337 118.362 9.91927 117.688 9.22243 117.288C8.52559 116.888 6.88975 115.025 6.24035 113.864C5.59094 112.703 5.56269 111.123 5.4022 109.775C5.24172 108.428 5.80301 103.626 6.24035 102.11C6.67768 100.594 7.64305 98.4449 8.55945 97.0144C9.47586 95.5839 11.4707 92.9728 12.4753 91.8854C13.4798 90.7981 14.7359 89.2994 16.0631 88.2131C17.3902 87.1267 19.8559 85.0741 19.8559 85.0741L23.9767 81.9352L27.6055 79.145L31.6443 76.1497C31.6443 76.1497 34.207 74.2211 35.0681 73.5852C35.9291 72.9492 36.1624 72.894 37.1182 72.108L39.1889 70.8565L41.8541 69.2152L45.0524 67.3688L49.7882 64.353L51.4284 63.4092L50.7108 68.1074ZM110.848 46.6474C111.026 46.3298 111.119 45.8508 111.582 45.5455C112.045 45.2401 112.555 45.1537 113.095 45.2702C113.636 45.3866 113.801 45.7322 113.784 46.2801C113.768 46.8279 113.806 47.0063 113.629 47.4495C113.452 47.8927 113.296 48.1758 112.916 48.5022C112.535 48.8285 112.168 49.045 112.168 49.045C112.168 49.045 111.062 48.3684 110.956 48.0169C110.851 47.6654 110.67 46.965 110.848 46.6474ZM168.107 57.2991C167.372 57.8584 165.472 59.4497 165.04 59.8201C164.608 60.1906 162.029 62.6366 161.867 62.8087C161.706 62.9808 159.649 65.2366 159.422 65.474C159.195 65.7114 157.881 67.4059 157.439 67.9957C156.996 68.5855 156.147 69.6688 155.889 70.5166C155.631 71.3645 155.524 71.9883 155.839 72.1482C156.155 72.3081 157.35 71.0733 158.197 70.1547C159.044 69.2361 159.824 68.5677 160.702 67.6142C161.579 66.6607 163.283 65.0908 163.538 64.8495C163.793 64.6083 165.444 62.8125 165.812 62.4084C166.181 62.0042 167.08 60.9705 167.74 60.2376C168.4 59.5046 173.65 53.1541 173.65 53.1541C173.65 53.1541 168.842 56.7399 168.107 57.2991ZM251.059 27.5477C250.971 27.0456 251.017 26.531 251.059 26.0785C251.101 25.6259 251.451 24.9689 251.793 24.6092C252.136 24.2496 252.621 23.7322 253.229 23.2549C253.836 22.7776 254.551 22.322 255.028 22.04C255.505 21.7579 256.134 21.4108 256.676 21.1721C257.218 20.9335 258.355 20.4403 259.256 20.4345C260.156 20.4286 261.485 20.7003 261.704 20.9362C261.922 21.1721 262.067 21.6892 262.071 22.0381C262.074 22.3871 261.988 23.4719 261.836 23.8841C261.684 24.2963 261.099 25.2726 260.665 25.9018C260.231 26.531 259.581 27.312 259.191 27.6375C258.8 27.9629 258.266 28.5304 257.666 29.0169C257.066 29.5033 256.58 30.0816 255.939 30.6202C255.298 31.1587 254.478 31.723 253.171 32.1846C252.761 31.646 252.505 31.1331 252.223 30.7997C251.941 30.4663 251.758 30.036 251.454 29.3635C251.151 28.6909 251.147 28.0497 251.059 27.5477Z" fill="black"/>
</svg>
